/* XPM */
static char *result[] = {
/* columns rows colors chars-per-pixel */
"64 64 163 2 ",
"   c black",
".  c #030100",
"X  c #050100",
"o  c #070100",
"O  c #070401",
"+  c #080200",
"@  c #0A0300",
"#  c #0E0801",
"$  c #190400",
"%  c #1E0800",
"&  c #240B01",
"*  c #240C01",
"=  c #250C01",
"-  c #260D01",
";  c #270D01",
":  c #260E01",
">  c #261001",
",  c #271001",
"<  c #291201",
"1  c #2F1501",
"2  c #2F1601",
"3  c #301601",
"4  c #311601",
"5  c #361602",
"6  c #3D1C02",
"7  c #2F2106",
"8  c #2F2207",
"9  c #302207",
"0  c #382909",
"q  c #38280A",
"w  c #38290A",
"e  c #39290A",
"r  c #3A2A0A",
"t  c #3B2B0B",
"y  c #432102",
"u  c #4F3A11",
"i  c #503B12",
"p  c #503B14",
"a  c #B0500E",
"s  c #AE5110",
"d  c #AC5211",
"f  c #B35311",
"g  c #B15412",
"h  c #B55713",
"j  c #B65B15",
"k  c #B45B17",
"l  c #B85E18",
"z  c #BB641D",
"x  c #D87300",
"c  c #D87403",
"v  c #D97503",
"b  c #D97504",
"n  c #DA790B",
"m  c #DA790C",
"M  c #D17215",
"N  c #D47314",
"B  c #D57314",
"V  c #D57515",
"C  c #D57516",
"Z  c #D67516",
"A  c #D67616",
"S  c #D87413",
"D  c #D87513",
"F  c #D87514",
"G  c #D87614",
"H  c #D97614",
"J  c #D87615",
"K  c #D97615",
"L  c #DA7715",
"P  c #D87516",
"I  c #D97716",
"U  c #D97617",
"Y  c #D97717",
"T  c #DA7816",
"R  c #DA7817",
"E  c #DB7917",
"W  c #D97718",
"Q  c #D7791A",
"!  c #D97819",
"~  c #DA7A19",
"^  c #DA7A1A",
"/  c #DB7B1A",
"(  c #DA7A1B",
")  c #DA7B1B",
"_  c #DB7B1B",
"`  c #DB7C1B",
"'  c #DC7C1B",
"]  c #DB7B1C",
"[  c #DB7C1D",
"{  c #DC7F1E",
"}  c #DC7F20",
"|  c #DB7F31",
" . c #DA7E32",
".. c #DB7F32",
"X. c #DC8334",
"o. c #F6BC4A",
"O. c #FABE48",
"+. c #F8BC4A",
"@. c #F9BD4A",
"#. c #FABD4A",
"$. c #FBBE4A",
"%. c #FABF4B",
"&. c #FBBF4B",
"*. c #FCBF48",
"=. c #FCBE4A",
"-. c #FFC146",
";. c #FFC246",
":. c #FDC048",
">. c #FEC048",
",. c #FEC049",
"<. c #FEC249",
"1. c #FFC249",
"2. c #FDC04B",
"3. c #FFC24A",
"4. c #FFC34A",
"5. c #FFC34B",
"6. c #FAC04C",
"7. c #FBC04C",
"8. c #FCC04C",
"9. c #FDC04C",
"0. c #FCC14C",
"q. c #FDC14D",
"w. c #FEC04C",
"e. c #FEC14C",
"r. c #FFC14C",
"t. c #FEC14D",
"y. c #FFC24C",
"u. c #FFC24D",
"i. c #FEC34D",
"p. c #FFC34D",
"a. c #FFC34E",
"s. c #FFC44D",
"d. c #FFC44E",
"f. c #FFC54E",
"g. c #FFC44F",
"h. c #FFC54F",
"j. c #FBC255",
"k. c #FDC256",
"l. c #FEC356",
"z. c #FFC454",
"x. c #FFC554",
"c. c #FFC557",
"v. c #FFC657",
"b. c #FFC558",
"n. c #FFC658",
"m. c #FFC75F",
"M. c #FFC760",
"N. c #FEEEC5",
"B. c #FFEFC5",
"V. c #FEEFC8",
"C. c #FFF0C5",
"Z. c #FFF0C6",
"A. c #FEF0C8",
"S. c #FFF1C8",
"D. c #FEF0C9",
"F. c #FFF1C9",
"G. c #FFF2C9",
"H. c #FFF2CA",
"J. c #FFF3CC",
"K. c #FFF3CD",
"L. c #FFF4CD",
"P. c #FFF4CE",
"I. c None",
/* pixels */
"I.I.I.I.I.I.I.I.I.I.I.I.I.I.I.I.I.I.I.I.                                                I.I.I.I.I.I.I.I.I.I.I.I.I.I.I.I.I.I.I.I.",
"I.I.I.I.I.I.I.I.I.I.I.I.I.I.I.I.I.I.I.I.O O O O O O O O O O O O O O O O O O O O O O O O I.I.I.I.I.I.I.I.I.I.I.I.I.I.I.I.I.I.I.I.",
"I.I.I.I.I.I.I.I.I.I.I.I.I.I.I.I.I.I.I.I.                                                I.I.I.I.I.I.I.I.I.I.I.I.I.I.I.I.I.I.I.I.",
"I.I.I.I.I.I.I.I.I.I.I.I.I.I.I.I.I.I.I.I.0 e e e e e e e e e e e e e e e e e e e e e e 0 I.I.I.I.I.I.I.I.I.I.I.I.I.I.I.I.I.I.I.I.",
"I.I.I.I.I.I.I.I.I.I.I.I.I.I.I.I.  O   w o.8.%.%.%.%.%.%.%.%.%.%.%.%.%.%.%.%.%.%.%.%.8.o.w   O   I.I.I.I.I.I.I.I.I.I.I.I.I.I.I.I.",
"I.I.I.I.I.I.I.I.I.I.I.I.I.I.I.I.O #   t 8.f.s.s.s.s.s.s.s.s.s.s.s.s.s.s.s.s.s.s.s.s.f.8.t   # O I.I.I.I.I.I.I.I.I.I.I.I.I.I.I.I.",
"I.I.I.I.I.I.I.I.I.I.I.I.I.I.I.I.      8 6.d.p.p.p.p.p.p.p.p.p.p.p.p.p.p.p.p.p.p.p.i.s.%.8       I.I.I.I.I.I.I.I.I.I.I.I.I.I.I.I.",
"I.I.I.I.I.I.I.I.I.I.I.I.I.I.I.I.0 t 8 u @.y.2.e.e.e.e.e.e.e.e.e.e.e.e.e.e.e.w.e.p.p.s.&.i 8 t 0 I.I.I.I.I.I.I.I.I.I.I.I.I.I.I.I.",
"I.I.I.I.I.I.I.I.I.I.I.I.  O   w o.8.6.@.{ ~ _ _ _ _ _ _ _ _ _ _ _ _ _ _ _ _ ~ { e.s.p.p.&.%.8.o.w   O   I.I.I.I.I.I.I.I.I.I.I.I.",
"I.I.I.I.I.I.I.I.I.I.I.I.O #   t 8.f.d.r.^ D K K K K K K K K K K K K K K K K D ^ e.d.p.a.s.s.f.8.t   # O I.I.I.I.I.I.I.I.I.I.I.I.",
"I.I.I.I.I.I.I.I.I.I.I.I.      8 6.d.d.e.^ D K K K K K K K K K K K K K K K K D ~ >.4.1.3.p.i.s.%.8       I.I.I.I.I.I.I.I.I.I.I.I.",
"I.I.I.I.I.I.I.I.I.I.I.I.0 t 8 u @.r.e.=.{ ~ _ _ _ _ _ _ _ _ _ _ _ _ _ _ _ _ ~ } l.n.c.c.p.p.s.&.i 8 t 0 I.I.I.I.I.I.I.I.I.I.I.I.",
"I.I.I.I.I.I.I.I.  O   w o.8.6.@.{ ^ ^ { =.e.2.e.e.e.e.e.e.e.e.e.e.e.e.e.e.e.>.l.B.G.G.C.c.3.a.p.&.%.8.o.w   O   I.I.I.I.I.I.I.I.",
"I.I.I.I.I.I.I.I.  O   e 8.f.d.y.~ D D ~ e.d.p.s.d.d.d.d.d.d.d.d.s.s.s.s.s.d.4.n.H.P.P.H.c.3.a.p.s.s.f.8.e   O   I.I.I.I.I.I.I.I.",
"I.I.I.I.I.I.I.I.  O   e %.s.p.9._ K K _ w.p.p.p.3.1.1.3.1.3.1.3.p.p.p.p.p.p.3.c.F.K.K.F.c.3.a.p.p.i.s.%.e   O   I.I.I.I.I.I.I.I.",
"I.I.I.I.I.I.I.I.  O   e %.s.p.e._ K K _ e.s.p.p.c.c.c.c.c.c.c.c.p.p.p.p.p.a.3.c.F.K.K.F.c.3.a.p.p.p.s.%.e   O   I.I.I.I.I.I.I.I.",
"I.I.I.I.I.I.I.I.  O   e %.s.p.e._ K K _ e.d.3.c.C.H.S.F.F.S.H.C.c.3.a.p.p.a.3.c.F.K.K.F.c.3.a.p.p.p.s.%.e   O   I.I.I.I.I.I.I.I.",
"I.I.I.I.I.I.I.I.O #   r %.s.p.w._ K K _ e.d.1.c.H.P.K.K.K.K.P.G.c.1.p.p.p.a.3.c.F.K.K.F.b.3.a.a.p.p.s.%.r   # O I.I.I.I.I.I.I.I.",
"I.I.I.I.I.I.I.I.      9 7.f.d.e.~ D D ~ e.d.3.c.F.K.J.J.K.K.P.G.n.4.d.s.p.a.3.c.H.P.P.H.x.;.3.3.p.p.s.%.8       I.I.I.I.I.I.I.I.",
"I.I.I.I.I.I.I.I.0 t 8 u @.r.e.=.{ ^ ^ { e.d.3.c.F.K.J.J.F.S.H.B.l.>.e.e.p.a.3.c.C.G.G.Z.m.x.b.c.p.p.s.&.i 8 t 0 I.I.I.I.I.I.I.I.",
"I.I.I.I.  O   w o.8.6.@.{ ^ ^ { =.e.2.e.p.a.3.c.F.K.K.F.M.z.n.l.} ~ ^ { e.s.p.p.c.b.x.m.Z.G.G.C.c.3.a.p.&.%.8.o.w   O   I.I.I.I.",
"I.I.I.I.  O   e 8.f.d.y.~ D D ~ t.d.d.d.a.a.3.b.F.K.K.F.x.-.5.>.~ F D ^ e.d.a.p.3.3.;.x.H.P.P.H.c.3.a.p.s.s.f.8.e   O   I.I.I.I.",
"I.I.I.I.  O   e %.s.p.9._ K K / >.4.1.3.3.3.;.x.F.K.K.F.b.3.g.e.^ D F ~ >.4.1.3.p.a.3.b.F.K.K.F.c.3.a.p.p.i.s.%.e   O   I.I.I.I.",
"I.I.I.I.  O   e %.s.p.e._ K H ] l.n.c.c.c.b.x.M.F.K.K.F.c.3.d.e.{ ^ ~ } l.n.c.c.p.p.3.c.F.K.K.F.c.3.a.p.p.p.s.%.e   O   I.I.I.I.",
"I.I.I.I.  O   e %.s.p.e._ U b | N.H.S.F.F.F.F.F.J.J.K.F.c.3.a.p.e.e.>.l.B.G.G.C.c.3.3.c.F.K.K.F.c.3.a.p.p.p.s.%.e   O   I.I.I.I.",
"I.I.I.I.  O   e %.s.p.e._ U v ..D.P.K.K.K.K.K.K.J.J.K.F.c.3.a.p.s.d.4.n.G.L.L.G.c.3.3.c.F.K.K.F.c.3.a.p.p.p.s.%.e   O   I.I.I.I.",
"I.I.I.I.  O   e %.s.p.e._ U v ..V.L.J.J.K.K.K.K.K.K.P.H.c.3.a.p.p.p.1.c.G.L.L.G.n.5.5.v.F.K.K.F.c.3.a.p.s.p.f.7.e   O   I.I.I.I.",
"I.I.I.I.  O   e %.s.p.e._ U v ..V.L.J.J.F.F.F.F.F.S.H.C.c.3.a.p.p.a.3.c.C.G.G.B.l.,.,.l.F.K.K.F.c.3.a.p.e.2.y.@.q   O   I.I.I.I.",
"I.I.I.I.  O   e %.s.p.e._ U v ..V.L.K.F.M.x.b.c.c.c.c.c.p.p.p.p.p.p.p.p.c.c.n.l.} ( m X.A.L.K.F.c.3.d.e.{ ~ ' Q 2   X   I.I.I.I.",
"I.I.I.I.  O   e %.s.p.e._ U v ..V.L.K.F.x.;.3.3.3.3.3.3.p.p.p.p.p.p.p.p.3.1.4.>.~ P x  .V.L.K.F.c.3.d.e.~ S L B 1   X   I.I.I.I.",
"I.I.I.I.  O   e %.s.p.e._ U v ..V.L.K.F.b.3.a.a.a.a.a.a.p.p.p.p.p.p.p.p.a.p.d.e._ U b ..V.L.K.F.c.3.d.e._ J R C 1   X   I.I.I.I.",
"I.I.I.I.  O   e %.s.p.e._ U v ..V.L.K.F.c.3.a.p.p.p.p.p.p.p.p.p.p.p.p.p.p.p.s.e._ U v ..V.L.K.F.c.3.d.e._ G T V 1   X   I.I.I.I.",
"I.I.I.I.  O   e %.s.p.e._ U v ..V.L.K.F.c.3.a.p.p.p.p.p.p.p.p.p.p.p.p.p.p.p.s.e._ U v ..V.L.K.F.c.3.d.e._ G T V 1   X   I.I.I.I.",
"I.I.I.I.  O   e %.s.p.e._ U v ..V.L.K.F.c.3.p.p.p.p.p.p.p.p.p.p.p.p.p.p.p.p.p.9._ U v ..V.L.K.F.c.3.d.e._ G T V 1   X   I.I.I.I.",
"I.I.I.I.  O   e %.s.p.e._ U v ..D.P.P.H.n.4.d.s.p.p.p.p.p.p.p.p.s.s.s.s.s.p.d.e._ U v ..V.L.K.F.c.3.d.e._ G T V 1   X   I.I.I.I.",
"I.I.I.I.  O   e %.s.p.e._ U b | N.H.G.B.l.>.e.e.p.p.p.p.p.p.p.p.e.e.e.e.e.2.e.=./ U v ..V.L.K.F.c.3.d.e._ G T V 1   X   I.I.I.I.",
"I.I.I.I.  O   e %.s.p.e._ K H ] l.n.v.l.} ~ ^ { e.s.p.p.p.p.s.e.{ ~ _ _ _ _ _ / I W c ..V.L.K.F.c.3.d.e._ G T V 1   X   I.I.I.I.",
"I.I.I.I.  O   e %.s.p.e._ K K / >.4.4.>.~ F D ^ e.d.p.a.p.p.s.e.~ S K G K K J K I ! v ..V.L.K.F.c.3.d.e._ G T V 1   X   I.I.I.I.",
"I.I.I.I.  O   e %.s.p.e._ K K _ e.d.d.e.^ D F ~ >.4.1.3.p.p.s.e._ K Y I K J K K G U x  .V.L.K.F.c.3.d.e._ G T V 1   X   I.I.I.I.",
"I.I.I.I.  O   e %.s.p.e._ K K _ e.p.p.e.{ ^ ~ } l.n.c.c.p.p.s.e._ G I I / _ _ _ _ [ n X.A.L.K.F.c.3.d.e._ G T V 1   X   I.I.I.I.",
"I.I.I.I.  O   e %.s.p.e._ K K _ e.s.p.p.e.e.>.l.B.G.G.C.c.3.d.e._ K K / =.e.2.e.e.e.>.l.F.K.K.F.c.3.d.e._ G T V 1   X   I.I.I.I.",
"I.I.I.I.  O   e %.s.p.9._ K K _ w.p.p.p.s.d.4.n.G.L.L.G.c.1.d.9._ K K _ e.d.p.s.d.g.5.n.F.K.K.F.c.1.d.9.) F T V 1   X   I.I.I.I.",
"I.I.I.I.  O   e 8.f.d.y.~ D D ~ e.d.p.s.p.p.1.c.G.L.L.G.n.4.d.e._ K K _ 9.p.p.p.3.3.-.z.H.P.P.H.n.4.d.e.' K E Z 1   X   I.I.I.I.",
"I.I.I.I.  O   w o.8.6.@.{ ^ ^ { =.e.2.e.p.a.3.c.C.G.G.B.l.:.t.=./ K K _ e.s.p.p.c.b.x.m.Z.G.G.B.l.:.t.=.Q N A M 1   X   I.I.I.I.",
"I.I.I.I.I.I.I.I.0 t 8 u @.r.e.=.{ ^ ^ { e.s.p.p.c.c.n.l.} ~ ` / I I G _ e.d.3.c.C.G.G.Z.m.z.n.l.} ~ ' Q y > 4 1 I.I.I.I.I.I.I.I.",
"I.I.I.I.I.I.I.I.      9 7.f.d.e.~ D D ~ e.s.p.p.3.1.4.>.~ D K K I Y K _ e.d.1.c.H.P.P.H.x.-.5.>.~ S L N ,       I.I.I.I.I.I.I.I.",
"I.I.I.I.I.I.I.I.O #   r %.s.p.w._ K K _ e.s.p.p.a.p.d.e.^ D K K G K S ~ e.d.3.c.F.K.K.F.b.3.g.e._ J R C 3   @ X I.I.I.I.I.I.I.I.",
"I.I.I.I.I.I.I.I.  O   e %.s.p.e._ K K _ e.s.p.p.p.p.s.e.{ ~ _ _ _ _ ~ { e.d.3.c.F.K.K.F.c.3.d.e._ G T V 1   X   I.I.I.I.I.I.I.I.",
"I.I.I.I.I.I.I.I.  O   e %.s.p.e._ K K _ e.s.p.p.p.p.p.p.e.e.e.e.e.e.w.e.p.a.3.c.F.K.K.F.c.3.d.e._ G T V 1   X   I.I.I.I.I.I.I.I.",
"I.I.I.I.I.I.I.I.  O   e %.s.p.9._ K K _ e.d.p.a.a.a.a.a.d.d.d.d.d.d.d.d.a.a.3.b.F.K.K.F.c.1.d.9.) F T V 1   X   I.I.I.I.I.I.I.I.",
"I.I.I.I.I.I.I.I.  O   e 8.f.d.y.~ D D ~ >.4.3.3.3.3.3.3.1.3.1.3.1.3.1.3.3.3.;.x.H.P.P.H.n.4.f.e.' K E Z 1   X   I.I.I.I.I.I.I.I.",
"I.I.I.I.I.I.I.I.  O   w o.8.6.@.{ ^ ~ } l.n.c.c.c.c.c.c.c.c.c.c.c.c.c.c.c.b.x.m.Z.G.G.B.k.*.q.$.Q N A M 1   X   I.I.I.I.I.I.I.I.",
"I.I.I.I.I.I.I.I.I.I.I.I.0 t 8 u @.u.:.l.B.H.S.F.F.F.F.F.F.F.F.F.F.F.F.F.F.S.H.Z.m.z.n.k.z j l k 6 < 3 1 I.I.I.I.I.I.I.I.I.I.I.I.",
"I.I.I.I.I.I.I.I.I.I.I.I.      8 6.f.4.v.G.P.K.K.K.K.K.K.K.K.K.K.K.K.K.K.K.K.P.G.z.-.5.*.j a f s $       I.I.I.I.I.I.I.I.I.I.I.I.",
"I.I.I.I.I.I.I.I.I.I.I.I.O #   t 8.f.4.n.G.P.K.K.K.K.K.K.K.K.K.K.K.K.K.K.K.K.P.G.n.5.h.q.l f h g ;   + X I.I.I.I.I.I.I.I.I.I.I.I.",
"I.I.I.I.I.I.I.I.I.I.I.I.  O   w o.0.O.j.B.H.S.F.F.F.F.F.F.F.F.F.F.F.F.F.F.S.H.B.k.*.q.#.k s g d *   .   I.I.I.I.I.I.I.I.I.I.I.I.",
"I.I.I.I.I.I.I.I.I.I.I.I.I.I.I.I.0 t 7 p j.n.c.c.c.c.c.c.c.c.c.c.c.c.c.c.c.c.n.k.z j l k 5 % - * I.I.I.I.I.I.I.I.I.I.I.I.I.I.I.I.",
"I.I.I.I.I.I.I.I.I.I.I.I.I.I.I.I.      7 O.4.<.3.1.3.1.3.1.3.1.3.1.3.1.3.1.1.4.*.j a f s %       I.I.I.I.I.I.I.I.I.I.I.I.I.I.I.I.",
"I.I.I.I.I.I.I.I.I.I.I.I.I.I.I.I.O #   t 0.f.d.d.d.d.d.d.d.d.d.d.d.d.d.d.d.d.f.t.l f h g -   o . I.I.I.I.I.I.I.I.I.I.I.I.I.I.I.I.",
"I.I.I.I.I.I.I.I.I.I.I.I.I.I.I.I.  O   w o.8.%.%.%.%.%.%.%.%.%.%.%.%.%.%.%.%.7.+.k s g d *   .   I.I.I.I.I.I.I.I.I.I.I.I.I.I.I.I.",
"I.I.I.I.I.I.I.I.I.I.I.I.I.I.I.I.I.I.I.I.0 e e e e e e e e e e e e e e e e e e q : & = * I.I.I.I.I.I.I.I.I.I.I.I.I.I.I.I.I.I.I.I.",
"I.I.I.I.I.I.I.I.I.I.I.I.I.I.I.I.I.I.I.I.                                                I.I.I.I.I.I.I.I.I.I.I.I.I.I.I.I.I.I.I.I.",
"I.I.I.I.I.I.I.I.I.I.I.I.I.I.I.I.I.I.I.I.O O O O O O O O O O O O O O O O O O O O . . . . I.I.I.I.I.I.I.I.I.I.I.I.I.I.I.I.I.I.I.I.",
"I.I.I.I.I.I.I.I.I.I.I.I.I.I.I.I.I.I.I.I.                                                I.I.I.I.I.I.I.I.I.I.I.I.I.I.I.I.I.I.I.I."
};
