/* XPM */
static char *result[] = {
/* columns rows colors chars-per-pixel */
"64 64 175 2 ",
"   c black",
".  c #030100",
"X  c #050100",
"o  c #070401",
"O  c #080200",
"+  c #0E0801",
"@  c #1A0500",
"#  c #240B01",
"$  c #240C01",
"%  c #250C01",
"&  c #260D01",
"*  c #260E01",
"=  c #2A1301",
"-  c #2F1501",
";  c #2F1601",
":  c #301601",
">  c #3C1B02",
",  c #2F2207",
"<  c #302207",
"1  c #382909",
"2  c #38280A",
"3  c #38290A",
"4  c #39290A",
"5  c #3A2A0A",
"6  c #3B2B0B",
"7  c #4F3A11",
"8  c #503B12",
"9  c #B14B00",
"0  c #B25000",
"q  c #B25100",
"w  c #B2520F",
"e  c #AE5110",
"r  c #AC5211",
"t  c #AF5311",
"y  c #B05311",
"u  c #B25210",
"i  c #B35310",
"p  c #B25411",
"a  c #B05412",
"s  c #B15412",
"d  c #B25412",
"f  c #B25512",
"g  c #B35512",
"h  c #B45611",
"j  c #B45512",
"k  c #B45612",
"l  c #B55612",
"z  c #B65712",
"x  c #B35615",
"c  c #B35717",
"v  c #B55714",
"b  c #B45B17",
"n  c #B75D17",
"m  c #B75D19",
"M  c #B85D18",
"N  c #B65F2A",
"B  c #B76230",
"V  c #B76332",
"C  c #D77303",
"Z  c #D87300",
"A  c #D97502",
"S  c #D87403",
"D  c #D97503",
"F  c #D97504",
"G  c #DA790B",
"H  c #D17215",
"J  c #D57314",
"K  c #D57515",
"L  c #D57516",
"P  c #D67516",
"I  c #D77616",
"U  c #D87413",
"Y  c #D87513",
"T  c #D87514",
"R  c #D87614",
"E  c #D97614",
"W  c #D97615",
"Q  c #DA7615",
"!  c #D97716",
"~  c #D97617",
"^  c #D97717",
"/  c #DA7816",
"(  c #DB7816",
")  c #D87618",
"_  c #D97718",
"`  c #D7791A",
"'  c #D97818",
"]  c #D97819",
"[  c #DA7A19",
"{  c #DA7A1A",
"}  c #DB7B1A",
"|  c #DA7B1B",
" . c #DB7B1B",
".. c #DC7C1B",
"X. c #DB7B1C",
"o. c #DB7C1D",
"O. c #DC7F1E",
"+. c #DC7F20",
"@. c #D97E31",
"#. c #DB7F31",
"$. c #DA7E32",
"%. c #DB7F32",
"&. c #BB6D41",
"*. c #DB8032",
"=. c #DC8334",
"-. c #F6BC4A",
";. c #F8BC4A",
":. c #F9BD4A",
">. c #FABF4B",
",. c #FBBF4B",
"<. c #FCBF48",
"1. c #FCBE4A",
"2. c #FFC146",
"3. c #FFC247",
"4. c #FBC04B",
"5. c #FDC048",
"6. c #FEC048",
"7. c #FEC049",
"8. c #FFC249",
"9. c #FDC04B",
"0. c #FFC24A",
"q. c #FFC34A",
"w. c #FFC34B",
"e. c #FAC04C",
"r. c #FBC04C",
"t. c #FCC04C",
"y. c #FDC04C",
"u. c #FEC04C",
"i. c #FEC14C",
"p. c #FFC14C",
"a. c #FEC14D",
"s. c #FFC24C",
"d. c #FEC34D",
"f. c #FFC34D",
"g. c #FFC34E",
"h. c #FFC44D",
"j. c #FFC44E",
"k. c #FFC54E",
"l. c #FFC44F",
"z. c #FFC54F",
"x. c #FCC255",
"c. c #FEC356",
"v. c #FFC454",
"b. c #FFC554",
"n. c #FFC555",
"m. c #FFC557",
"M. c #FFC657",
"N. c #FFC558",
"B. c #FFC658",
"V. c #FFC75F",
"C. c #FFC760",
"Z. c #FBECC5",
"A. c #FCEDC5",
"S. c #FDEDC5",
"D. c #FDEEC5",
"F. c #FEEEC5",
"G. c #FFEFC5",
"H. c #FDEFC8",
"J. c #FCEFC9",
"K. c #FEEFC8",
"L. c #FFF0C5",
"P. c #FDF0C9",
"I. c #FEF0C8",
"U. c #FFF1C8",
"Y. c #FEF0C9",
"T. c #FEF1C9",
"R. c #FFF1C9",
"E. c #FFF2C9",
"W. c #FFF2CA",
"Q. c #FFF3CC",
"!. c #FFF3CD",
"~. c #FFF4CD",
"^. c #FFF4CE",
"/. c #FFF5CE",
"(. c None",
/* pixels */
"(.(.(.(.(.(.(.(.(.(.(.(.(.(.(.(.(.(.(.(.(.(.(.(.                                (.(.(.(.(.(.(.(.(.(.(.(.(.(.(.(.(.(.(.(.(.(.(.(.",
"(.(.(.(.(.(.(.(.(.(.(.(.(.(.(.(.(.(.(.(.(.(.(.(.o o o o o o o o o o o o o o o o (.(.(.(.(.(.(.(.(.(.(.(.(.(.(.(.(.(.(.(.(.(.(.(.",
"(.(.(.(.(.(.(.(.(.(.(.(.(.(.(.(.(.(.(.(.(.(.(.(.                                (.(.(.(.(.(.(.(.(.(.(.(.(.(.(.(.(.(.(.(.(.(.(.(.",
"(.(.(.(.(.(.(.(.(.(.(.(.(.(.(.(.(.(.(.(.(.(.(.(.1 4 4 4 4 4 4 4 4 4 4 4 4 4 4 1 (.(.(.(.(.(.(.(.(.(.(.(.(.(.(.(.(.(.(.(.(.(.(.(.",
"(.(.(.(.(.(.(.(.(.(.(.(.(.(.(.(.(.(.(.(.  o   3 -.t.>.>.>.>.>.>.>.>.>.>.>.>.t.-.3   o   (.(.(.(.(.(.(.(.(.(.(.(.(.(.(.(.(.(.(.(.",
"(.(.(.(.(.(.(.(.(.(.(.(.(.(.(.(.(.(.(.(.  o   4 t.k.h.h.h.h.h.h.h.h.h.h.h.h.k.t.4   o   (.(.(.(.(.(.(.(.(.(.(.(.(.(.(.(.(.(.(.(.",
"(.(.(.(.(.(.(.(.(.(.(.(.(.(.(.(.(.(.(.(.  o   4 >.h.d.f.f.f.f.f.f.f.f.f.f.d.h.>.4   o   (.(.(.(.(.(.(.(.(.(.(.(.(.(.(.(.(.(.(.(.",
"(.(.(.(.(.(.(.(.(.(.(.(.(.(.(.(.(.(.(.(.  o   4 >.h.f.f.i.i.u.i.f.f.f.f.f.f.h.>.4   o   (.(.(.(.(.(.(.(.(.(.(.(.(.(.(.(.(.(.(.(.",
"(.(.(.(.(.(.(.(.(.(.(.(.(.(.(.(.(.(.(.(.  o   4 >.h.f.i.O.{ { O.i.h.f.f.f.f.h.>.4   o   (.(.(.(.(.(.(.(.(.(.(.(.(.(.(.(.(.(.(.(.",
"(.(.(.(.(.(.(.(.(.(.(.(.(.(.(.(.(.(.(.(.o +   5 >.h.f.9.{ Y Y { i.j.f.g.f.f.h.>.5   + o (.(.(.(.(.(.(.(.(.(.(.(.(.(.(.(.(.(.(.(.",
"(.(.(.(.(.(.(.(.(.(.(.(.(.(.(.(.(.(.(.(.      < r.k.j.i.{ Y T [ 6.q.8.0.f.f.h.>.,       (.(.(.(.(.(.(.(.(.(.(.(.(.(.(.(.(.(.(.(.",
"(.(.(.(.(.(.(.(.(.(.(.(.(.(.(.(.(.(.(.(.1 6 , 7 :.p.i.1.O.{ [ +.c.B.m.m.f.f.h.,.8 , 6 1 (.(.(.(.(.(.(.(.(.(.(.(.(.(.(.(.(.(.(.(.",
"(.(.(.(.(.(.(.(.(.(.(.(.(.(.(.(.  o   3 -.t.e.:.O.{ { O.1.a.5.c.G.E.E.L.m.0.g.f.,.>.t.-.3   o   (.(.(.(.(.(.(.(.(.(.(.(.(.(.(.(.",
"(.(.(.(.(.(.(.(.(.(.(.(.(.(.(.(.  o   4 t.k.j.s.[ Y Y [ a.z.w.B.W.^.^.W.m.0.g.f.h.h.k.t.4   o   (.(.(.(.(.(.(.(.(.(.(.(.(.(.(.(.",
"(.(.(.(.(.(.(.(.(.(.(.(.(.(.(.(.  o   4 >.h.f.y. .W W } 6.w.2.v.U.!.!.R.m.0.g.f.f.d.h.>.4   o   (.(.(.(.(.(.(.(.(.(.(.(.(.(.(.(.",
"(.(.(.(.(.(.(.(.(.(.(.(.(.(.(.(.  o   4 >.h.f.i. .W E X.c.B.v.C.R.!.!.R.m.0.g.f.f.f.h.>.4   o   (.(.(.(.(.(.(.(.(.(.(.(.(.(.(.(.",
"(.(.(.(.(.(.(.(.(.(.(.(.(.(.(.(.  o   4 >.h.f.i. .~ F #.F.W.U.R.Q.Q.!.R.m.0.g.f.f.f.h.>.4   o   (.(.(.(.(.(.(.(.(.(.(.(.(.(.(.(.",
"(.(.(.(.(.(.(.(.(.(.(.(.(.(.(.(.  o   4 >.h.f.i. .~ D %.Y.^.!.!.Q.Q.!.R.m.0.g.f.f.f.h.>.4   o   (.(.(.(.(.(.(.(.(.(.(.(.(.(.(.(.",
"(.(.(.(.(.(.(.(.(.(.(.(.(.(.(.(.  o   4 >.h.f.i. .~ D %.Y.^.!.!.Q.Q.!.R.m.0.g.f.f.f.h.>.4   o   (.(.(.(.(.(.(.(.(.(.(.(.(.(.(.(.",
"(.(.(.(.(.(.(.(.(.(.(.(.(.(.(.(.  o   4 >.h.f.i. .~ F #.F.W.U.R.Q.Q.!.R.m.0.g.f.f.f.h.>.4   o   (.(.(.(.(.(.(.(.(.(.(.(.(.(.(.(.",
"(.(.(.(.(.(.(.(.(.(.(.(.(.(.(.(.  o   4 >.h.f.i. .W E X.c.B.v.C.R.!.!.R.m.0.g.f.f.f.h.>.4   o   (.(.(.(.(.(.(.(.(.(.(.(.(.(.(.(.",
"(.(.(.(.(.(.(.(.(.(.(.(.(.(.(.(.  o   4 >.h.f.i. .W W } 7.w.3.n.R.!.!.R.m.0.g.f.f.f.h.>.4   o   (.(.(.(.(.(.(.(.(.(.(.(.(.(.(.(.",
"(.(.(.(.(.(.(.(.(.(.(.(.(.(.(.(.  o   4 >.h.f.i. .W W } 7.w.3.n.R.!.!.R.m.0.g.f.f.f.h.>.4   o   (.(.(.(.(.(.(.(.(.(.(.(.(.(.(.(.",
"(.(.(.(.(.(.(.(.(.(.(.(.(.(.(.(.  o   4 >.h.f.i. .W E X.c.B.v.C.R.!.!.R.m.0.g.f.f.f.h.>.4   o   (.(.(.(.(.(.(.(.(.(.(.(.(.(.(.(.",
"(.(.(.(.(.(.(.(.(.(.(.(.(.(.(.(.  o   4 >.h.f.i. .~ F #.F.W.U.R.Q.Q.!.R.m.0.g.f.f.f.h.>.4   o   (.(.(.(.(.(.(.(.(.(.(.(.(.(.(.(.",
"(.(.(.(.(.(.(.(.(.(.(.(.(.(.(.(.  o   4 >.h.f.i. .~ D %.Y.^.!.!.Q.Q.!.R.m.8.f.f.f.f.h.>.4   o   (.(.(.(.(.(.(.(.(.(.(.(.(.(.(.(.",
"(.(.(.(.(.(.(.(.(.(.(.(.(.(.(.(.  o   4 >.h.f.i. .~ D %.Y.^.!.!.Q.Q.!.R.M.q.j.h.h.f.k.r.4   o   (.(.(.(.(.(.(.(.(.(.(.(.(.(.(.(.",
"(.(.(.(.(.(.(.(.(.(.(.(.(.(.(.(.  o   4 >.h.f.i. .~ F #.F.W.U.R.Q.Q.!.R.c.6.i.i.i.9.s.:.2   o   (.(.(.(.(.(.(.(.(.(.(.(.(.(.(.(.",
"(.(.(.(.(.(.(.(.(.(.(.(.(.(.(.(.  o   4 >.h.f.i. .W E X.c.B.v.C.R.!.~.I.=.G o. . .| ..` ;   X   (.(.(.(.(.(.(.(.(.(.(.(.(.(.(.(.",
"(.(.(.(.(.(.(.(.(.(.(.(.(.(.(.(.  o   4 >.h.f.i. .W W } 6.w.2.b.R.!.~.K.$.Z ~ R R R Q J -   X   (.(.(.(.(.(.(.(.(.(.(.(.(.(.(.(.",
"(.(.(.(.(.(.(.(.(.(.(.(.(.(.(.(.  o   4 >.h.f.i. .W W  .i.l.0.N.R.!.~.K.%.D ] ! ! ! / L -   X   (.(.(.(.(.(.(.(.(.(.(.(.(.(.(.(.",
"(.(.(.(.(.(.(.(.(.(.(.(.(.(.(.(.  o   4 >.h.f.i. .W W  .i.j.0.m.R.!.~.K.%.S _ ! ! ! / K -   X   (.(.(.(.(.(.(.(.(.(.(.(.(.(.(.(.",
"(.(.(.(.(.(.(.(.(.(.(.(.(.(.(.(.  o   4 >.h.f.i. .W W  .i.j.0.m.R.!.~.K.%.S _ ! ! ! / K -   X   (.(.(.(.(.(.(.(.(.(.(.(.(.(.(.(.",
"(.(.(.(.(.(.(.(.(.(.(.(.(.(.(.(.  o   4 >.h.f.i. .W W  .y.j.8.m.R.!.~.K.%.S _ ! ! ! / K -   X   (.(.(.(.(.(.(.(.(.(.(.(.(.(.(.(.",
"(.(.(.(.(.(.(.(.(.(.(.(.(.(.(.(.  o   4 >.h.f.i. .W W  .i.j.q.M.R.!.~.K.%.S _ ! ! ! / K -   X   (.(.(.(.(.(.(.(.(.(.(.(.(.(.(.(.",
"(.(.(.(.(.(.(.(.(.(.(.(.(.(.(.(.  o   4 >.h.f.i. .W W } 1.a.5.c.R.!.~.K.%.S _ ! ! ! / K -   X   (.(.(.(.(.(.(.(.(.(.(.(.(.(.(.(.",
"(.(.(.(.(.(.(.(.(.(.(.(.(.(.(.(.  o   4 >.h.f.i. .R ! ! } o.G =.I.~.~.K.%.S _ ! ! ! / K -   X   (.(.(.(.(.(.(.(.(.(.(.(.(.(.(.(.",
"(.(.(.(.(.(.(.(.(.(.(.(.(.(.(.(.  o   4 >.h.f.i. .R ! ! R ~ Z $.K.~.~.K.%.S _ ! ! ! / K -   X   (.(.(.(.(.(.(.(.(.(.(.(.(.(.(.(.",
"(.(.(.(.(.(.(.(.(.(.(.(.(.(.(.(.  o   4 >.h.f.i. .R ! ! ! ] D %.K.~.~.K.%.S _ ! ! ! / K -   X   (.(.(.(.(.(.(.(.(.(.(.(.(.(.(.(.",
"(.(.(.(.(.(.(.(.(.(.(.(.(.(.(.(.  o   4 >.h.f.i. .R ! ! ! _ S %.K.~.~.K.%.S _ ! ! ! / K -   X   (.(.(.(.(.(.(.(.(.(.(.(.(.(.(.(.",
"(.(.(.(.(.(.(.(.(.(.(.(.(.(.(.(.  o   4 >.h.f.i. .R ! ! ! _ S %.K.~.~.K.%.S _ ! ! ! / K -   X   (.(.(.(.(.(.(.(.(.(.(.(.(.(.(.(.",
"(.(.(.(.(.(.(.(.(.(.(.(.(.(.(.(.  o   4 >.h.f.i. .R ! ! ! _ S %.K.~.~.K.%.S _ ! ! ! / K -   X   (.(.(.(.(.(.(.(.(.(.(.(.(.(.(.(.",
"(.(.(.(.(.(.(.(.(.(.(.(.(.(.(.(.  o   4 >.h.f.i. .R ! ! ! _ S %.K.~.~.K.%.S _ ! ! ! / K -   X   (.(.(.(.(.(.(.(.(.(.(.(.(.(.(.(.",
"(.(.(.(.(.(.(.(.(.(.(.(.(.(.(.(.  o   4 >.h.f.i. .R ! ! ! _ S %.K.~.~.K.%.S _ ! ! ! / K -   X   (.(.(.(.(.(.(.(.(.(.(.(.(.(.(.(.",
"(.(.(.(.(.(.(.(.(.(.(.(.(.(.(.(.  o   4 >.h.f.i. .R ! ! ! _ S %.K.~.~.K.%.S _ ! ! ! / K -   X   (.(.(.(.(.(.(.(.(.(.(.(.(.(.(.(.",
"(.(.(.(.(.(.(.(.(.(.(.(.(.(.(.(.  o   4 >.h.f.i. .W ^ ! ! ] D %.K.~.~.K.%.S _ ! ! ! / K -   X   (.(.(.(.(.(.(.(.(.(.(.(.(.(.(.(.",
"(.(.(.(.(.(.(.(.(.(.(.(.(.(.(.(.  o   4 >.h.f.i.[ U W R R ~ Z $.K.~.~.K.%.S _ ! ! ! / K -   X   (.(.(.(.(.(.(.(.(.(.(.(.(.(.(.(.",
"(.(.(.(.(.(.(.(.(.(.(.(.(.(.(.(.  o   4 >.h.f.i.O.[  . . .o.G =.I.~.~.K.%.S _ ! ! ! / K -   X   (.(.(.(.(.(.(.(.(.(.(.(.(.(.(.(.",
"(.(.(.(.(.(.(.(.(.(.(.(.(.(.(.(.  o   4 >.h.f.f.i.i.i.i.i.i.6.c.R.!.~.K.%.S _ ! ! ! / K -   X   (.(.(.(.(.(.(.(.(.(.(.(.(.(.(.(.",
"(.(.(.(.(.(.(.(.(.(.(.(.(.(.(.(.  o   4 >.h.d.f.h.h.h.h.j.l.w.B.R.Q.~.H.%.S _ ! ! ! / K -   X   (.(.(.(.(.(.(.(.(.(.(.(.(.(.(.(.",
"(.(.(.(.(.(.(.(.(.(.(.(.(.(.(.(.  o   4 t.k.h.h.f.f.f.f.0.0.2.v.W.^./.T.*.A ' ! / / ( P -   X   (.(.(.(.(.(.(.(.(.(.(.(.(.(.(.(.",
"(.(.(.(.(.(.(.(.(.(.(.(.(.(.(.(.  o   3 -.t.>.4.f.f.f.f.m.N.b.V.S.J.P.Z.@.C ) I K K P H -   X   (.(.(.(.(.(.(.(.(.(.(.(.(.(.(.(.",
"(.(.(.(.(.(.(.(.(.(.(.(.(.(.(.(.(.(.(.(.1 6 , 8 ,.j.0.m.L.E.W.D.&.N V B v h z f > = : - (.(.(.(.(.(.(.(.(.(.(.(.(.(.(.(.(.(.(.(.",
"(.(.(.(.(.(.(.(.(.(.(.(.(.(.(.(.(.(.(.(.      , >.j.8.m.E.~.^.J.N 9 q q p d g t @       (.(.(.(.(.(.(.(.(.(.(.(.(.(.(.(.(.(.(.(.",
"(.(.(.(.(.(.(.(.(.(.(.(.(.(.(.(.(.(.(.(.o +   5 >.j.8.m.E.~.^.J.V q c x g g k y &   O X (.(.(.(.(.(.(.(.(.(.(.(.(.(.(.(.(.(.(.(.",
"(.(.(.(.(.(.(.(.(.(.(.(.(.(.(.(.(.(.(.(.  o   4 >.j.0.m.L.E.W.A.B 0 x g g g j y %   .   (.(.(.(.(.(.(.(.(.(.(.(.(.(.(.(.(.(.(.(.",
"(.(.(.(.(.(.(.(.(.(.(.(.(.(.(.(.(.(.(.(.  o   4 >.h.f.f.m.m.B.x.m w g g g g j y %   .   (.(.(.(.(.(.(.(.(.(.(.(.(.(.(.(.(.(.(.(.",
"(.(.(.(.(.(.(.(.(.(.(.(.(.(.(.(.(.(.(.(.  o   4 >.h.d.f.0.8.q.<.n u g g g g j t %   .   (.(.(.(.(.(.(.(.(.(.(.(.(.(.(.(.(.(.(.(.",
"(.(.(.(.(.(.(.(.(.(.(.(.(.(.(.(.(.(.(.(.  o   4 t.k.h.h.j.j.k.a.M i k j j j l s %   .   (.(.(.(.(.(.(.(.(.(.(.(.(.(.(.(.(.(.(.(.",
"(.(.(.(.(.(.(.(.(.(.(.(.(.(.(.(.(.(.(.(.  o   3 -.t.>.>.>.>.r.;.b e a y y t s r $   .   (.(.(.(.(.(.(.(.(.(.(.(.(.(.(.(.(.(.(.(.",
"(.(.(.(.(.(.(.(.(.(.(.(.(.(.(.(.(.(.(.(.(.(.(.(.1 4 4 4 4 4 4 2 * # % % % % % $ (.(.(.(.(.(.(.(.(.(.(.(.(.(.(.(.(.(.(.(.(.(.(.(.",
"(.(.(.(.(.(.(.(.(.(.(.(.(.(.(.(.(.(.(.(.(.(.(.(.                                (.(.(.(.(.(.(.(.(.(.(.(.(.(.(.(.(.(.(.(.(.(.(.(.",
"(.(.(.(.(.(.(.(.(.(.(.(.(.(.(.(.(.(.(.(.(.(.(.(.o o o o o o o o . . . . . . . . (.(.(.(.(.(.(.(.(.(.(.(.(.(.(.(.(.(.(.(.(.(.(.(.",
"(.(.(.(.(.(.(.(.(.(.(.(.(.(.(.(.(.(.(.(.(.(.(.(.                                (.(.(.(.(.(.(.(.(.(.(.(.(.(.(.(.(.(.(.(.(.(.(.(."
};
