/* XPM */
static char *result[] = {
/* columns rows colors chars-per-pixel */
"64 64 163 2 ",
"   c black",
".  c #030100",
"X  c #050100",
"o  c #070100",
"O  c #070401",
"+  c #080200",
"@  c #0A0300",
"#  c #0E0801",
"$  c #190400",
"%  c #1E0800",
"&  c #240B01",
"*  c #240C01",
"=  c #250C01",
"-  c #260D01",
";  c #270D01",
":  c #260E01",
">  c #261001",
",  c #271001",
"<  c #291201",
"1  c #2F1501",
"2  c #2F1601",
"3  c #301601",
"4  c #311601",
"5  c #361602",
"6  c #3D1C02",
"7  c #2F2106",
"8  c #2F2207",
"9  c #302207",
"0  c #382909",
"q  c #38280A",
"w  c #38290A",
"e  c #39290A",
"r  c #3A2A0A",
"t  c #3B2B0B",
"y  c #432102",
"u  c #4F3A11",
"i  c #503B12",
"p  c #503B14",
"a  c #B0500E",
"s  c #AE5110",
"d  c #AC5211",
"f  c #B35311",
"g  c #B15412",
"h  c #B55713",
"j  c #B65B15",
"k  c #B45B17",
"l  c #B85E18",
"z  c #BB641D",
"x  c #D87300",
"c  c #D87403",
"v  c #D97503",
"b  c #D97504",
"n  c #DA790B",
"m  c #DA790C",
"M  c #D17215",
"N  c #D47314",
"B  c #D57314",
"V  c #D57515",
"C  c #D57516",
"Z  c #D67516",
"A  c #D67616",
"S  c #D87413",
"D  c #D87513",
"F  c #D87514",
"G  c #D87614",
"H  c #D97614",
"J  c #D87615",
"K  c #D97615",
"L  c #DA7715",
"P  c #D87516",
"I  c #D97716",
"U  c #D97617",
"Y  c #D97717",
"T  c #DA7816",
"R  c #DA7817",
"E  c #DB7917",
"W  c #D97718",
"Q  c #D7791A",
"!  c #D97819",
"~  c #DA7A19",
"^  c #DA7A1A",
"/  c #DB7B1A",
"(  c #DA7A1B",
")  c #DA7B1B",
"_  c #DB7B1B",
"`  c #DB7C1B",
"'  c #DC7C1B",
"]  c #DB7B1C",
"[  c #DB7C1D",
"{  c #DC7F1E",
"}  c #DC7F20",
"|  c #DB7F31",
" . c #DA7E32",
".. c #DB7F32",
"X. c #DC8334",
"o. c #F6BC4A",
"O. c #FABE48",
"+. c #F8BC4A",
"@. c #F9BD4A",
"#. c #FABD4A",
"$. c #FBBE4A",
"%. c #FABF4B",
"&. c #FBBF4B",
"*. c #FCBF48",
"=. c #FCBE4A",
"-. c #FFC146",
";. c #FFC246",
":. c #FDC048",
">. c #FEC048",
",. c #FEC049",
"<. c #FEC249",
"1. c #FFC249",
"2. c #FDC04B",
"3. c #FFC24A",
"4. c #FFC34A",
"5. c #FFC34B",
"6. c #FAC04C",
"7. c #FBC04C",
"8. c #FCC04C",
"9. c #FDC04C",
"0. c #FCC14C",
"q. c #FDC14D",
"w. c #FEC04C",
"e. c #FEC14C",
"r. c #FFC14C",
"t. c #FEC14D",
"y. c #FFC24C",
"u. c #FFC24D",
"i. c #FEC34D",
"p. c #FFC34D",
"a. c #FFC34E",
"s. c #FFC44D",
"d. c #FFC44E",
"f. c #FFC54E",
"g. c #FFC44F",
"h. c #FFC54F",
"j. c #FBC255",
"k. c #FDC256",
"l. c #FEC356",
"z. c #FFC454",
"x. c #FFC554",
"c. c #FFC557",
"v. c #FFC657",
"b. c #FFC558",
"n. c #FFC658",
"m. c #FFC75F",
"M. c #FFC760",
"N. c #FEEEC5",
"B. c #FFEFC5",
"V. c #FEEFC8",
"C. c #FFF0C5",
"Z. c #FFF0C6",
"A. c #FEF0C8",
"S. c #FFF1C8",
"D. c #FEF0C9",
"F. c #FFF1C9",
"G. c #FFF2C9",
"H. c #FFF2CA",
"J. c #FFF3CC",
"K. c #FFF3CD",
"L. c #FFF4CD",
"P. c #FFF4CE",
"I. c None",
/* pixels */
"I.I.I.I.I.I.I.I.I.I.I.I.I.I.I.I.I.I.I.I.                                                I.I.I.I.I.I.I.I.I.I.I.I.I.I.I.I.I.I.I.I.",
"I.I.I.I.I.I.I.I.I.I.I.I.I.I.I.I.I.I.I.I.. . . . O O O O O O O O O O O O O O O O O O O O I.I.I.I.I.I.I.I.I.I.I.I.I.I.I.I.I.I.I.I.",
"I.I.I.I.I.I.I.I.I.I.I.I.I.I.I.I.I.I.I.I.                                                I.I.I.I.I.I.I.I.I.I.I.I.I.I.I.I.I.I.I.I.",
"I.I.I.I.I.I.I.I.I.I.I.I.I.I.I.I.I.I.I.I.* = & : q e e e e e e e e e e e e e e e e e e 0 I.I.I.I.I.I.I.I.I.I.I.I.I.I.I.I.I.I.I.I.",
"I.I.I.I.I.I.I.I.I.I.I.I.I.I.I.I.  .   * d g s k +.7.%.%.%.%.%.%.%.%.%.%.%.%.%.%.%.%.8.o.w   O   I.I.I.I.I.I.I.I.I.I.I.I.I.I.I.I.",
"I.I.I.I.I.I.I.I.I.I.I.I.I.I.I.I.. o   - g h f l t.f.d.d.d.d.d.d.d.d.d.d.d.d.d.d.d.d.f.0.t   # O I.I.I.I.I.I.I.I.I.I.I.I.I.I.I.I.",
"I.I.I.I.I.I.I.I.I.I.I.I.I.I.I.I.      % s f a j *.4.1.1.3.1.3.1.3.1.3.1.3.1.3.1.3.<.4.O.7       I.I.I.I.I.I.I.I.I.I.I.I.I.I.I.I.",
"I.I.I.I.I.I.I.I.I.I.I.I.I.I.I.I.* - % 5 k l j z k.n.c.c.c.c.c.c.c.c.c.c.c.c.c.c.c.c.n.j.p 7 t 0 I.I.I.I.I.I.I.I.I.I.I.I.I.I.I.I.",
"I.I.I.I.I.I.I.I.I.I.I.I.  .   * d g s k #.q.*.k.B.H.S.F.F.F.F.F.F.F.F.F.F.F.F.F.F.S.H.B.j.O.0.o.w   O   I.I.I.I.I.I.I.I.I.I.I.I.",
"I.I.I.I.I.I.I.I.I.I.I.I.X +   ; g h f l q.h.5.n.G.P.K.K.K.K.K.K.K.K.K.K.K.K.K.K.K.K.P.G.n.4.f.8.t   # O I.I.I.I.I.I.I.I.I.I.I.I.",
"I.I.I.I.I.I.I.I.I.I.I.I.      $ s f a j *.5.-.z.G.P.K.K.K.K.K.K.K.K.K.K.K.K.K.K.K.K.P.G.v.4.f.6.8       I.I.I.I.I.I.I.I.I.I.I.I.",
"I.I.I.I.I.I.I.I.I.I.I.I.1 3 < 6 k l j z k.n.z.m.Z.H.S.F.F.F.F.F.F.F.F.F.F.F.F.F.F.S.H.B.l.:.u.@.u 8 t 0 I.I.I.I.I.I.I.I.I.I.I.I.",
"I.I.I.I.I.I.I.I.  X   1 M A N Q $.q.*.k.B.G.G.Z.m.x.b.c.c.c.c.c.c.c.c.c.c.c.c.c.c.c.n.l.} ~ ^ { @.6.8.o.w   O   I.I.I.I.I.I.I.I.",
"I.I.I.I.I.I.I.I.  X   1 Z E K ' e.f.4.n.H.P.P.H.x.;.3.3.3.1.3.1.3.1.3.1.3.3.3.3.3.3.4.>.~ D D ~ y.d.f.8.e   O   I.I.I.I.I.I.I.I.",
"I.I.I.I.I.I.I.I.  X   1 V T F ) 9.d.1.c.F.K.K.F.b.3.a.a.d.d.d.d.d.d.d.d.a.a.a.a.a.p.d.e._ K K _ 9.p.s.%.e   O   I.I.I.I.I.I.I.I.",
"I.I.I.I.I.I.I.I.  X   1 V T G _ e.d.3.c.F.K.K.F.c.3.a.p.e.w.e.e.e.e.e.e.p.p.p.p.p.p.s.e._ K K _ e.p.s.%.e   O   I.I.I.I.I.I.I.I.",
"I.I.I.I.I.I.I.I.  X   1 V T G _ e.d.3.c.F.K.K.F.c.3.d.e.{ ~ _ _ _ _ ~ { e.s.p.p.p.p.s.e._ K K _ e.p.s.%.e   O   I.I.I.I.I.I.I.I.",
"I.I.I.I.I.I.I.I.X @   3 C R J _ e.g.3.b.F.K.K.F.c.3.d.e.~ S K G K K D ^ e.d.p.a.p.p.s.e._ K K _ w.p.s.%.r   # O I.I.I.I.I.I.I.I.",
"I.I.I.I.I.I.I.I.      , N L S ~ >.5.-.x.H.P.P.H.c.1.d.e._ K Y I K K D ~ >.4.1.3.p.p.s.e.~ D D ~ e.d.f.7.9       I.I.I.I.I.I.I.I.",
"I.I.I.I.I.I.I.I.1 4 > y Q ' ~ } l.n.z.m.Z.G.G.C.c.3.d.e._ G I I / ` ~ } l.n.c.c.p.p.s.e.{ ^ ^ { =.e.r.@.u 8 t 0 I.I.I.I.I.I.I.I.",
"I.I.I.I.  X   1 M A N Q =.t.:.l.B.G.G.Z.m.x.b.c.p.p.s.e._ K K / =.t.:.l.B.G.G.C.c.3.a.p.e.2.e.=.{ ^ ^ { @.6.8.o.w   O   I.I.I.I.",
"I.I.I.I.  X   1 Z E K ' e.d.4.n.H.P.P.H.z.-.3.3.p.p.p.9._ K K _ e.d.4.n.G.L.L.G.c.1.p.p.s.p.d.e.~ D D ~ y.d.f.8.e   O   I.I.I.I.",
"I.I.I.I.  X   1 V T F ) 9.d.1.c.F.K.K.F.n.5.g.d.s.p.d.e._ K K _ 9.d.1.c.G.L.L.G.n.4.d.s.p.p.p.w._ K K _ 9.p.s.%.e   O   I.I.I.I.",
"I.I.I.I.  X   1 V T G _ e.d.3.c.F.K.K.F.l.>.e.e.e.2.e.=./ K K _ e.d.3.c.C.G.G.B.l.>.e.e.p.p.s.e._ K K _ e.p.s.%.e   O   I.I.I.I.",
"I.I.I.I.  X   1 V T G _ e.d.3.c.F.K.L.A.X.n [ _ _ _ _ / I I G _ e.s.p.p.c.c.n.l.} ~ ^ { e.p.p.e._ K K _ e.p.s.%.e   O   I.I.I.I.",
"I.I.I.I.  X   1 V T G _ e.d.3.c.F.K.L.V. .x U G K K J K I Y K _ e.s.p.p.3.1.4.>.~ F D ^ e.d.d.e._ K K _ e.p.s.%.e   O   I.I.I.I.",
"I.I.I.I.  X   1 V T G _ e.d.3.c.F.K.L.V...v ! I K J K K G K S ~ e.s.p.p.a.p.d.e.^ D F ~ >.4.4.>./ K K _ e.p.s.%.e   O   I.I.I.I.",
"I.I.I.I.  X   1 V T G _ e.d.3.c.F.K.L.V...c W I / _ _ _ _ _ ~ { e.s.p.p.p.p.s.e.{ ^ ~ } l.v.n.l.] H K _ e.p.s.%.e   O   I.I.I.I.",
"I.I.I.I.  X   1 V T G _ e.d.3.c.F.K.L.V...v U / =.e.2.e.e.e.e.e.p.p.p.p.p.p.p.p.e.e.>.l.B.G.H.N.| b U _ e.p.s.%.e   O   I.I.I.I.",
"I.I.I.I.  X   1 V T G _ e.d.3.c.F.K.L.V...v U _ e.d.p.s.s.s.s.s.p.p.p.p.p.p.p.p.s.d.4.n.H.P.P.D...v U _ e.p.s.%.e   O   I.I.I.I.",
"I.I.I.I.  X   1 V T G _ e.d.3.c.F.K.L.V...v U _ 9.p.p.p.p.p.p.p.p.p.p.p.p.p.p.p.p.p.3.c.F.K.L.V...v U _ e.p.s.%.e   O   I.I.I.I.",
"I.I.I.I.  X   1 V T G _ e.d.3.c.F.K.L.V...v U _ e.s.p.p.p.p.p.p.p.p.p.p.p.p.p.p.p.a.3.c.F.K.L.V...v U _ e.p.s.%.e   O   I.I.I.I.",
"I.I.I.I.  X   1 V T G _ e.d.3.c.F.K.L.V...v U _ e.s.p.p.p.p.p.p.p.p.p.p.p.p.p.p.p.a.3.c.F.K.L.V...v U _ e.p.s.%.e   O   I.I.I.I.",
"I.I.I.I.  X   1 C R J _ e.d.3.c.F.K.L.V...b U _ e.d.p.a.p.p.p.p.p.p.p.p.a.a.a.a.a.a.3.b.F.K.L.V...v U _ e.p.s.%.e   O   I.I.I.I.",
"I.I.I.I.  X   1 B L S ~ e.d.3.c.F.K.L.V. .x P ~ >.4.1.3.p.p.p.p.p.p.p.p.3.3.3.3.3.3.;.x.F.K.L.V...v U _ e.p.s.%.e   O   I.I.I.I.",
"I.I.I.I.  X   2 Q ' ~ { e.d.3.c.F.K.L.A.X.m ( } l.n.c.c.p.p.p.p.p.p.p.p.c.c.c.c.c.b.x.M.F.K.L.V...v U _ e.p.s.%.e   O   I.I.I.I.",
"I.I.I.I.  O   q @.y.2.e.p.a.3.c.F.K.K.F.l.,.,.l.B.G.G.C.c.3.a.p.p.a.3.c.C.H.S.F.F.F.F.F.J.J.L.V...v U _ e.p.s.%.e   O   I.I.I.I.",
"I.I.I.I.  O   e 7.f.p.s.p.a.3.c.F.K.K.F.v.5.5.n.G.L.L.G.c.1.p.p.p.a.3.c.H.P.K.K.K.K.K.K.J.J.L.V...v U _ e.p.s.%.e   O   I.I.I.I.",
"I.I.I.I.  O   e %.s.p.p.p.a.3.c.F.K.K.F.c.3.3.c.G.L.L.G.n.4.d.s.p.a.3.c.F.K.J.J.K.K.K.K.K.K.P.D...v U _ e.p.s.%.e   O   I.I.I.I.",
"I.I.I.I.  O   e %.s.p.p.p.a.3.c.F.K.K.F.c.3.3.c.C.G.G.B.l.>.e.e.p.a.3.c.F.K.J.J.F.F.F.F.F.S.H.N.| b U _ e.p.s.%.e   O   I.I.I.I.",
"I.I.I.I.  O   e %.s.p.p.p.a.3.c.F.K.K.F.c.3.p.p.c.c.n.l.} ~ ^ { e.d.3.c.F.K.K.F.M.x.b.c.c.c.n.l.] H K _ e.p.s.%.e   O   I.I.I.I.",
"I.I.I.I.  O   e %.s.i.p.p.a.3.c.F.K.K.F.b.3.a.p.3.1.4.>.~ F D ^ e.g.3.b.F.K.K.F.x.;.3.3.3.1.4.>./ K K _ 9.p.s.%.e   O   I.I.I.I.",
"I.I.I.I.  O   e 8.f.s.s.p.a.3.c.H.P.P.H.x.;.3.3.p.a.d.e.^ D F ~ >.5.-.x.F.K.K.F.b.3.a.a.d.d.d.t.~ D D ~ y.d.f.8.e   O   I.I.I.I.",
"I.I.I.I.  O   w o.8.%.&.p.a.3.c.C.G.G.Z.m.x.b.c.p.p.s.e.{ ^ ~ } l.n.z.M.F.K.K.F.c.3.a.p.e.2.e.=.{ ^ ^ { @.6.8.o.w   O   I.I.I.I.",
"I.I.I.I.I.I.I.I.0 t 8 i &.s.p.p.c.b.x.m.Z.G.G.C.c.3.a.p.e.e.>.l.B.H.S.F.J.J.K.F.c.3.d.e.{ ^ ^ { =.e.r.@.u 8 t 0 I.I.I.I.I.I.I.I.",
"I.I.I.I.I.I.I.I.      8 %.s.p.p.3.3.;.x.H.P.P.H.c.3.a.p.s.d.4.n.G.P.K.K.J.J.K.F.c.3.d.e.~ D D ~ e.d.f.7.9       I.I.I.I.I.I.I.I.",
"I.I.I.I.I.I.I.I.O #   r %.s.p.p.a.a.3.b.F.K.K.F.c.3.a.p.p.p.1.c.G.P.K.K.K.K.P.H.c.1.d.e._ K K _ w.p.s.%.r   # O I.I.I.I.I.I.I.I.",
"I.I.I.I.I.I.I.I.  O   e %.s.p.p.p.a.3.c.F.K.K.F.c.3.a.p.p.a.3.c.C.H.S.F.F.S.H.C.c.3.d.e._ K K _ e.p.s.%.e   O   I.I.I.I.I.I.I.I.",
"I.I.I.I.I.I.I.I.  O   e %.s.p.p.p.a.3.c.F.K.K.F.c.3.a.p.p.p.p.p.c.c.c.c.c.c.c.c.p.p.s.e._ K K _ e.p.s.%.e   O   I.I.I.I.I.I.I.I.",
"I.I.I.I.I.I.I.I.  O   e %.s.i.p.p.a.3.c.F.K.K.F.c.3.p.p.p.p.p.p.3.1.3.1.3.1.1.3.p.p.p.w._ K K _ 9.p.s.%.e   O   I.I.I.I.I.I.I.I.",
"I.I.I.I.I.I.I.I.  O   e 8.f.s.s.p.a.3.c.H.P.P.H.n.4.d.s.s.s.s.s.d.d.d.d.d.d.d.d.s.p.d.e.~ D D ~ y.d.f.8.e   O   I.I.I.I.I.I.I.I.",
"I.I.I.I.I.I.I.I.  O   w o.8.%.&.p.a.3.c.C.G.G.B.l.>.e.e.e.e.e.e.e.e.e.e.e.e.e.e.e.2.e.=.{ ^ ^ { @.6.8.o.w   O   I.I.I.I.I.I.I.I.",
"I.I.I.I.I.I.I.I.I.I.I.I.0 t 8 i &.s.p.p.c.c.n.l.} ~ _ _ _ _ _ _ _ _ _ _ _ _ _ _ _ _ ~ { =.e.r.@.u 8 t 0 I.I.I.I.I.I.I.I.I.I.I.I.",
"I.I.I.I.I.I.I.I.I.I.I.I.      8 %.s.i.p.3.1.4.>.~ D K K K K K K K K K K K K K K K K D ^ e.d.d.6.8       I.I.I.I.I.I.I.I.I.I.I.I.",
"I.I.I.I.I.I.I.I.I.I.I.I.O #   t 8.f.s.s.a.p.d.e.^ D K K K K K K K K K K K K K K K K D ^ r.d.f.8.t   # O I.I.I.I.I.I.I.I.I.I.I.I.",
"I.I.I.I.I.I.I.I.I.I.I.I.  O   w o.8.%.&.p.p.s.e.{ ~ _ _ _ _ _ _ _ _ _ _ _ _ _ _ _ _ ~ { @.6.8.o.w   O   I.I.I.I.I.I.I.I.I.I.I.I.",
"I.I.I.I.I.I.I.I.I.I.I.I.I.I.I.I.0 t 8 i &.s.p.p.e.w.e.e.e.e.e.e.e.e.e.e.e.e.e.e.e.2.y.@.u 8 t 0 I.I.I.I.I.I.I.I.I.I.I.I.I.I.I.I.",
"I.I.I.I.I.I.I.I.I.I.I.I.I.I.I.I.      8 %.s.i.p.p.p.p.p.p.p.p.p.p.p.p.p.p.p.p.p.p.p.d.6.8       I.I.I.I.I.I.I.I.I.I.I.I.I.I.I.I.",
"I.I.I.I.I.I.I.I.I.I.I.I.I.I.I.I.O #   t 8.f.s.s.s.s.s.s.s.s.s.s.s.s.s.s.s.s.s.s.s.s.f.8.t   # O I.I.I.I.I.I.I.I.I.I.I.I.I.I.I.I.",
"I.I.I.I.I.I.I.I.I.I.I.I.I.I.I.I.  O   w o.8.%.%.%.%.%.%.%.%.%.%.%.%.%.%.%.%.%.%.%.%.8.o.w   O   I.I.I.I.I.I.I.I.I.I.I.I.I.I.I.I.",
"I.I.I.I.I.I.I.I.I.I.I.I.I.I.I.I.I.I.I.I.0 e e e e e e e e e e e e e e e e e e e e e e 0 I.I.I.I.I.I.I.I.I.I.I.I.I.I.I.I.I.I.I.I.",
"I.I.I.I.I.I.I.I.I.I.I.I.I.I.I.I.I.I.I.I.                                                I.I.I.I.I.I.I.I.I.I.I.I.I.I.I.I.I.I.I.I.",
"I.I.I.I.I.I.I.I.I.I.I.I.I.I.I.I.I.I.I.I.O O O O O O O O O O O O O O O O O O O O O O O O I.I.I.I.I.I.I.I.I.I.I.I.I.I.I.I.I.I.I.I.",
"I.I.I.I.I.I.I.I.I.I.I.I.I.I.I.I.I.I.I.I.                                                I.I.I.I.I.I.I.I.I.I.I.I.I.I.I.I.I.I.I.I."
};
