/* XPM */
static char *result[] = {
/* columns rows colors chars-per-pixel */
"64 64 175 2 ",
"   c black",
".  c #030100",
"X  c #050100",
"o  c #070401",
"O  c #080200",
"+  c #0E0801",
"@  c #1A0500",
"#  c #240B01",
"$  c #240C01",
"%  c #250C01",
"&  c #260D01",
"*  c #260E01",
"=  c #2A1301",
"-  c #2F1501",
";  c #2F1601",
":  c #301601",
">  c #3C1B02",
",  c #2F2207",
"<  c #302207",
"1  c #382909",
"2  c #38280A",
"3  c #38290A",
"4  c #39290A",
"5  c #3A2A0A",
"6  c #3B2B0B",
"7  c #4F3A11",
"8  c #503B12",
"9  c #B14B00",
"0  c #B25000",
"q  c #B25100",
"w  c #B2520F",
"e  c #AE5110",
"r  c #AC5211",
"t  c #AF5311",
"y  c #B05311",
"u  c #B25210",
"i  c #B35310",
"p  c #B25411",
"a  c #B05412",
"s  c #B15412",
"d  c #B25412",
"f  c #B25512",
"g  c #B35512",
"h  c #B45611",
"j  c #B45512",
"k  c #B45612",
"l  c #B55612",
"z  c #B65712",
"x  c #B35615",
"c  c #B35717",
"v  c #B55714",
"b  c #B45B17",
"n  c #B75D17",
"m  c #B75D19",
"M  c #B85D18",
"N  c #B65F2A",
"B  c #B76230",
"V  c #B76332",
"C  c #D77303",
"Z  c #D87300",
"A  c #D97502",
"S  c #D87403",
"D  c #D97503",
"F  c #D97504",
"G  c #DA790B",
"H  c #D17215",
"J  c #D57314",
"K  c #D57515",
"L  c #D57516",
"P  c #D67516",
"I  c #D77616",
"U  c #D87413",
"Y  c #D87513",
"T  c #D87514",
"R  c #D87614",
"E  c #D97614",
"W  c #D97615",
"Q  c #DA7615",
"!  c #D97716",
"~  c #D97617",
"^  c #D97717",
"/  c #DA7816",
"(  c #DB7816",
")  c #D87618",
"_  c #D97718",
"`  c #D7791A",
"'  c #D97818",
"]  c #D97819",
"[  c #DA7A19",
"{  c #DA7A1A",
"}  c #DB7B1A",
"|  c #DA7B1B",
" . c #DB7B1B",
".. c #DC7C1B",
"X. c #DB7B1C",
"o. c #DB7C1D",
"O. c #DC7F1E",
"+. c #DC7F20",
"@. c #D97E31",
"#. c #DB7F31",
"$. c #DA7E32",
"%. c #DB7F32",
"&. c #BB6D41",
"*. c #DB8032",
"=. c #DC8334",
"-. c #F6BC4A",
";. c #F8BC4A",
":. c #F9BD4A",
">. c #FABF4B",
",. c #FBBF4B",
"<. c #FCBF48",
"1. c #FCBE4A",
"2. c #FFC146",
"3. c #FFC247",
"4. c #FBC04B",
"5. c #FDC048",
"6. c #FEC048",
"7. c #FEC049",
"8. c #FFC249",
"9. c #FDC04B",
"0. c #FFC24A",
"q. c #FFC34A",
"w. c #FFC34B",
"e. c #FAC04C",
"r. c #FBC04C",
"t. c #FCC04C",
"y. c #FDC04C",
"u. c #FEC04C",
"i. c #FEC14C",
"p. c #FFC14C",
"a. c #FEC14D",
"s. c #FFC24C",
"d. c #FEC34D",
"f. c #FFC34D",
"g. c #FFC34E",
"h. c #FFC44D",
"j. c #FFC44E",
"k. c #FFC54E",
"l. c #FFC44F",
"z. c #FFC54F",
"x. c #FCC255",
"c. c #FEC356",
"v. c #FFC454",
"b. c #FFC554",
"n. c #FFC555",
"m. c #FFC557",
"M. c #FFC657",
"N. c #FFC558",
"B. c #FFC658",
"V. c #FFC75F",
"C. c #FFC760",
"Z. c #FBECC5",
"A. c #FCEDC5",
"S. c #FDEDC5",
"D. c #FDEEC5",
"F. c #FEEEC5",
"G. c #FFEFC5",
"H. c #FDEFC8",
"J. c #FCEFC9",
"K. c #FEEFC8",
"L. c #FFF0C5",
"P. c #FDF0C9",
"I. c #FEF0C8",
"U. c #FFF1C8",
"Y. c #FEF0C9",
"T. c #FEF1C9",
"R. c #FFF1C9",
"E. c #FFF2C9",
"W. c #FFF2CA",
"Q. c #FFF3CC",
"!. c #FFF3CD",
"~. c #FFF4CD",
"^. c #FFF4CE",
"/. c #FFF5CE",
"(. c None",
/* pixels */
"(.(.(.(.(.(.(.(.(.(.(.(.(.(.(.(.(.(.(.(.(.(.(.(.                                (.(.(.(.(.(.(.(.(.(.(.(.(.(.(.(.(.(.(.(.(.(.(.(.",
"(.(.(.(.(.(.(.(.(.(.(.(.(.(.(.(.(.(.(.(.(.(.(.(.. . . . . . . . o o o o o o o o (.(.(.(.(.(.(.(.(.(.(.(.(.(.(.(.(.(.(.(.(.(.(.(.",
"(.(.(.(.(.(.(.(.(.(.(.(.(.(.(.(.(.(.(.(.(.(.(.(.                                (.(.(.(.(.(.(.(.(.(.(.(.(.(.(.(.(.(.(.(.(.(.(.(.",
"(.(.(.(.(.(.(.(.(.(.(.(.(.(.(.(.(.(.(.(.(.(.(.(.$ % % % % % # * 2 4 4 4 4 4 4 1 (.(.(.(.(.(.(.(.(.(.(.(.(.(.(.(.(.(.(.(.(.(.(.(.",
"(.(.(.(.(.(.(.(.(.(.(.(.(.(.(.(.(.(.(.(.  .   $ r s t y y a e b ;.r.>.>.>.>.t.-.3   o   (.(.(.(.(.(.(.(.(.(.(.(.(.(.(.(.(.(.(.(.",
"(.(.(.(.(.(.(.(.(.(.(.(.(.(.(.(.(.(.(.(.  .   % s l j j j k i M a.k.j.j.h.h.k.t.4   o   (.(.(.(.(.(.(.(.(.(.(.(.(.(.(.(.(.(.(.(.",
"(.(.(.(.(.(.(.(.(.(.(.(.(.(.(.(.(.(.(.(.  .   % t j g g g g u n <.q.8.0.f.d.h.>.4   o   (.(.(.(.(.(.(.(.(.(.(.(.(.(.(.(.(.(.(.(.",
"(.(.(.(.(.(.(.(.(.(.(.(.(.(.(.(.(.(.(.(.  .   % y j g g g g w m x.B.m.m.f.f.h.>.4   o   (.(.(.(.(.(.(.(.(.(.(.(.(.(.(.(.(.(.(.(.",
"(.(.(.(.(.(.(.(.(.(.(.(.(.(.(.(.(.(.(.(.  .   % y j g g g x 0 B A.W.E.L.m.0.j.>.4   o   (.(.(.(.(.(.(.(.(.(.(.(.(.(.(.(.(.(.(.(.",
"(.(.(.(.(.(.(.(.(.(.(.(.(.(.(.(.(.(.(.(.X O   & y k g g x c q V J.^.~.E.m.8.j.>.5   + o (.(.(.(.(.(.(.(.(.(.(.(.(.(.(.(.(.(.(.(.",
"(.(.(.(.(.(.(.(.(.(.(.(.(.(.(.(.(.(.(.(.      @ t g d p q q 9 N J.^.~.E.m.8.j.>.,       (.(.(.(.(.(.(.(.(.(.(.(.(.(.(.(.(.(.(.(.",
"(.(.(.(.(.(.(.(.(.(.(.(.(.(.(.(.(.(.(.(.- : = > f z h v B V N &.D.W.E.L.m.0.j.,.8 , 6 1 (.(.(.(.(.(.(.(.(.(.(.(.(.(.(.(.(.(.(.(.",
"(.(.(.(.(.(.(.(.(.(.(.(.(.(.(.(.  X   - H P K K I ) C @.Z.P.J.S.V.b.N.m.f.f.f.f.4.>.t.-.3   o   (.(.(.(.(.(.(.(.(.(.(.(.(.(.(.(.",
"(.(.(.(.(.(.(.(.(.(.(.(.(.(.(.(.  X   - P ( / / ! ' A *.T./.^.W.v.2.0.0.f.f.f.f.h.h.k.t.4   o   (.(.(.(.(.(.(.(.(.(.(.(.(.(.(.(.",
"(.(.(.(.(.(.(.(.(.(.(.(.(.(.(.(.  X   - K / ! ! ! _ S %.H.~.Q.R.B.w.l.j.h.h.h.h.f.d.h.>.4   o   (.(.(.(.(.(.(.(.(.(.(.(.(.(.(.(.",
"(.(.(.(.(.(.(.(.(.(.(.(.(.(.(.(.  X   - K / ! ! ! _ S %.K.~.!.R.c.6.i.i.i.i.i.i.f.f.h.>.4   o   (.(.(.(.(.(.(.(.(.(.(.(.(.(.(.(.",
"(.(.(.(.(.(.(.(.(.(.(.(.(.(.(.(.  X   - K / ! ! ! _ S %.K.~.~.I.=.G o. . . .[ O.i.f.h.>.4   o   (.(.(.(.(.(.(.(.(.(.(.(.(.(.(.(.",
"(.(.(.(.(.(.(.(.(.(.(.(.(.(.(.(.  X   - K / ! ! ! _ S %.K.~.~.K.$.Z ~ R R W U [ i.f.h.>.4   o   (.(.(.(.(.(.(.(.(.(.(.(.(.(.(.(.",
"(.(.(.(.(.(.(.(.(.(.(.(.(.(.(.(.  X   - K / ! ! ! _ S %.K.~.~.K.%.D ] ! ! ^ W  .i.f.h.>.4   o   (.(.(.(.(.(.(.(.(.(.(.(.(.(.(.(.",
"(.(.(.(.(.(.(.(.(.(.(.(.(.(.(.(.  X   - K / ! ! ! _ S %.K.~.~.K.%.S _ ! ! ! R  .i.f.h.>.4   o   (.(.(.(.(.(.(.(.(.(.(.(.(.(.(.(.",
"(.(.(.(.(.(.(.(.(.(.(.(.(.(.(.(.  X   - K / ! ! ! _ S %.K.~.~.K.%.S _ ! ! ! R  .i.f.h.>.4   o   (.(.(.(.(.(.(.(.(.(.(.(.(.(.(.(.",
"(.(.(.(.(.(.(.(.(.(.(.(.(.(.(.(.  X   - K / ! ! ! _ S %.K.~.~.K.%.S _ ! ! ! R  .i.f.h.>.4   o   (.(.(.(.(.(.(.(.(.(.(.(.(.(.(.(.",
"(.(.(.(.(.(.(.(.(.(.(.(.(.(.(.(.  X   - K / ! ! ! _ S %.K.~.~.K.%.S _ ! ! ! R  .i.f.h.>.4   o   (.(.(.(.(.(.(.(.(.(.(.(.(.(.(.(.",
"(.(.(.(.(.(.(.(.(.(.(.(.(.(.(.(.  X   - K / ! ! ! _ S %.K.~.~.K.%.S _ ! ! ! R  .i.f.h.>.4   o   (.(.(.(.(.(.(.(.(.(.(.(.(.(.(.(.",
"(.(.(.(.(.(.(.(.(.(.(.(.(.(.(.(.  X   - K / ! ! ! _ S %.K.~.~.K.%.S _ ! ! ! R  .i.f.h.>.4   o   (.(.(.(.(.(.(.(.(.(.(.(.(.(.(.(.",
"(.(.(.(.(.(.(.(.(.(.(.(.(.(.(.(.  X   - K / ! ! ! _ S %.K.~.~.K.%.D ] ! ! ! R  .i.f.h.>.4   o   (.(.(.(.(.(.(.(.(.(.(.(.(.(.(.(.",
"(.(.(.(.(.(.(.(.(.(.(.(.(.(.(.(.  X   - K / ! ! ! _ S %.K.~.~.K.$.Z ~ R ! ! R  .i.f.h.>.4   o   (.(.(.(.(.(.(.(.(.(.(.(.(.(.(.(.",
"(.(.(.(.(.(.(.(.(.(.(.(.(.(.(.(.  X   - K / ! ! ! _ S %.K.~.~.I.=.G o.} ! ! R  .i.f.h.>.4   o   (.(.(.(.(.(.(.(.(.(.(.(.(.(.(.(.",
"(.(.(.(.(.(.(.(.(.(.(.(.(.(.(.(.  X   - K / ! ! ! _ S %.K.~.!.R.c.5.a.1.} W W  .i.f.h.>.4   o   (.(.(.(.(.(.(.(.(.(.(.(.(.(.(.(.",
"(.(.(.(.(.(.(.(.(.(.(.(.(.(.(.(.  X   - K / ! ! ! _ S %.K.~.!.R.M.q.j.i. .W W  .i.f.h.>.4   o   (.(.(.(.(.(.(.(.(.(.(.(.(.(.(.(.",
"(.(.(.(.(.(.(.(.(.(.(.(.(.(.(.(.  X   - K / ! ! ! _ S %.K.~.!.R.m.8.j.y. .W W  .i.f.h.>.4   o   (.(.(.(.(.(.(.(.(.(.(.(.(.(.(.(.",
"(.(.(.(.(.(.(.(.(.(.(.(.(.(.(.(.  X   - K / ! ! ! _ S %.K.~.!.R.m.0.j.i. .W W  .i.f.h.>.4   o   (.(.(.(.(.(.(.(.(.(.(.(.(.(.(.(.",
"(.(.(.(.(.(.(.(.(.(.(.(.(.(.(.(.  X   - K / ! ! ! _ S %.K.~.!.R.m.0.j.i. .W W  .i.f.h.>.4   o   (.(.(.(.(.(.(.(.(.(.(.(.(.(.(.(.",
"(.(.(.(.(.(.(.(.(.(.(.(.(.(.(.(.  X   - L / ! ! ! ] D %.K.~.!.R.N.0.l.i. .W W  .i.f.h.>.4   o   (.(.(.(.(.(.(.(.(.(.(.(.(.(.(.(.",
"(.(.(.(.(.(.(.(.(.(.(.(.(.(.(.(.  X   - J Q R R R ~ Z $.K.~.!.R.b.2.w.6.} W W  .i.f.h.>.4   o   (.(.(.(.(.(.(.(.(.(.(.(.(.(.(.(.",
"(.(.(.(.(.(.(.(.(.(.(.(.(.(.(.(.  X   ; ` ..|  . .o.G =.I.~.!.R.C.v.B.c.X.E W  .i.f.h.>.4   o   (.(.(.(.(.(.(.(.(.(.(.(.(.(.(.(.",
"(.(.(.(.(.(.(.(.(.(.(.(.(.(.(.(.  o   2 :.s.9.i.i.i.6.c.R.!.Q.Q.R.U.W.F.#.F ~  .i.f.h.>.4   o   (.(.(.(.(.(.(.(.(.(.(.(.(.(.(.(.",
"(.(.(.(.(.(.(.(.(.(.(.(.(.(.(.(.  o   4 r.k.f.h.h.j.q.M.R.!.Q.Q.!.!.^.Y.%.D ~  .i.f.h.>.4   o   (.(.(.(.(.(.(.(.(.(.(.(.(.(.(.(.",
"(.(.(.(.(.(.(.(.(.(.(.(.(.(.(.(.  o   4 >.h.f.f.f.f.8.m.R.!.Q.Q.!.!.^.Y.%.D ~  .i.f.h.>.4   o   (.(.(.(.(.(.(.(.(.(.(.(.(.(.(.(.",
"(.(.(.(.(.(.(.(.(.(.(.(.(.(.(.(.  o   4 >.h.f.f.f.g.0.m.R.!.Q.Q.R.U.W.F.#.F ~  .i.f.h.>.4   o   (.(.(.(.(.(.(.(.(.(.(.(.(.(.(.(.",
"(.(.(.(.(.(.(.(.(.(.(.(.(.(.(.(.  o   4 >.h.f.f.f.g.0.m.R.!.!.R.C.v.B.c.X.E W  .i.f.h.>.4   o   (.(.(.(.(.(.(.(.(.(.(.(.(.(.(.(.",
"(.(.(.(.(.(.(.(.(.(.(.(.(.(.(.(.  o   4 >.h.f.f.f.g.0.m.R.!.!.R.n.3.w.7.} W W  .i.f.h.>.4   o   (.(.(.(.(.(.(.(.(.(.(.(.(.(.(.(.",
"(.(.(.(.(.(.(.(.(.(.(.(.(.(.(.(.  o   4 >.h.f.f.f.g.0.m.R.!.!.R.n.3.w.7.} W W  .i.f.h.>.4   o   (.(.(.(.(.(.(.(.(.(.(.(.(.(.(.(.",
"(.(.(.(.(.(.(.(.(.(.(.(.(.(.(.(.  o   4 >.h.f.f.f.g.0.m.R.!.!.R.C.v.B.c.X.E W  .i.f.h.>.4   o   (.(.(.(.(.(.(.(.(.(.(.(.(.(.(.(.",
"(.(.(.(.(.(.(.(.(.(.(.(.(.(.(.(.  o   4 >.h.f.f.f.g.0.m.R.!.Q.Q.R.U.W.F.#.F ~  .i.f.h.>.4   o   (.(.(.(.(.(.(.(.(.(.(.(.(.(.(.(.",
"(.(.(.(.(.(.(.(.(.(.(.(.(.(.(.(.  o   4 >.h.f.f.f.g.0.m.R.!.Q.Q.!.!.^.Y.%.D ~  .i.f.h.>.4   o   (.(.(.(.(.(.(.(.(.(.(.(.(.(.(.(.",
"(.(.(.(.(.(.(.(.(.(.(.(.(.(.(.(.  o   4 >.h.f.f.f.g.0.m.R.!.Q.Q.!.!.^.Y.%.D ~  .i.f.h.>.4   o   (.(.(.(.(.(.(.(.(.(.(.(.(.(.(.(.",
"(.(.(.(.(.(.(.(.(.(.(.(.(.(.(.(.  o   4 >.h.f.f.f.g.0.m.R.!.Q.Q.R.U.W.F.#.F ~  .i.f.h.>.4   o   (.(.(.(.(.(.(.(.(.(.(.(.(.(.(.(.",
"(.(.(.(.(.(.(.(.(.(.(.(.(.(.(.(.  o   4 >.h.f.f.f.g.0.m.R.!.!.R.C.v.B.c.X.E W  .i.f.h.>.4   o   (.(.(.(.(.(.(.(.(.(.(.(.(.(.(.(.",
"(.(.(.(.(.(.(.(.(.(.(.(.(.(.(.(.  o   4 >.h.d.f.f.g.0.m.R.!.!.U.v.2.w.6.} W W  .y.f.h.>.4   o   (.(.(.(.(.(.(.(.(.(.(.(.(.(.(.(.",
"(.(.(.(.(.(.(.(.(.(.(.(.(.(.(.(.  o   4 t.k.h.h.f.g.0.m.W.^.^.W.B.w.z.a.[ Y Y [ s.j.k.t.4   o   (.(.(.(.(.(.(.(.(.(.(.(.(.(.(.(.",
"(.(.(.(.(.(.(.(.(.(.(.(.(.(.(.(.  o   3 -.t.>.,.f.g.0.m.L.E.E.G.c.5.a.1.O.{ { O.:.e.t.-.3   o   (.(.(.(.(.(.(.(.(.(.(.(.(.(.(.(.",
"(.(.(.(.(.(.(.(.(.(.(.(.(.(.(.(.(.(.(.(.1 6 , 8 ,.h.f.f.m.m.B.c.+.[ { O.1.i.p.:.7 , 6 1 (.(.(.(.(.(.(.(.(.(.(.(.(.(.(.(.(.(.(.(.",
"(.(.(.(.(.(.(.(.(.(.(.(.(.(.(.(.(.(.(.(.      , >.h.f.f.0.8.q.6.[ T Y { i.j.k.r.<       (.(.(.(.(.(.(.(.(.(.(.(.(.(.(.(.(.(.(.(.",
"(.(.(.(.(.(.(.(.(.(.(.(.(.(.(.(.(.(.(.(.o +   5 >.h.f.f.g.f.j.i.{ Y Y { 9.f.h.>.5   + o (.(.(.(.(.(.(.(.(.(.(.(.(.(.(.(.(.(.(.(.",
"(.(.(.(.(.(.(.(.(.(.(.(.(.(.(.(.(.(.(.(.  o   4 >.h.f.f.f.f.h.i.O.{ { O.i.f.h.>.4   o   (.(.(.(.(.(.(.(.(.(.(.(.(.(.(.(.(.(.(.(.",
"(.(.(.(.(.(.(.(.(.(.(.(.(.(.(.(.(.(.(.(.  o   4 >.h.f.f.f.f.f.f.i.u.i.i.f.f.h.>.4   o   (.(.(.(.(.(.(.(.(.(.(.(.(.(.(.(.(.(.(.(.",
"(.(.(.(.(.(.(.(.(.(.(.(.(.(.(.(.(.(.(.(.  o   4 >.h.d.f.f.f.f.f.f.f.f.f.f.d.h.>.4   o   (.(.(.(.(.(.(.(.(.(.(.(.(.(.(.(.(.(.(.(.",
"(.(.(.(.(.(.(.(.(.(.(.(.(.(.(.(.(.(.(.(.  o   4 t.k.h.h.h.h.h.h.h.h.h.h.h.h.k.t.4   o   (.(.(.(.(.(.(.(.(.(.(.(.(.(.(.(.(.(.(.(.",
"(.(.(.(.(.(.(.(.(.(.(.(.(.(.(.(.(.(.(.(.  o   3 -.t.>.>.>.>.>.>.>.>.>.>.>.>.t.-.3   o   (.(.(.(.(.(.(.(.(.(.(.(.(.(.(.(.(.(.(.(.",
"(.(.(.(.(.(.(.(.(.(.(.(.(.(.(.(.(.(.(.(.(.(.(.(.1 4 4 4 4 4 4 4 4 4 4 4 4 4 4 1 (.(.(.(.(.(.(.(.(.(.(.(.(.(.(.(.(.(.(.(.(.(.(.(.",
"(.(.(.(.(.(.(.(.(.(.(.(.(.(.(.(.(.(.(.(.(.(.(.(.                                (.(.(.(.(.(.(.(.(.(.(.(.(.(.(.(.(.(.(.(.(.(.(.(.",
"(.(.(.(.(.(.(.(.(.(.(.(.(.(.(.(.(.(.(.(.(.(.(.(.o o o o o o o o o o o o o o o o (.(.(.(.(.(.(.(.(.(.(.(.(.(.(.(.(.(.(.(.(.(.(.(.",
"(.(.(.(.(.(.(.(.(.(.(.(.(.(.(.(.(.(.(.(.(.(.(.(.                                (.(.(.(.(.(.(.(.(.(.(.(.(.(.(.(.(.(.(.(.(.(.(.(."
};
