/* XPM */
static char *result[] = {
/* columns rows colors chars-per-pixel */
"64 64 84 1 ",
"  c black",
". c #070401",
"X c #0E0801",
"o c #2F2106",
"O c #2F2207",
"+ c #302207",
"@ c #382909",
"# c #38290A",
"$ c #39290A",
"% c #3A2A0A",
"& c #3A2A0B",
"* c #3B2B0B",
"= c #4F3A11",
"- c #503B12",
"; c #503B14",
": c #D87413",
"> c #D87513",
", c #D87514",
"< c #D87614",
"1 c #D87615",
"2 c #D97615",
"3 c #D97716",
"4 c #D97717",
"5 c #DA7A19",
"6 c #DA7A1A",
"7 c #DB7B1A",
"8 c #DB7B1B",
"9 c #DC7F1E",
"0 c #DC7F20",
"q c #F6BC4A",
"w c #FABE48",
"e c #FABF48",
"r c #F9BD4A",
"t c #FABF4B",
"y c #FBBF4B",
"u c #FCBE4A",
"i c #FABF4C",
"p c #FFC146",
"a c #FFC246",
"s c #FBC04B",
"d c #FEC048",
"f c #FEC249",
"g c #FFC249",
"h c #FDC04B",
"j c #FFC24A",
"k c #FFC34A",
"l c #FFC34B",
"z c #FAC04C",
"x c #FBC04C",
"c c #FCC04C",
"v c #FDC04C",
"b c #FCC14C",
"n c #FEC04C",
"m c #FEC14C",
"M c #FFC14C",
"N c #FFC24C",
"B c #FEC34D",
"V c #FFC34D",
"C c #FFC34E",
"Z c #FFC44D",
"A c #FFC44E",
"S c #FFC54E",
"D c #FFC44F",
"F c #FBC255",
"G c #FEC356",
"H c #FFC454",
"J c #FFC554",
"K c #FFC557",
"L c #FFC558",
"P c #FFC658",
"I c #FFC75F",
"U c #FFC760",
"Y c #FFEFC5",
"T c #FFF0C5",
"R c #FFF0C6",
"E c #FFF1C8",
"W c #FFF1C9",
"Q c #FFF2C9",
"! c #FFF2CA",
"~ c #FFF3CC",
"^ c #FFF3CD",
"/ c #FFF4CD",
"( c #FFF4CE",
") c None",
/* pixels */
"))))))))))))))))))))                        ))))))))))))))))))))",
"))))))))))))))))))))........................))))))))))))))))))))",
"))))))))))))))))))))                        ))))))))))))))))))))",
"))))))))))))))))))))@$$$$$$$$$$$$$$$$$$$$$$@))))))))))))))))))))",
"))))))))))))     . #qcttttttttttttttttttttcq# .     ))))))))))))",
")))))))))))).....X *cSZZZZZZZZZZZZZZZZZZZZSc* X.....))))))))))))",
"))))))))))))       OzAVVVVVVVVVVVVVVVVVVVVAzO       ))))))))))))",
"))))))))))))@$$$$%+=rNhmmmmmmmmmmmmmmmmmmhNr=+%$$$$@))))))))))))",
")))))))) . #qcttttxr958888888888888888888859rxttttcq# . ))))))))",
")))))))).X *cSZZZZSM6>22222222222222222222>6MSZZZZSc* X.))))))))",
"))))))))   OtZBVVVAm6>22222222222222222222>6mAVVVBZtO   ))))))))",
"))))))))@*O-yZVVmhmu958888888888888888888859umhmVVZy-O*@))))))))",
")))) . #qctsVVZm9669umhmmmmmmmmmmmmmmmmmmhmu9669mZVVytcq# . ))))",
")))) . $cSZZVVVh6>>6mAVZAAAAAAAAAAAAZZZZZVAm6>>6mAVCZZSc$ . ))))",
")))) . $tZBVZZAm6>>6hVVVjggjgjgjgjgjVVVVVVVh6>,5dkgjVBZt$ . ))))",
")))) . $tZVVmhmu9669mZVVKKKKKKKKKKKKVVVVVVZm9650GPKKVVZt$ . ))))",
")))) . $tZVm9669umhmVCjKT!EWWWWWWE!TKjCVVVVVmmdGYQQTKjAt$ . ))))",
")))).X %tZVh6>>6mAVZVCjK!(^^^^^^^^(QKgVVVVVVZAkPQ//QLjDi& X.))))",
"))))   +xSAm6>>6hVVVVCjKW^~~^^^^^^(QPkAZVVVVVVgKQ//QJpleo   ))))",
"))))@*O=rMmu9669mZVVVCjKW^~~WWWWWE!YGdmmVVVVVCjKTQQRIHPF;o*@))))",
" . #qczr9669umhmVVVVVCjKW^^WUJLKKKPG0569mZVVVVVVKLJIRQQYFwbq# . ",
" . $cSAN5>>5mAVZCCCCCCjLW^^WJajjjjkd5,>6mAVCVVVVjjaJ!((!PkSc$ . ",
" . $tZVv8228nVVVjjjjjjaJW^^WLjCCCVAm6>,5dkgjVVVVCCjLW^^WKfAt$ . ",
" . $tZVm8228mZVVKKKKKLJUW^^WKjCVVVZm9650GPKKVVVVVCjKW^^WKgAt$ . ",
" . $tZVm8228mAjKT!EWWWWW~~^WKjCVVVVVmmdGYQQTKjCVVCjKW^^WKgAt$ . ",
" . $tZVm8228mAgK!(^^^^^^~~^WKjCVVVVVZAkPQ//QKgVVVCjKW^^WKgAt$ . ",
" . $tZVm8228mAjKW^~~^^^^^^(!KjCVVVVVVVgKQ//QPkAZVCjKW^^WKgAt$ . ",
" . $tZVm8228mAjKW^~~WWWWWE!TKjCVVVVVVCjKTQQYGdmmVCjKW^^WKgAt$ . ",
" . $tZVm8228mAjKW^^WUJLKKKKKVVVVVVVVVVVVKKPG0569mAjKW^^WKgAt$ . ",
" . $tZVm8228mAjKW^^WJajjjjjjVVVVVVVVVVVVjgkd5>>5mAjKW^^WKgAt$ . ",
" . $tZVm8228mAjKW^^WLjCCCCCCVVVVVVVVVVVVCVAm8228mAjKW^^WKgAt$ . ",
" . $tZVm8228mAjKW^^WKjCVVVVVVVVVVVVVVVVVVVZm8228mAjKW^^WKgAt$ . ",
" . $tZVm8228mAjKW^^WKjCVVVVVVVVVVVVVVVVVVVZm8228mAjKW^^WKgAt$ . ",
" . $tZVm8228mAjKW^^WKjVVVVVVVVVVVVVVVVVVVVVv8228mAjKW^^WKgAt$ . ",
" . $tZVm8228mAgK!((!PkAZVVVVVVVVVVVVZZZZZVAm8228mAjKW^^WKgAt$ . ",
" . $tZVm8228mAjKTQQYGdmmVVVVVVVVVVVVmmmmmhmu7228mAjKW^^WKgAt$ . ",
" . $tZVm8228mZVVKKPG0569mZVVVVVVVVZm9588888733<8mAjKW^^WKgAt$ . ",
" . $tZVm8228mZVVjgkd5,>6mAVCVVVVVVZm5:2<22123428mAjKW^^WKgAt$ . ",
" . $tZVm8228mZVVCVAm6>,5dkgjVVVVVVZm82432122<2:5mAjKW^^WKgAt$ . ",
" . $tZVm8228mZVVVVZm9650GPKKVVVVVVZm8<3378888859mAjKW^^WKgAt$ . ",
" . $tZVm8228mZVVVVVVmmdGYQQTKjCVVVZm8227umhmmmnmVCjKW^^WKgAt$ . ",
" . $tZVv8228nVVVVVVVZAkPQ//QKgVVVVVv8228mAVZZZZZCCjLW^^WKfAt$ . ",
" . $cSAN5>>5mAVZVVVVVVgKQ//QPkAZZVAm8228vVVVVVVVjjaJ!((!PkSc$ . ",
" . #qczr9669umhmVVVVVCjKTQQYGdmmmhmu7228mZVVVVVVKLJIRQQYFwbq# . ",
"))))@*O=rMmu9669mZVVVVVVKKPG0588888733<8mZVVVCjKTQQRIHPF;o*@))))",
"))))   +xSAm6>>6mAVCVVVVjgkd5>2222123428mZVVCCjLQ//QJpleo   ))))",
")))).X %tZVh6>,5dkgjVVVVCVAm6>222222<2:5mZVVjjaJQ//QLjDi& X.))))",
")))) . $tZVm9650GPKKVVVVVVZm958888888859mZVVKLJIRQQTKjAt$ . ))))",
")))) . $tZVVmmdGYQQTKjCVVVVVmmmmmmmmmmnmVCjKTQQRIJLKVVZt$ . ))))",
")))) . $tZBVZAkPQ//QLjCCCCCCAAAAAAAAAAAACCjLQ//QJajjVBZt$ . ))))",
")))) . $cSZZVVgKQ//QJajjjjjjgjgjgjgjgjgjjjaJQ//QLjCCZZSc$ . ))))",
")))) . #qctsVCjKTQQRIJLKKKKKKKKKKKKKKKKKKLJIRQQTKjCVytcq# . ))))",
"))))))))@*O-yZVVKLJIR!EWWWWWWWWWWWWWWWWWWE!RIJLKVVZy-O*@))))))))",
"))))))))   OtZBVjjpHQ(^^^^^^^^^^^^^^^^^^^^(QHpjjVBZtO   ))))))))",
")))))))).X *cSZZADlPQ(^^^^^^^^^^^^^^^^^^^^(QPlDAZZSc* X.))))))))",
")))))))) . #qctttieFY!EWWWWWWWWWWWWWWWWWWE!YFeitttcq# . ))))))))",
"))))))))))))@$$$$&o;FPKKKKKKKKKKKKKKKKKKKKPF;o&$$$$@))))))))))))",
"))))))))))))       owkfjgjgjgjgjgjgjgjgjgfkwo       ))))))))))))",
")))))))))))).....X *bSAAAAAAAAAAAAAAAAAAAASb* X.....))))))))))))",
"))))))))))))     . #qcttttttttttttttttttttcq# .     ))))))))))))",
"))))))))))))))))))))@$$$$$$$$$$$$$$$$$$$$$$@))))))))))))))))))))",
"))))))))))))))))))))                        ))))))))))))))))))))",
"))))))))))))))))))))........................))))))))))))))))))))",
"))))))))))))))))))))                        ))))))))))))))))))))"
};
