/* XPM */
static char *result[] = {
/* columns rows colors chars-per-pixel */
"64 64 53 1 ",
"  c #002700",
". c #002D00",
"X c #003500",
"o c #003C00",
"O c #004400",
"+ c #034B00",
"@ c #0B4E00",
"# c #0C4F08",
"$ c #0D5100",
"% c #135300",
"& c #165901",
"* c #1C5C01",
"= c #1A5709",
"- c #1B580A",
"; c #205F00",
": c #1F6103",
"> c #246401",
", c #296700",
"< c #276A04",
"1 c #2D6D01",
"2 c #27640A",
"3 c #2B6B0F",
"4 c #306F00",
"5 c #2E7205",
"6 c #317100",
"7 c #357904",
"8 c #397D04",
"9 c #35730A",
"0 c #397609",
"q c #367D08",
"w c #387E08",
"e c #377A11",
"r c #3E8306",
"t c #3C8409",
"y c #3F890B",
"u c #408707",
"i c #418907",
"p c #438C0A",
"a c #46910B",
"s c #49950C",
"d c #4D9B0E",
"f c #509F0F",
"g c #488F15",
"h c #4F9F10",
"j c #509F10",
"k c #51A10F",
"l c #4FA010",
"z c #53A310",
"x c #56A912",
"c c #58AB12",
"v c #57A41A",
"b c #58A51A",
"n c #5BA81A",
/* pixels */
"bbbbbbnv00000000000000000000000000vnbb3%9000000000002#gnbbbne#--",
"kkkkkfds61664645664646646446646661sfff<+161661666651*Opzlkkz7+%$",
"zzzkzh;*666666644444664666666466467777116666646666;%%+pzkzkzhh6+",
"dldlzs@&564666667664466664646666666646666646666664*$&+pzkzkdhxq+",
"*:*:771166464646dddd746664646646sfdfff74646666pf1+yhssjzlxq$yzhs",
"$$@&146466666667fzff646666466666dkfzfk84644666sx5Opzzzzzhl5Otlzz",
"da116647dddd66ddzf8766466664666667dfzjff8466adfzdshzjjzzq$th5$yz",
"zd664647kkzf67kkff6446446646666644fzfzkjw466szzzzzzjzzjz9oyc5oyz",
"7747ddfs><hhddzd>>shhs746446664446,;sllz<+adkzzzzzzzzzq*&@,844<;",
"4448kzzs+&hzzzhs$$hzzh746664644446&Ogxhl<Osxzzddzzdjlz<O$$<446;O",
"444678zjsp><hh>>phjj7864666666afddsshz5*&+azkk9&azq*>:ys81166611",
"444617fjzh+&hh$%dzzf6446664666dzzzzzzl>+%+azll>opz<O$Oycr1666666",
"466665:<js%%::%%;;77664666646678djjzzjss>+*>:>=%::ts<Oyzu1646646",
"466461+&jd$%@@@$+%14664664466644dzzzzzzz2+@+@@@+@Opx5opxr1644446",
"6646661186%%%&11446666666664646678,>>>>>pdss<+thsshzdslz7+tdddr1",
"4666666641@++$16666466664444466644%O+++Oazzz<Oazzzzlzzkk9Xpzkzu4",
"6666646647asasds74646666sdsd746666111111szzlss5*szw>azzzsgdzt>16",
"4644666647fzzzzd64644666dzzk746664664664szlzzx<Xpz<opzhzzzlz5o>6",
"6666646644<<zzjfds66sddsfzzk744646646446<>szzz7,889<pzzzzzt:1,16",
"4666666461+%fzzzzf76jzzzfzzf744666666466&Oazzzr64144szzzzz5o>746",
"466466646611<<fjzh:*fzjzkz5<1666464664641<sz7>1646641>pzzzsa5@rd",
"666464666464+%jzzh$+dzzzkk&O16466646646664dz<o>64446&opxzzzz5.uz",
"666664646664,4881<pszs91w811664664666666648841466666111>pxzzsahz",
"444466666664441,O$hzzh$O,14464664666446464416664646666*Xyxzzzzzz",
"dssa64646666sssday<5hlaassasss766644as84666664664666464;pzzzjhjz",
"jzzf66666647zzzzxh$@hzzzzxxzzz716644dk846444666464664644axzzzzzz",
"lh<1646647psfjjzjh&%<5hzjhhlllss84asfj84psss8466466464ishzjzt>pz",
"zsO%446648zzzzzjzh&$+@szzzxzxzzz7,fkzf8,dzzz8464646644szjzzz5.pz",
"1<,16466468uffzd5<&%<,15wr65<5sldsjjkzssfki87444666664szzzt<<<7r",
"O$6664646417fzzd$O@@44+O,,Oo++gxzzzzzzkzzv8,4444644661azzz1o<641",
"115666666666u8u811<,4411pdpp*$sljzq1dzzkw1psas84666664szhz8,1644",
"664464466664144166664647jzzz:+sxjz;oszzz;.sxzzr4646641szjzu46644",
"6646666666666666664646668rhjpy55dz2+szq<tydzpr746666669<azdaw466",
"44411466664666666464466641hzzz&osz>+sz>Osxzz8166644415&opczzu,46",
"67assi6666666664644666466655hhpy55&@<5&@azq5166644usss6>15pzsd84",
",7zzck64666466666664644664@Osxcz:O@@+O@+sz<o,61141dxzzr1&oyzkzu4",
"sskf06666666666666664464661<ru74&%,,11<>wu1,46ps8469azss8;pzfzi4",
"kzzdX+156444466464644144414441+O+@165664444661sc8,%.yxzzu,szjzu,",
"jd77uuap66pa66646466asassp6466,,,,46644466466665psupq5szspfkzkdp",
"zso%zzxf67kf44666446kzkzkz84666664666646466614&Xszzz<.yxkzzzzzzz",
"9qtyhdur46ffai6446iafzjfir646446464666666666ia6*szjzpwdkzfzzy5az",
"O*hzzj1447fzzf4447fxkzxz71666666446646644641sxr1hzzzzxzkzxzz5.pz",
"$>hhq66647jzzfai66ffjj77666664664466446644uadz8196szzzau89azw;7p",
"+*zhO@6647zzzzxz76kxzh+o,11466464444114144dzkkr9%.ixjzr,*Xtxr441",
">,77>,66467tzdq7667wjjptpppp766664iaapaa84szfz6*wyszzzt41>7i7466",
"64O+666461O@zd+O14oOdzzzzzcz716664fxzzzx8,dxzz>Xaxzzzzu166614646",
"64<>646664>1ut1>><wtjzzzlzt6646664uuffkfaa80szpqhzjzuq6666666666",
"4666666646661441O@jczxzzxz%O16666641dzzzjj,Xpczzzzzz<o,664664666",
"46646666664667uptqqqqqqqri1>166666669qhzzl1@5qdzjzuq1:1664666646",
"66466611666416kkzk$OoooO,16666666661$Oaxzx>oOXpzzz<X164466644666",
"666666iy6666iafzzd&%tttt664466666666<>6thjpwtwszpw1>166466664646",
"466647xz6167zzzkzj$+dxxk81666666666666@Xpzzzzzzz> <6664666646466",
"664466tqii47fzzftqqtzdtq666466666666668whzhjzzjziqpp746664464466",
"664441O%zf46kkzdO+dxzd$o11446641166641dzzzzzzzzzzvzxr16466666646",
"66uupr%*ffupjzkftqhktqqqri7466ri7666rihzjzpqtqdkfzpq746664464666",
"17xxzdO%fzzzzzjzzzzd@Ohzxz7466fx6111svzzzj>XOOpczz<o>64666666646",
"ptttzj7wjjjjzzjzzzzdt8djtt7666qtuipufzpwdzt71;wppp6;164666646666",
"zsO*zzzzzzxzzjzxzzfzzzxh+X,166Oosxzzff&.szzxr4441166664641444641",
"zs$*tpzjkftujhuidzzzlhptqwti1>6tdzfzzjtqdksp7446666666648i81448i",
"zs$$o%jzxdO@zh++dzzzzh$Osxxz:Odczzzzzzzzkk7,144666411164scu44,sc",
"zs$&;1jhuw;<ip>>ttdkap>>sztt<*7tttppfffjjzprup1;14wurp6*pzw;7udj",
"csO%17zs++464461O@dz6147zz%O16$OOo,1dxzxzzzxzz<O16sczx5.pc<Xuxzj",
"tt5qruau>>466644>>pp6666ip<*54>*6qrrtuuwhzptpa1*16wrszt5szu1szfz",
"O*hzzf41656666646644666664666666hzvj>O+Oaz>o,46666&Oyzzzkvzzzfzz"
};
