/* XPM */
static char *end_point[] = {
/* columns rows colors chars-per-pixel */
"64 64 5 1 ",
"  c gray1",
". c #040404",
"X c gray2",
"o c #060606",
"O c None",
/* pixels */
"OOOOOOOOOOOOOOOOOOOOOOOOOOOOOOOOOOOOOOOOOOOOOOOOOOOOOOOOOOOOOOOO",
"OOOOOOOOOOOOOOOOOOOOOOOOOOOOOOOOOOOOOOOOOOOOOOOOOOOOOOOOOOOOOOOO",
"OOOOOOOOOOOOOOOOOOOOOOOOOOOOOOOOOOOOOOOOOOOOOOOOOOOOOOOOOOOOOOOO",
"OOOOOOOOOOOOOOOOOOOOOOOOOOOOOOOOOOOOOOOOOOOOOOOOOOOOOOOOOOOOOOOO",
"OOOOOOOOOOOOOOOOOOOOOOOOOOOOOOOOOOOOOOOOOOOOOOOOOOOOOOOOOOOOOOOO",
"OOOOOOOOOOOOOOOOOOOOOOOOOOOOOOOOOOOOOOOOOOOOOOOOOOOOOOOOOOOOOOOO",
"OOOOOOOOOOOOOOOOOOOOOOOOOOOOOOOOOOOOOOOOOOOOOOOOOOOOOOOOOOOOOOOO",
"OOOOOOOOOOOOOOOOOOOOOOOOOOOOOOOOOOOOOOOOOOOOOOOOOOOOOOOOOOOOOOOO",
"OOOOOOOOOOOOOOOOOOOOOOOOOOOOOOOOOOOOOOOOOOOOOOOOOOOOOOOOOOOOOOOO",
"OOOOOOOOOOOOOOOOOOOOOOOOOOOOOOOOOOOOOOOOOOOOOOOOOOOOOOOOOOOOOOOO",
"OOOOOOOOOOOOOOOOOOOOOOOOOOOOOOOOOOOOOOOOOOOOOOOOOOOOOOOOOOOOOOOO",
"OOOOOOOOOOOOOOOOOOOOOOOOOOOOOOOOOOOOOOOOOOOOOOOOOOOOOOOOOOOOOOOO",
"OOOOOOOOOOOOOOOOOOOOOOOOOOOOOOOOOOOOOOOOOOOOOOOOOOOOOOOOOOOOOOOO",
"OOOOOOOOOOOOOOOOOOOOOOOOOOOOOOOOOOOOOOOOOOOOOOOOOOOOOOOOOOOOOOOO",
"OOOOOOOOOOOOOOOOOOOOOOOOOOOOOOOOOOOOOOOOOOOOOOOOOOOOOOOOOOOOOOOO",
"OOOOOOOOOOOOOOOOOOOOOOOOOOOOOOOOOOOOOOOOOOOOOOOOOOOOOOOOOOOOOOOO",
"OOOOOOOOOOOOOOOOOOOOOOOOOOOOOOOOOOOOOOOOOOOOOOOOOOOOOOOOOOOOOOOO",
"OOOOOOOOOOOOOOOOOOOOOOOOOOOOOOOOOOOOOOOOOOOOOOOOOOOOOOOOOOOOOOOO",
" .............OOOOOOOO......OOOOOOO...oOOOOOOOOO..........OOOOOO",
"..............OOOOOOOO......OOOOOOO....OOOOOOOO..............OOO",
"..............OOOOOOOO.......OOOOOO....OOOOOOOOo.............OOO",
"..............OOOOOOOO.......OOOOOO....OOOOOOOO...............OO",
"......OOOOOOOOOOOOOOOO........OOOOO....OOOOOOOO......OOO.......O",
".....OOOOOOOOOOOOOOOOO........OOOOO....OOOOOOOO......OOOOo.....O",
".....OOOOOOOOOOOOOOOOO........OOOOO....OOOOOOOO......OOOOOo.....",
".....OOOOOOOOOOOOOOOOO.........OOOOo...OOOOOOOO....o.OOOOO.o....",
".....OOOOOOOOOOOOOOOOO.........OOOO....OOOOOOOO......OOOOOO.....",
".....OOOOOOOOOOOOOOOOO..........OOO....OOOOOOOO......OOOOOO.....",
".......OOOOOOOOOOOOOOO..........OOO....OOOOOOOO....o.OOOOOO.....",
"............OOOOOOOOOO..........OOO....OOOOOOOO......OOOOOO.....",
"............OOOOOOOOOO.....O.....OO....OOOOOOOO....o.OOOOOO.....",
"..........o.OOOOOOOOOO.....OO.....O....OOOOOOOO......OOOOOO.....",
"............OOOOOOOOOO... .OO..........OOOOOOOO......OOOOOO.....",
"......OOOOOOOOOOOOOOOO.....OO.....o....OOOOOOOO....o.OOOOOO.....",
".....OOOOOOOOOOOOOOOOO.....OOO.........OOOOOOOO......OOOOOO.....",
".....OOOOOOOOOOOOOOOOO.....OOO.........OOOOOOOO......OOOOOO.....",
".....OOOOOOOOOOOOOOOOO... .OOOO........OOOOOOOO....o.OOOOO......",
".....OOOOOOOOOOOOOOOOO... .OOOO........OOOOOOOO......OOOOO......",
".....OOOOOOOOOOOOOOOOO... .OOOOO.......OOOOOOOO....o.OOOO......O",
"......OOOOOOOOOOOOOOOO... .OOOOO.......OOOOOOOO......OOO.......O",
"..............OOOOOOOO.....OOOOO.......OOOOOOOO...............OO",
"...............OOOOOOO.....OOOOOO......OOOOOOOOo..............OO",
"...............OOOOOOO...o.OOOOOOO.....OOOOOOOOo.............OOO",
".... ...   ...OOOOOOOO.....OOOOOOO.....OOOOOOOOO..    .....OOOOO",
"OO..OOOOOOOO..OOOOOOOOO..OOOOOOOOOOO..OOOOOOOOOOO.OO.OOOOOOOOOOO",
"OOOOOOOOOOOOOOOOOOOOOOOOOOOOOOOOOOOOOOOOOOOOOOOOOOOOOOOOOOOOOOOO",
"OOOOOOOOOOOOOOOOOOOOOOOOOOOOOOOOOOOOOOOOOOOOOOOOOOOOOOOOOOOOOOOO",
"OOOOOOOOOOOOOOOOOOOOOOOOOOOOOOOOOOOOOOOOOOOOOOOOOOOOOOOOOOOOOOOO",
"OOOOOOOOOOOOOOOOOOOOOOOOOOOOOOOOOOOOOOOOOOOOOOOOOOOOOOOOOOOOOOOO",
"OOOOOOOOOOOOOOOOOOOOOOOOOOOOOOOOOOOOOOOOOOOOOOOOOOOOOOOOOOOOOOOO",
"OOOOOOOOOOOOOOOOOOOOOOOOOOOOOOOOOOOOOOOOOOOOOOOOOOOOOOOOOOOOOOOO",
"OOOOOOOOOOOOOOOOOOOOOOOOOOOOOOOOOOOOOOOOOOOOOOOOOOOOOOOOOOOOOOOO",
"OOOOOOOOOOOOOOOOOOOOOOOOOOOOOOOOOOOOOOOOOOOOOOOOOOOOOOOOOOOOOOOO",
"OOOOOOOOOOOOOOOOOOOOOOOOOOOOOOOOOOOOOOOOOOOOOOOOOOOOOOOOOOOOOOOO",
"OOOOOOOOOOOOOOOOOOOOOOOOOOOOOOOOOOOOOOOOOOOOOOOOOOOOOOOOOOOOOOOO",
"OOOOOOOOOOOOOOOOOOOOOOOOOOOOOOOOOOOOOOOOOOOOOOOOOOOOOOOOOOOOOOOO",
"OOOOOOOOOOOOOOOOOOOOOOOOOOOOOOOOOOOOOOOOOOOOOOOOOOOOOOOOOOOOOOOO",
"OOOOOOOOOOOOOOOOOOOOOOOOOOOOOOOOOOOOOOOOOOOOOOOOOOOOOOOOOOOOOOOO",
"OOOOOOOOOOOOOOOOOOOOOOOOOOOOOOOOOOOOOOOOOOOOOOOOOOOOOOOOOOOOOOOO",
"OOOOOOOOOOOOOOOOOOOOOOOOOOOOOOOOOOOOOOOOOOOOOOOOOOOOOOOOOOOOOOOO",
"OOOOOOOOOOOOOOOOOOOOOOOOOOOOOOOOOOOOOOOOOOOOOOOOOOOOOOOOOOOOOOOO",
"OOOOOOOOOOOOOOOOOOOOOOOOOOOOOOOOOOOOOOOOOOOOOOOOOOOOOOOOOOOOOOOO",
"OOOOOOOOOOOOOOOOOOOOOOOOOOOOOOOOOOOOOOOOOOOOOOOOOOOOOOOOOOOOOOOO",
"OOOOOOOOOOOOOOOOOOOOOOOOOOOOOOOOOOOOOOOOOOOOOOOOOOOOOOOOOOOOOOOO"
};
