/* XPM */
static char *result[] = {
/* columns rows colors chars-per-pixel */
"64 64 174 2 ",
"   c #000000",
".  c #0D0000",
"X  c #150000",
"o  c #1C0000",
"O  c #230000",
"+  c #2A0000",
"@  c #320000",
"#  c #3A0000",
"$  c #450101",
"%  c #4B0101",
"&  c #5D0101",
"*  c #520000",
"=  c #640202",
"-  c #6B0202",
";  c #740202",
":  c #7A0202",
">  c #840303",
",  c #8B0404",
"<  c #930404",
"1  c #9A0404",
"2  c #A30505",
"3  c #AC0505",
"4  c #B30606",
"5  c #BB0707",
"6  c #BB0909",
"7  c #C30707",
"8  c #CE0707",
"9  c #C30808",
"0  c #CA0808",
"q  c #D10101",
"w  c #D40909",
"e  c #DB0A0A",
"r  c #E90404",
"t  c #E40A0A",
"y  c #EC0B0B",
"u  c #FF0101",
"i  c #FF0D01",
"p  c #FF050B",
"a  c #F40C0C",
"s  c #FE0D0D",
"d  c #FF1201",
"f  c #FF110E",
"g  c #FE0313",
"h  c #FF0D13",
"j  c #FE0D1B",
"k  c #EB1111",
"l  c #F51313",
"z  c #FF1313",
"x  c #FF1C1C",
"c  c #FD0D20",
"v  c #FC0F2B",
"b  c #FD1227",
"n  c #FA003A",
"m  c #FB1236",
"M  c #FF2324",
"N  c #FF2B2C",
"B  c #FE2C31",
"V  c #FF3334",
"C  c #FE3A3A",
"Z  c #FA3635",
"A  c #E62323",
"S  c #F4084B",
"D  c #F91143",
"F  c #ED005A",
"G  c #F40F58",
"H  c #FF3F40",
"J  c #EE0F6A",
"K  c #ED036C",
"L  c #F10963",
"P  c #EB0D73",
"I  c #E0007E",
"U  c #FF4D4E",
"Y  c #FE4F51",
"T  c #FF5453",
"R  c #FF5B5B",
"E  c #FF5957",
"W  c #FF674F",
"Q  c #FF6751",
"!  c #FF6463",
"~  c #FF6C6C",
"^  c #FD6669",
"/  c #FE6F72",
"(  c #FE7779",
")  c #FF7B7B",
"_  c #FF7171",
"`  c #0001FF",
"'  c #000DFF",
"]  c #1B0DFD",
"[  c #0014FF",
"{  c #001BFF",
"}  c #1517FF",
"|  c #161AFF",
" . c #1C1BFF",
".. c #3B0EFA",
"X. c #2516FD",
"o. c #2D11FC",
"O. c #2C18FD",
"+. c #3419FB",
"@. c #2020FF",
"#. c #2A27FE",
"$. c #3739FF",
"%. c #5A00F2",
"&. c #4A1EF8",
"*. c #6D0FED",
"=. c #6700EE",
"-. c #4435FC",
";. c #782EEC",
":. c #6728F1",
">. c #5C59FE",
",. c #6450FA",
"<. c #6766FF",
"1. c #6A6CFF",
"2. c #6769FF",
"3. c #7360F9",
"4. c #6F70FF",
"5. c #7576FF",
"6. c #7B7AFF",
"7. c #D70294",
"8. c #E10388",
"9. c #CC0EA9",
"0. c #C10FB6",
"q. c #EE5B88",
"w. c #F25E83",
"e. c #E2559A",
"r. c #D951A7",
"t. c #9505D9",
"y. c #AF0FC7",
"u. c #B50FC2",
"i. c #A13DD8",
"p. c #8306E3",
"a. c #9237E0",
"s. c #8E77F4",
"d. c #FF8383",
"f. c #FE8788",
"g. c #FF8B8B",
"h. c #FF9494",
"j. c #FF9D9D",
"k. c #FFA3A4",
"l. c #FFACAC",
"z. c #FFA7A8",
"x. c #FFB2B2",
"c. c #FFBBBB",
"v. c #8485FE",
"b. c #9E84F1",
"n. c #9494FE",
"m. c #9898FE",
"M. c #A8A8FE",
"N. c #B2B1FE",
"B. c #E2BADE",
"V. c #D9B0E0",
"C. c #FFC4C4",
"Z. c #FFCDCD",
"A. c #FEC7C8",
"S. c #EEC7DC",
"D. c #F1CEDD",
"F. c #FFD3D3",
"G. c #FFDCDB",
"H. c #FFE1DA",
"J. c #C4C4FF",
"K. c #CCCCFE",
"L. c #D5D2FC",
"P. c #D9DAFE",
"I. c #E0DCFA",
"U. c #FFE4E4",
"Y. c #FFEBEB",
"T. c #E4E4FE",
"R. c #EEEAFA",
"E. c #F1EEFB",
"W. c #EDF0FF",
"Q. c #FFF3F3",
"!. c #F1F2FF",
"~. c #FEFEFE",
"^. c #F8F6FD",
"/. c None",
/* pixels */
"/./././././././././././././././././././././././.# # # # # # # # # # # # # # # # /./././././././././././././././././././././././.",
"/./././././././././././././././././././././././.                                /./././././././././././././././././././././././.",
"/./././././././././././././././././././././././.+ + + + + + + + + + + + + + + + /./././././././././././././././././././././././.",
"/././././././././././././././././././././././.> 2 2 2 2 2 1 2 2 2 1 2 1 2 2 2 1 /./././././././././././././././././././././././.",
"/./././././././././././././././.+ + + @ O . O , w t e e t e e e e e e e e t e 9 -   + + + + + /././././././././././././././././.",
"/./././././././././././././././.              > y s z s s s h s s s s s s z s e =               /./././././././././././././././.",
"/./././././././././././././././.X X X X       , a s s s s s s s s s s s s s s e -   X X o o X . /./././././././././././././././.",
"/./././././././././././././././.> < , , > > , 4 a s s s s s s s s s s s s s s t 1 : , , , < , > /./././././././././././././././.",
"/./././././././././././.+ O + < e y y y t t y y s s s s s s s s s s s s s s s a y t y t t y t 0 -   # /././././././././././././.",
"/./././././././././././.      : y s s s s s s s s s s s s s s s s s s s s s s s s s s s s s s e &       /./././././././././././.",
"/./././././././././././.@ +   : y s s s s s s s s s s s s s s s s s s s s s s s s s s s s s s e -   + + /./././././././././././.",
"/././././././././././.> 2 3 2 5 a s s s s s s s s s s s s s s s s s s s s s s s s s s s s s s t 4 2 2 1 /./././././././././././.",
"/./././././././.+   + 1 0 t t y s s s s s s s s s s s s s s s s s s s s s s s s s s s s s s s a t t t 4 : o X $ /./././././././.",
"/./././././././.    + 1 e s s s s s s s s s s s s s s s s s s s s s s s s s s s s s s s s s s s z s s 9 : X   . /./././././././.",
"/./././././././.+   X 2 e s s s s s s s s s s s s s s s s s s s s s s s s s s s s s s s s s s s h s s 0 :     $ /./././././././.",
"/./././././././., , , 6 t s z s s s s s s s s s s s s s s s s s s s s s s s s s s s s s s s s s s s s w 3 > > < /./././././././.",
"/./././.      > e y y a a s s s s s f s s f f s s s s s s s s s s s s s s s s f f f s f f f s s s s s a a y t 9 =   X /././././.",
"/./././..     > y s f s s s s s i p u p p u i p s s s s s s s s s s s s s s s p p u p u p u p i s s s s s s s w =   . o /./././.",
"/./././.      > y s s s s s s s p p p i p i p p s s s s s s s s s s s s s s s s i p s p p i p p s s s s s s s w =   . O /./././.",
"/./././.      > y s s s s s s z M N N N N N N M z s s s s s s s s s s s d p f x M N M N N N N M f p s s s s a w &   . O /./././.",
"/./././..     > t s s s s s s z M M M M M M M x s s s s s s s s s s s s s s s z M M M M M N M x f s s s s s a w &   . O /./././.",
"/./././.      > y s s s s f p u u u u u u u u u s s s s s s s s s s s s f f p u u u u u u u u u s z f p s s a w &   X o /./././.",
"/./././.      > y s s s p u u f N V V N N V V N z u u i p s s s s s s s p s p z N V N V V V V M f u u p s f a w =     o /./././.",
"/./././..     > y s s z f u s U f.h.h.h.h.h.h.) C u z z f s s s s s s z s u x E g.h.h.h.h.h.g.( V u z x f s a w &   X O /./././.",
"/./././.+ X X , y p s M M z N d.G.Q.Y.Y.Y.Q.Y.Z.~ u N N x u s f s p f M x u H h.U.Q.Y.Y.Y.Q.Y.A.R u V N x u a w &   # # /./././.",
"/./././.      : y z f p u u u d.Q.~.~.~.~.~.~.U.~ u u u s f s p s f z p u u u h.Q.~.~.~.~.~.~.G.R u u u z f a q *       /./././.",
"/./././.@ @   ; r z x x M V u ) Y.~.~.~.~.~.~.G.~ u N M x x f p s z z x M N N g.Q.~.~.~.~.~.~.F.~ u N M z x a q -   + + /./././.",
"/././.> 2 4 4 6 l u x ^ h.x.l.C.Q.~.~.~.~.~.~.Y.c.l.x.g.R x s M s u M _ j.x.x.A.Q.~.~.~.~.~.~.U.c.l.l.d.T x l A 6 3 4 1 - /././.",
"O   + 1 8 y y k x u M h.A.U.Y.Y.~.~.~.~.~.~.~.~.Y.Y.U.c.) x s V f u N h.Z.Y.Y.Y.~.~.~.~.~.~.~.Q.Y.U.U.x.~ x z Z t r t 6 ; o X $ ",
"+   + 2 e s s z M u N j.G.~.~.~.~.~.~.~.~.~.~.~.~.~.~.Z.g.M f C z u N l.U.~.~.~.~.~.~.~.~.~.~.~.~.~.~.A.d.x x C z u s 9 : o X $ ",
"O   + 1 e s s z M u N k.H.~.~.~.~.~.~.~.~.~.~.~.~.~.~.F.g.M z C z u N x.U.~.~.~.~.~.~.~.~.~.~.~.~.~.~.A.) x x C z u z 7 : o X $ ",
"O   + 1 e s s z x u N j.G.~.~.~.~.~.~.~.~.~.~.~.~.~.~.Z.g.M z C z u N l.U.~.~.~.~.~.~.~.~.~.~.~.~.~.~.C.( x x C z u s 9 ; o X $ ",
"O   + 1 e a s z x u N j.G.~.~.Q.~.~.~.^.~.^.~.~.~.~.~.Z.g.x f C z u N l.U.~.~.Q.~.^.~.~.^.~.~.~.~.~.~.C.) x x V z u s 6 ; o X $ ",
"O   + 1 e s s z x u N j.G.~.~.~.~.~.~.~.~.~.~.~.~.~.~.Z.g.M z V z u N l.U.~.~.~.~.~.~.~.~.~.~.~.~.~.~.C.) x x Z z u s 9 ; o X $ ",
"O   + 1 w f f z M u M j.G.~.~.~.^.~.~.~.~.^.~.~.~.~.~.Z.f.M z C z u N l.H.~.~.~.~.~.~.~.~.^.~.~.~.~.~.C.) x x C z u s 9 ; o X $ ",
"O   + 1 e s s z x u N j.G.~.~.E.K.J.J.J.J.J.J.P.^.~.~.Z.d.M h C z u N l.U.~.~.R.K.J.J.J.J.J.J.P.^.~.~.C.) x z V z u s 6 ; o X $ ",
"O   + 1 e s s z x u N j.G.~.~.T.m.1.5.6.5.5.5.M.!.~.~.Z.g.M z V z u N z.U.~.~.P.n.<.6.6.5.4.6.N.!.~.~.C.( x x Z z u s 9 ; o X $ ",
"O   + 1 w s s z M u N k.G.~.~.T.1.` @.@. . .` v.W.~.~.F.g.M z C z u V x.U.~.~.P.<.`  .@. .} $.m.!.~.~.A.) x x C z u z 6 ; O X $ ",
"O   + 1 e s f z x u N j.G.~.~.I.<.` ` ` ` ` ` v.R.~.~.A.d.M f C z u N z.U.~.~.L.>.` ` ` ` ` #.n.R.~.Q.C.) x x C z u s 9 ; o X $ ",
"O   + 1 w f s f x i N w.c.H.G.B.3.` '  .| `  .s.S.G.G.l._ x f N s u M g.C.H.F.V.,.` | @.} ` -.b.D.H.G.k.^ z z V z u s 9 ; o X $ ",
"O   + 1 w h f s s p z C T ! ! e.;.' X.+.o.[ O.a.q.W ! Y V h s z s u z U E ! ^ r.:.` O.+.X.[ &.i.w.W ! U B f s x s s a 9 ; o X % ",
"O   + 1 e s s a s z s u u u u I =.{ [ [ [ [ [ p.F u u u u s f u s z p u u u u 7.%.{ [ [ [ { ] t.S u u u u d p u s s s 7 ; o X $ ",
"O   + 1 w s s s s h s p u u u 8.*.[ o.o.o.o.' p.K u u g g f s s s h h p u u n 7.*.[ o.o.o.o...t.K u u g g f s s s s a 7 ; o X $ ",
"O   + 1 e s f s s s s h s d i J 0.u.u.u.u.y.y.9.G d s h h s s s s s s s i d v P 0.u.u.u.u.y.u.9.D i h h j s s s s s s 9 ; o X $ ",
"O   + 1 e s s s s s s h z d d m J P P P P P P L v d z h s s s s s s s h f d z D J P P P P P J G v d z h h s s s s s s 7 ; o X % ",
"O   + 1 w z z s s s s s s s s s j c j j j j j j s s s s s s s s s s s s s h s s c c j j c c j j h s s s s s s s s s s 5 ; o X $ ",
"O   + 1 w s s s s s s s s s s i i i i i i i d i i s s s s s s s s s s s s s s i i i i i i i i i s s s s s s s s s s s 7 ; o X $ ",
"O   + 1 e s s s s s s s s s s h j j j j j j j j s s s s s s s s s s s s s s s h j j j j j j j j s s s s s s s s s s s 7 ; o X $ ",
"O   + 1 e s f s s s s s s s s s h h j h h h j s s s s s s s s s s s s s s s s h h h h h h h h h s s s s s s s s s s s 7 ; o X % ",
"O   + 1 w s s s s s s s s h s s s s s s s s s s s s s s s s s z s f s s s s s s s s s s h s s s s s s s s s s s s s s 5 ; X X $ ",
"O   + 1 w z s s s s s s s s f a s s s s s s s s s s s s s s s s s l s s s s s s s s s s s s s s s s s s s s s s s s a 7 ; o X $ ",
"O   + 1 w s s s s s s y 0 4 6 w a s s s s s s s s s s y 0 4 6 7 5 5 5 w a s s s s s s s s s s y 9 4 6 e a s s s s s s 7 ; o X $ ",
"O   + 1 w z z s s s s e 2 & & 2 y z s s s s s s s s s w 2 & = ; - & - 5 y s h s s s s s s s s e > # ; 9 y s s s s s s 7 ; o X $ ",
"O   + 1 w s s s s s s w 1 +   , y s s s s s s s s s f 0 < +   o o   # 3 t s s s s s s s s s s e -   # 5 y z s s s s s 5 ; o X % ",
"O   + 1 e s s s a s a w , .   > y s a a s s s s a s a 0 > .   X     o 3 t a s a s s s s a a a w &   O 3 t s a a s s s 7 ; o X $ ",
"O   + 1 w z s a e w e 6 , O   , 9 w w t y s s a e w w 5 > O O # X   + 1 9 e w e s s s y e w 0 5 =   + 2 0 e w t s s s 9 ; o X $ ",
"O   + 1 e s s t > % = = /./././.& & = 3 t s s e > % = = /./././././././.= = = 2 a s s 0 < = & = /./././.& = - 3 y s s 7 - o X $ ",
"+   + 2 e s z t =       /./././.      2 e z s t *       /./././././././.      , a s s 9 ;       /./././.    . 1 a z s 9 : o X $ ",
"O   + 2 e s s t :     X /./././.o   + 2 t s s e ;     X /./././././././.    # 1 a z s 0 > O X $ /./././.    % 2 y s s 9 : o X $ ",
"O /./., 4 6 9 4 ; /./././././././././.< 4 7 6 3 = /././././././././././././.# > 4 9 6 2 : /././././././././.% , 5 0 5 1 - /././.",
"/./././.= ; - = /./././././././././././.= ; - = /./././././././././././././././.- ; - = /./././././././././././.- ; = = /./././.",
"/./././.o o O X /./././././././././././.o O o X /./././././././././././././././.X o X o /./././././././././././.X O o X /./././.",
"/./././.        /./././././././././././.        /./././././././././././././././.      /././././././././././././.      /././././.",
"/./././.+ o + + /./././././././././././.O + O + /./././././././././././././././.O O + /././././././././././././.O + + /././././."
};
