/* XPM */
static char *result[] = {
/* columns rows colors chars-per-pixel */
"64 64 197 2 ",
"   c #000000",
".  c #0D0000",
"X  c #0E040B",
"o  c #150000",
"O  c #1C0000",
"+  c #120D0E",
"@  c #00110F",
"#  c #240000",
"$  c #2A0000",
"%  c #23000D",
"&  c #330000",
"*  c #390000",
"=  c #35050E",
"-  c #440101",
";  c #4F0101",
":  c #5D0202",
">  c #520101",
",  c #5E1616",
"<  c #640202",
"1  c #6B0202",
"2  c #610C0C",
"3  c #750202",
"4  c #7B0202",
"5  c #7D020C",
"6  c #691212",
"7  c #791212",
"8  c #602C2D",
"9  c #1E015F",
"0  c #0A0D5F",
"q  c #7D035F",
"w  c #46365F",
"e  c #5F4A4A",
"r  c #5C5A61",
"t  c #5F6161",
"y  c #636663",
"u  c #830303",
"i  c #8B0303",
"p  c #930404",
"a  c #9B0404",
"s  c #881414",
"d  c #8A0310",
"f  c #A20404",
"g  c #AA0505",
"h  c #A6050D",
"j  c #B20606",
"k  c #BC0707",
"l  c #BC070B",
"z  c #BD0A0A",
"x  c #A81313",
"c  c #872828",
"v  c #B93636",
"b  c #C30707",
"n  c #C40809",
"m  c #CB0808",
"M  c #C80707",
"N  c #D40909",
"B  c #DC0A0A",
"V  c #D50704",
"C  c #C91919",
"Z  c #C51919",
"A  c #D41A1A",
"S  c #DC1717",
"D  c #CE0914",
"F  c #E40B0B",
"G  c #EC0B0B",
"H  c #FF0201",
"J  c #FF0B02",
"K  c #F30C0C",
"L  c #FE0D0D",
"P  c #F50000",
"I  c #FF1508",
"U  c #FD0E12",
"Y  c #FB0E18",
"T  c #FF1313",
"R  c #FF1B14",
"E  c #FF1B1B",
"W  c #FF151A",
"Q  c #EC1A1A",
"!  c #FF221E",
"~  c #FF1F23",
"^  c #FD1E28",
"/  c #FB1339",
"(  c #FD0E26",
")  c #FF2425",
"_  c #FF2729",
"`  c #FF2C2C",
"'  c #FF2F30",
"]  c #FF3333",
"[  c #FF3B3B",
"{  c #C1095E",
"}  c #EF0E5F",
"|  c #F30E59",
" . c #EE0C69",
".. c #EF1369",
"X. c #F11062",
"o. c #EC1273",
"O. c #F43D68",
"+. c #C64A4A",
"@. c #FF4242",
"#. c #FF4D4E",
"$. c #FF5454",
"%. c #FF5C5C",
"&. c #FF615D",
"*. c #D86465",
"=. c #FE6262",
"-. c #FF6B6B",
";. c #FD6369",
":. c #FF746C",
">. c #FC6F70",
",. c #FF7474",
"<. c #FF7B7B",
"1. c #F77476",
"2. c #FF877E",
"3. c #0800D1",
"4. c #2928D0",
"5. c #0000FF",
"6. c #0405FC",
"7. c #1908FC",
"8. c #0114FF",
"9. c #1916FE",
"0. c #2207F9",
"q. c #2819FD",
"w. c #3914FB",
"e. c #3201FA",
"r. c #0D38FF",
"t. c #2B28FE",
"y. c #3636FE",
"u. c #3B35FB",
"i. c #5304D0",
"p. c #4815F6",
"a. c #7509E9",
"s. c #6212F0",
"d. c #6930F1",
"f. c #7E7BD0",
"g. c #4E51FF",
"h. c #5D5FFF",
"j. c #5558FF",
"k. c #474AFF",
"l. c #6A4FF6",
"z. c #6263FF",
"x. c #6C6CFF",
"c. c #7374FF",
"v. c #DE0089",
"b. c #DA1A8E",
"n. c #DB58A5",
"m. c #DC68AC",
"M. c #8F00D9",
"N. c #8812D7",
"B. c #9A12D7",
"V. c #9506D8",
"C. c #A312D0",
"Z. c #AE11C7",
"A. c #9A29D8",
"S. c #FE8585",
"D. c #FF8E8E",
"F. c #FF9494",
"G. c #FF9C9C",
"H. c #CFA5A6",
"J. c #FFA3A3",
"K. c #FFABAB",
"L. c #FFB3B2",
"P. c #FFBABA",
"I. c #EBA7A7",
"U. c #FFC2BD",
"Y. c #8989FE",
"T. c #8E94FF",
"R. c #9898FE",
"E. c #9796FC",
"W. c #AAAAFF",
"Q. c #C080D8",
"!. c #DCA8D6",
"~. c #D4D7D4",
"^. c #C6C7D2",
"/. c #FFC3C3",
"(. c #FFC7C8",
"). c #FECACA",
"_. c #FAC6C4",
"`. c #FED3D3",
"'. c #FFDBDB",
"]. c #F5CEDA",
"[. c #FFE3DF",
"{. c #CFD1FF",
"}. c #D3D3FF",
"|. c #DBDBFE",
" X c #E1DAF9",
".X c #FFE4E4",
"XX c #FFEBEB",
"oX c #E3E3FF",
"OX c #ECECFB",
"+X c #F2EEFB",
"@X c #EFF1FF",
"#X c #FFF3F3",
"$X c #F2F1FE",
"%X c #F7F8FF",
"&X c #FEFEFE",
"*X c #F6F5F5",
"=X c None",
/* pixels */
"=X=X=X=X=X=X=X=X=X=X=X=X=X=X=X=X=X=X=X=X=X=X=X=X=X- - - - - - - - - - - - - - - =X=X=X=X=X=X=X=X=X=X=X=X=X=X=X=X=X=X=X=X=X=X=X=X",
"=X=X=X=X=X=X=X=X=X=X=X=X=X=X=X=X=X=X=X=X=X=X=X=Xo o o O o o o o o O o o O o o o =X=X=X=X=X=X=X=X=X=X=X=X=X=X=X=X=X=X=X=X=X=X=X=X",
"=X=X=X=X=X=X=X=X=X=X=X=X=X=X=X=X=X=X=X=X=X=X=X=XO O O O O O O O O O O O O O # O =X=X=X=X=X=X=X=X=X=X=X=X=X=X=X=X=X=X=X=X=X=X=X=X",
"=X=X=X=X=X=X=X=X=X=X=X=X=X=X=X=X=X=X=X=X=X=X=X=X3 3 4 3 3 3 3 3 3 3 3 3 3 3 3 3 =X=X=X=X=X=X=X=X=X=X=X=X=X=X=X=X=X=X=X=X=X=X=X=X",
"=X=X=X=X=X=X=X=X=X=X=X=X=X=X=X=X=XO # # # o   < g b M n b b n n b b b b n b b k u &   & & O O =X=X=X=X=X=X=X=X=X=X=X=X=X=X=X=X=X",
"=X=X=X=X=X=X=X=X=X=X=X=X=X=X=X=Xo . . o o     < B K L K L K K L K L K L L L L G p &   # $ . . o =X=X=X=X=X=X=X=X=X=X=X=X=X=X=X=X",
"=X=X=X=X=X=X=X=X=X=X=X=X=X=X=X=X              > B L L L L L L L L L L L T L L K i               =X=X=X=X=X=X=X=X=X=X=X=X=X=X=X=X",
"=X=X=X=X=X=X=X=X=X=X=X=X=X=X=X=X: < < < : : - u B L L L L L L L L L L L L L L K f < : : : < < : =X=X=X=X=X=X=X=X=X=X=X=X=X=X=X=X",
"=X=X=X=X=X=X=X=X=X=X=X=X=X-   1 k m V V N N m B K L L L L L L L L L L L L L L K F V m N N N N M i - . - =X=X=X=X=X=X=X=X=X=X=X=X",
"=X=X=X=X=X=X=X=X=X=X=X=X=Xo   < V G L K K K K L L L L L L L L L L L L L L H L L L K L K L K L F u     o =X=X=X=X=X=X=X=X=X=X=X=X",
"=X=X=X=X=X=X=X=X=X=X=X=X=XO   < V L L L L L L L L L L L L L L L L L L L L L L L L L L L L L U G u   O O =X=X=X=X=X=X=X=X=X=X=X=X",
"=X=X=X=X=X=X=X=X=X=X=X=X7 s 7 s S E R W U L L L L L L L L L L L L L L T W R W R W E W T T L L K g 4 3 4 =X=X=X=X=X=X=X=X=X=X=X=X",
"=X=X=X=X=X=X=X=X=X  O 1 x Z Z C Q E E E W L L L L L L L L L L L L L L T W E E E R E E R T L L K B M n k a $   =X=X=X=X=X=X=X=X=X",
"=X=X=X=X=X=X=X=X#   O 1 z W T T T T W T L L L T L L L L L L L L L L L U T T W T T W W T T L L L K L K F g $   * =X=X=X=X=X=X=X=X",
"=X=X=X=X=X=X=X=X      : k H H H H H H H H J H H H L L L L L L L H J H H H H H H H H H H H H H H J L T F f       =X=X=X=X=X=X=X=X",
"=X=X=X=X=X=X=X=X, : < c +.=.=.&.&.=.=.%.@.L H E T L L L L L L T T H L ' #.=.=.%.&.=.=.$.[ L L E U L L F j 1 : < =X=X=X=X=X=X=X=X",
"=X=X=X=X=Xo   , v A A *.I.'.'.`.`.'.'.(.F.) E @.) L H L L L J E ' W E -.K.'.'.`.`.'.'./.D.) ) @.) H L K G B V M u o   =X=X=X=X=X",
"=X=X=X=X=XX   2 A P H &.P.#X&X*X#X&X&X.XL.E H ) L L U L L L T W R H H ,.(.&X&X#X&X&X#X[.J.T H _ L H T L K L L F i o   $ =X=X=X=X",
"=X=X=X=X. o @ 2 B J ` =.P.&X&X&X&X&X&XXXP.[ H E L L W L H T T W E H ] <./.&X&X&X&X&X&X.XK.[ H E L L W L L L L K i O   $ =X=X=X=X",
"=X=X=X=X. .   8 *.2.m.F.).&X&X&X&X&X&X#X(.<.<.<.#.E J T T H H ] -.,.<.G.`.&X&X&X&X&X&X.XP.<.<.<.@.T H T T L L F i O   $ =X=X=X=X",
"=X=X=X=X=X+   e H.P._.`..X&X&X&X&X&X&X&X[./.).P.<.] H E E H H $.K./.).`.XX&X&X&X&X&X&X#X'.(.(.P.,.E H E ) L L F i o   $ =X=X=X=X",
"=X=X=X=X=X+   t ~.*X&X&X&X&X&X&X&X&X&X&X&X&X&X#XG.@.H ) ` H H -.'.#X&X&X&X&X&X&X&X&X&X&X&X&X&XXXD.) H ) ` H L F u O   $ =X=X=X=X",
"=X=X=X=X=X@   y ~.&X&X&X&X&X&X&X&X&X&X&X&X&X&X#XG.@.H ) ` H H -.[.&X&X&X&X&X&X&X&X&X&X&X&X&X&X#XF.` H ) ` L H G i o   $ =X=X=X=X",
"=X=X=X=X+ +   r ^.OX$X$X@X@XOXOX%X&X&X&X&X&X&X#XG.@.H ) ` H H ;.].+X@X@X$X$X$X$X&X&X&X&X&X&X&XXXD.) H ) ` J H F i O   $ =X=X=X=X",
"=X=X=X=X= = # w f.E.E.E.E.E.T.W.oX&X&X&X&X&X&XXXG.@.H ) _ H H O.Q.E.T.R.R.E.T.W.oX&X&X&X&X&X&X.XD.) H ) ` L H G i &   * =X=X=X=X",
"=X=X=X=X=XX   0 4.u.y.y.y.y.5.x.}.%X&X&X&X&X&X#XG.@.H ~ _ J H ..A.u.r.u.u.t.5.c.|.&X&X&X&X&X&XXXD.) H ) _ H L G 5     . =X=X=X=X",
"=X=X=X=X=X% # 9 3.5.6.5.5.5.5.h.}.%X&X&X&X&X&X#XG.@.H ~ _ J J  .M.0.5.5.5.5.5.z.|.%X&X&X&X&X&XXXD.) H ) ` H L F 4   # # =X=X=X=X",
"=X=X=X=X5 d p q i.0.6.6.7.8.5.h.}.%X&X&X&X&X&X#XG.[ H ~ ) J H  .V.e.5.9.0.5.5.x.|.&X&X%X%X&X&XXXD._ H ) ` L H G g u u u =X=X=X=X",
"=X  O < h D V { N.w.8.9.q.9.5.z.}.%X&X&X&X&X&X#XG.@.H ~ _ J J  .B.w.8.t.t.5.5.c.|.&X&X&X&X&X&X.XD._ H ) ` H H K B N M k a &   * ",
"#   O 1 l Y J } Z.p.8.9.9.8.5.h.}.%X&X&X&X&X&XXXG.@.H ~ _ J J  .B.w.8.q.q.5.5.c.|.&X&X&X&X&X&XXXD.) H _ ` L L L L L K F f $   * ",
"#   O 1 l Y J X.B.w.8.5.5.5.5.k.}.%X&X&X&X&X&X&XJ.@.H ) _ J H  .N.8.8.6.5.5.5.h.}.&X&X&X&X&X&X#XF.) H ) ` H H L L T L F g $   * ",
"#   O < l Y J | Z.a.s.d.l.z.g.Y.|.%X&X&X#X#X#X.XF.[ H E _ J J X.C.a.s.d.l.z.j.Y.oX&X&X%X#X#X#X'.S.) H ) _ J L L L L T B f $   * ",
"#   O < k T J / o.v.b.n.!.|.|.|.+X&X&XXX(.D.D.D.%.E H T E J J / o.v.b.m.!.|.|. X$X&X&XXX/.S.D.D.#.L H W E L L L L L L B f #   * ",
"#   O < k K J T _ H E >.P.&X&X&X&X&X&X#XL.) H ] E H L L L J T E ( H ) S.).%X%X&X&X&X&X.XK.L H [ E H J L L L L L L L L B f $   * ",
"#   O < k L U T I H R :.U.&X&X&X&X&X&XXXP.' H H H L T L J L T T J H ! 2.(.&X&X&X&X&X&XXXL.` H L H L T L L L L L L L L B a $   * ",
"#   O < b K L L R H R %.K.[..X.X[..X.X`.J.) H E L H L L L L T T L H R :.L..X.X[.'..X.X).F.) H ) L H L L L L L L L L L B f $   * ",
"#   O < k K L T W H W @.<.K.K.J.J.K.K.G.,.E H ) T L L L L L L T U H W #.S.K.K.J.J.K.K.F.-.E L _ T H L L L L L L L L L B f $   & ",
"#   O < z K L L L L W T E ` ` ` ` ` ` ` ~ E T L L L L L L L L L L L W T ! ' ` ` ` ` ` ) ! E T U L U L L L L L L L L T B f $   * ",
"#   O < k T L L L L L H H H H H H H H H H L L L L L L L L L L L L T L H H H H H H H H H H T L H L L L L L L L L L L L B f $   * ",
"#   O < k L L L L L L K L L L L L L L L L L L L L L L L L L L L L L L L L L L L L L L L L L L L L L L L L L L L L L L B a $   * ",
"#   O < k K T L L L L L T R T T T W W T L L L L L L L L L L L L L L L L T W W T T R T T U L L L L L L L L L L L L T L B f $   * ",
"#   O < k L L L L L L L U T T T T L T U L L L L L L L L L L L L L L L L U U T T T T T T L L L L L L L L L L L L L L T B f #   * ",
"#   O < k T L L L L L L L L L J L L L L L L L L L L L L L L L L L L L L J L L L L J L L L L L L L L L L L L L L L L L B f $   * ",
"#   O < k K L L L L L L L L L L L L L J L L L L L L L L L L L L L L L L L L L L L L L L L L L L L L L L L L L L L L L B f $   & ",
"#   O < k K L L L L L L L L L L L L L L L L L L L L L L L L L L L L L L L L L L L L L L L L L L L L L L L L L L L L T B f $   * ",
"#   O < z L L L L L L L L L L L L L L L L L L L L L L L L L L L L L L L L L L L L L L L L L L L L L L L L L L L L L K B a $   * ",
"#   O < z L T L L L L L L L L L L L L L L L L L L L L L L L L L L L L L L L L L L L L L L L L L L L L L L L L L L L L B f $   * ",
"#   O < k K L L L L L L L L L L L L L L L L L L L L L L L L L L L L L L L L L L L L L L L L L L L L L L L L L L L T L B f $   & ",
"#   O < k L L L L L L L L L K L L L L L L L L L L L L L L K L L L L L L L L L L T L L L L L L L L L K T L L L L L L T B f $   * ",
"#   O < k T L L L L L L L T L L L L L L L L L L L L L L L L T L L L L K L L L L L L L L L L L L L L L L L L L L L L L B a $   & ",
"#   O < z K L L L L L L L K L T L L L L L L L L L L L L L L T L T L L T L L L L L L L L L L L L L L L L L L L L L T L B f $   * ",
"#   O < b K L L L L L K G B N F K L L L L L L L L L L K G N B B B N B F K L L L L L L L L L L L F N B F K L L K L L L B f $   * ",
"#   O < k L L L L L L K N a p g F K L L L L L L L L L G N a a f f a a j B L L L L L L L L L L K z a a k F L L L L L L B a $   * ",
"#   O < b K T K L L L G k -   1 N L L L L L L L L T L G j *   $ $ o * 4 b T L K L L L L L L L G u   & i m L T K L L L B f $   & ",
"#   O < z L L L L T L K k o   : B K L L L L L L L L L G j .           4 m L L L L L L L L L L G u     i N L L L L L K F f $   * ",
"#   O < z K L L K G G B g &   < n F K G K L T K K G G B g &   * #   # 4 b G G G K L L K K G G B i   # i M G G G L T L B f $   * ",
"#   O < b K T K k i 4 4 u =X=X=Xu 4 4 a N L L K k i 3 u u =X=X=X=X=X=X=X4 u 3 a F L L F k 3 4 i =X=X=X=X4 5 4 f F L L B a #   * ",
"#   O 1 k L L K f -     =X=X=X=X      1 b L L K a $     =X=X=X=X=X=X=X=X      1 F L T F f     # =X=X=X=X      4 F L T B f $   * ",
"#   O 3 b K L K f >       =X=X=X    O 4 b L T G a -     =X=X=X=X=X=X=X=X      1 F L L F g &   O =X=X=X=X      4 G T K F g $   * ",
"#   O < j B F N a >     =X=X=X=X=X  O 1 j B F N p -   o =X=X=X=X=X=X=X=X=X    1 n B F M a $   & =X=X=X=X=X    3 M F F M a $   * ",
"=X=X=X=Xi f g a u =X=X=X=X=X=X=X=X=X=X=Xp f g p 4 =X=X=X=X=X=X=X=X=X=X=X=X=X=X=Xp a g a 5 =X=X=X=X=X=X=X=X=X=X=Xp f f a 4 =X=X=X",
"=X=X=X=X=X$ & $ =X=X=X=X=X=X=X=X=X=X=X=X$ $ $ $ =X=X=X=X=X=X=X=X=X=X=X=X=X=X=X=X$ $ $ $ =X=X=X=X=X=X=X=X=X=X=X=X$ $ $ $ =X=X=X=X",
"=X=X=X=X=X      =X=X=X=X=X=X=X=X=X=X=X=X        =X=X=X=X=X=X=X=X=X=X=X=X=X=X=X=X        =X=X=X=X=X=X=X=X=X=X=X=X        =X=X=X=X",
"=X=X=X=X# # # # =X=X=X=X=X=X=X=X=X=X=X=X# $ # # =X=X=X=X=X=X=X=X=X=X=X=X=X=X=X=X# # # # =X=X=X=X=X=X=X=X=X=X=X=X# # # # =X=X=X=X"
};
