/* XPM */
static char *result[] = {
/* columns rows colors chars-per-pixel */
"64 64 198 2 ",
"   c #000000",
".  c #0D0101",
"X  c #010A0A",
"o  c #050709",
"O  c #150000",
"+  c #1C0000",
"@  c #170C0D",
"#  c #1F1619",
"$  c #230000",
"%  c #2A0000",
"&  c #2D000D",
"*  c #310000",
"=  c #3A0000",
"-  c #30030F",
";  c #221C1E",
":  c #000021",
">  c #2F0022",
",  c #300720",
"<  c #1C2222",
"1  c #232121",
"2  c #450101",
"3  c #4B0101",
"4  c #5D0101",
"5  c #5E1C1C",
"6  c #640202",
"7  c #6C0202",
"8  c #620A0A",
"9  c #740202",
"0  c #7A0303",
"q  c #75090F",
"w  c #760215",
"e  c #68021D",
"r  c #5E3C3E",
"t  c #00005F",
"y  c #3C255F",
"u  c #2C0160",
"i  c #59545B",
"p  c #5E6162",
"a  c #626361",
"s  c #840303",
"d  c #8B0404",
"f  c #840D0D",
"g  c #940404",
"h  c #9A0404",
"j  c #98041C",
"k  c #A20404",
"l  c #AC0505",
"z  c #B30606",
"x  c #BB0706",
"c  c #B40D17",
"v  c #952424",
"b  c #A62A2A",
"n  c #B42929",
"m  c #C30707",
"M  c #C30809",
"N  c #CA0808",
"B  c #CA0707",
"V  c #D40808",
"C  c #DB0A0A",
"Z  c #D80303",
"A  c #C40818",
"S  c #CA1616",
"D  c #E40B0B",
"F  c #EB0B0B",
"G  c #FF0101",
"H  c #FF0C01",
"J  c #F40C0C",
"K  c #FE0D0D",
"L  c #FB0408",
"P  c #FF1400",
"I  c #FF110B",
"U  c #FF1B06",
"Y  c #FE0011",
"T  c #FD0D13",
"R  c #FF1313",
"E  c #FE141B",
"W  c #FF1B1C",
"Q  c #FF1817",
"!  c #E91318",
"~  c #FF2300",
"^  c #FF3600",
"/  c #FF201F",
"(  c #FF3B10",
")  c #FD122A",
"_  c #D52323",
"`  c #E42626",
"'  c #FF2424",
"]  c #FF2A2A",
"[  c #FA2626",
"{  c #FF332D",
"}  c #FF3535",
"|  c #FF3934",
" . c #FF3A3A",
".. c #AB085E",
"X. c #DE0C5F",
"o. c #F50F57",
"O. c #EF0866",
"+. c #F00D66",
"@. c #EE1B68",
"#. c #F42D65",
"$. c #F33362",
"%. c #A94242",
"&. c #C64545",
"*. c #FF4041",
"=. c #FF4B4B",
"-. c #FF5C5C",
";. c #FF605E",
":. c #FB5766",
">. c #D86E6E",
",. c #FF6262",
"<. c #FF6B6A",
"1. c #FF7474",
"2. c #FF7B7C",
"3. c #F07575",
"4. c #FF806E",
"5. c #FF807C",
"6. c #0000D2",
"7. c #1900D3",
"8. c #0000FE",
"9. c #1308FD",
"0. c #0012FF",
"q. c #0019FF",
"w. c #3614F9",
"e. c #2A12FC",
"r. c #1E23FF",
"t. c #2C2BFF",
"y. c #2525FE",
"u. c #3124FD",
"i. c #3935FE",
"p. c #7313D0",
"a. c #4F0DF5",
"s. c #5E5AD2",
"d. c #5D5EFF",
"f. c #5659FF",
"g. c #4B4CFF",
"h. c #6363FF",
"j. c #6C6DFD",
"k. c #6E71FF",
"l. c #6270FF",
"z. c #7172FF",
"x. c #706EFC",
"c. c #BD20BB",
"v. c #C422B3",
"b. c #EE7699",
"n. c #8D07DC",
"m. c #990AD5",
"M. c #9414DA",
"N. c #9216D2",
"B. c #A310D0",
"V. c #870AE1",
"C. c #AB5EDB",
"Z. c #954DE3",
"A. c #9979F0",
"S. c #D0898D",
"D. c #FF8484",
"F. c #FF8B8A",
"G. c #FF9081",
"H. c #FF9393",
"J. c #FF9A9A",
"K. c #FE8F93",
"L. c #F79FA4",
"P. c #D1BFBF",
"I. c #FFA2A2",
"U. c #FFACAC",
"Y. c #FEA7AB",
"T. c #FFB2B2",
"R. c #FBB9BA",
"E. c #B4B4D2",
"W. c #8C91FF",
"Q. c #9595FE",
"!. c #8687FF",
"~. c #A8A9FE",
"^. c #F1BBCE",
"/. c #D5DAD7",
"(. c #FFC5C5",
"). c #FFC9CA",
"_. c #FFCEC5",
"`. c #FFD2CF",
"'. c #FFD4D4",
"]. c #FFDBDC",
"[. c #F7DDDE",
"{. c #EFC0D4",
"}. c #FFE5DF",
"|. c #D4D5FF",
" X c #DCDCFE",
".X c #D9E0FF",
"XX c #FEE3E3",
"oX c #FFEBEB",
"OX c #FFE8E8",
"+X c #FFF0EF",
"@X c #E2E2FF",
"#X c #ECEBFC",
"$X c #F5EFF8",
"%X c #EDF2FF",
"&X c #FFF2F2",
"*X c #FEFEFE",
"=X c #F7F5FB",
"-X c None",
/* pixels */
"-X-X-X-X-X-X-X-X-X-X-X-X-X-X-X-X-X-X-X-X-X-X-X-X= = = = = = = = = = = = = = = = -X-X-X-X-X-X-X-X-X-X-X-X-X-X-X-X-X-X-X-X-X-X-X-X",
"-X-X-X-X-X-X-X-X-X-X-X-X-X-X-X-X-X-X-X-X-X-X-X-X                                -X-X-X-X-X-X-X-X-X-X-X-X-X-X-X-X-X-X-X-X-X-X-X-X",
"-X-X-X-X-X-X-X-X-X-X-X-X-X-X-X-X-X-X-X-X-X-X-X-X% % % % % % % % % % % % % % % % -X-X-X-X-X-X-X-X-X-X-X-X-X-X-X-X-X-X-X-X-X-X-X-X",
"-X-X-X-X-X-X-X-X-X-X-X-X-X-X-X-X-X-X-X-X-X-X-Xs h l k k k h k k k h k h k k k h -X-X-X-X-X-X-X-X-X-X-X-X-X-X-X-X-X-X-X-X-X-X-X-X",
"-X-X-X-X-X-X-X-X-X-X-X-X-X-X-X-X% % % % $ . $ d V D C C D C C C C C C C D C C N 6   % % % % % -X-X-X-X-X-X-X-X-X-X-X-X-X-X-X-X-X",
"-X-X-X-X-X-X-X-X-X-X-X-X-X-X-X-X              s F K K K K K R K K K K K K K K C 6               -X-X-X-X-X-X-X-X-X-X-X-X-X-X-X-X",
"-X-X-X-X-X-X-X-X-X-X-X-X-X-X-X-XO + O +       d J K R K K K K K K K K K K R K C 7   + + $ + O . -X-X-X-X-X-X-X-X-X-X-X-X-X-X-X-X",
"-X-X-X-X-X-X-X-X-X-X-X-X-X-X-X-Xs d d d s s s z J K K K K K K K K K K K K K K D h 0 s d d d d s -X-X-X-X-X-X-X-X-X-X-X-X-X-X-X-X",
"-X-X-X-X-X-X-X-X-X-X-X-X% $ % g C F F F D D F J I I I I K K K K K K K K K K K J F D D F F F F N 6   = -X-X-X-X-X-X-X-X-X-X-X-X-X",
"-X-X-X-X-X-X-X-X-X-X-X-X      0 F K K K K G L H L G L L K K K K K K K K K K K K K K K K L L H Z 4   o o -X-X-X-X-X-X-X-X-X-X-X-X",
"-X-X-X-X-X-X-X-X-X-X-X-X% %   0 F K K K L L L L L L L K K K K K K K K K K K K K I K K K K L L Z 7 o % * -X-X-X-X-X-X-X-X-X-X-X-X",
"-X-X-X-X-X-X-X-X-X-X-Xs k l k x J K K Q ' ] { ] ] { ] ' R L K K K K K K K K K K K L K Q [ ] ] ` n b b v -X-X-X-X-X-X-X-X-X-X-X-X",
"-X-X-X-X-X-X-X-X*   $ h N D D D K K K Q ' ' ] ' ' ] ' W R K K K K K K K K K K K K K K Q ' ] ' [ ` _ ` c q @ @ 2 -X-X-X-X-X-X-X-X",
"-X-X-X-X-X-X-X-X    % k D K K K K R R G G G G G G G G G L Q R K K K K K K K K K I R R G G G G G G G G B 0 @ o . -X-X-X-X-X-X-X-X",
"-X-X-X-X-X-X-X-X%   O k C K K K G L K R W ] ] ' ' ' ] Q I I L G K I K K K K K K G G K R ' ] ] ' ' ] [ S 0 X   2 -X-X-X-X-X-X-X-X",
"-X-X-X-X-X-X-X-Xd d s x F K K R R G R -.2.H.H.F.K.H.H.1.=.K I / T L K K K K R R T G R -.D.F.H.F.K.H.F.>.%.f f v -X-X-X-X-X-X-X-X",
"-X-X-X-X      s C F F J J K K / | G ' J.`.oXoXOXoXoXoX(.2./ ] *.Q G K I K L Q ' ] G } I.'.+XOXXXoX+XOXR.3.! ` &.5 o . -X-X-X-X-X",
"-X-X-X-X      s F K K K K K K L G G G I.XX*X*X*X*X*X*X'.D.G G ) K G T K K K R K G G K U.oX*X*X*X*X*X*X_.1.G G _ 8 o O + -X-X-X-X",
"-X-X-X-X      s F K K K K R L K ' G  .I.].*X*X*X*X*X*X).D.| I ' K G K K K R K R ] G  .U.XX*X*X*X*X*X*XR.3.| R _ 4   . $ -X-X-X-X",
"-X-X-X-X      s F K K R K G G -.J.U.U.).oX*X*X*X*X*X*X[.^.Y.I.H.*.G K R K G ' ,.J.U.U.'.+X*X*X*X*X*X*X[.R.Y.I.S.r o . # -X-X-X-X",
"-X-X-X-X.     s F K K R L G G 2.'.OXXXoX&X*X*X*X*X*X*X=XOXXXXX(.-.G K Q K G } D.].oXXXoX*X*X*X*X*X*X*X&XOXXX[.P.i   @ 1 -X-X-X-X",
"-X-X-X-X      s F K K R L G G F.oX*X*X*X*X*X*X*X*X*X*X*X*X*X*X}.<.G K W R G  .J.oX*X*X*X*X*X*X*X*X*X*X*X*X*X=X/.a o @ 1 -X-X-X-X",
"-X-X-X-X      s F K I Q K G G F.&X*X*X*X*X*X*X*X*X*X*X*X*X=X*XXX<.G L W R G  .J.&X*X*X*X*X*X*X*X*X*X*X*X*X*X*X/.p o X < -X-X-X-X",
"-X-X-X-X.     s F K K R L G G F.oX*X*X*X*X*X*X=X.X X|. X.X.X|.^.:.G K Q T G | J.&X*X*X*X*X*X*X%X X|. X|. X@X|.E.i   @ # -X-X-X-X",
"-X-X-X-X% O + d F K K R K G G F.oX*X*X*X*X*X*X@XQ.d.j.z.k.l.x.C.#.G K R Y G | J.&X*X*X*X*X*X=X X!.f.z.z.x.x.x.s.y $ - > -X-X-X-X",
"-X-X-X-X      9 F K R R L G G D.oX*X*X*X*X*X*X Xd.8.8.8.8.8.8.n.O.P I E Y G | J.&X*X*X*X*X*X=X|.g.8.8.8.8.8.8.6.t o o : -X-X-X-X",
"-X-X-X-X% *   9 F K K R K G G F.oX*X*X*X*X*X*X Xh.8.8.8.8.8.9.n.O.H K E Y G } J.+X*X*X*X*X*X=X|.h.8.8.8.8.8.8.7.u * & > -X-X-X-X",
"-X-X-Xs l z z x J K R R L G G F.oX*X*X*X*X*X*X Xz.8.y.t.y.0.e.M.+.H I E Y G } J.+X*X*X*X*X*X*X|.h.8.t.u.y.0.w.p...x l j e -X-X-X",
"$   % h V F F F J K K R K G G D.oX*X*X*X*X*X*X@Xz.8.r.t.r.q.e.M.+.H I E Y G | J.&X*X*X*X*X*X=X|.h.8.t.t.r.q.w.N.X.L D c w + O 2 ",
"$   % k C K K K K K R R L G G F.&X*X*X*X*X*X*X Xh.8.8.8.8.q.0.V.+.H I E Y G  .J.&X*X*X*X*X*X=X|.d.8.8.8.0.q.w.m.+.G ) A w + O 2 ",
"$   % h C K R K K K K R K G G D.oX*X*X*X*X*X*X Xz.8.i.i.u.e.e.M.+.P I E Y G } J.oX*X*X*X*X*X=X|.j.8.i.i.e.9.a.B.o.H E A w + O 2 ",
"$   % h V K K K K K K R L G G 1.(.].'.OX&X*X*X#X~.Q.Q.A.Z.M.m.c.o.H K E L G { b.`.].'.oX&X*X*X@X~.W.Q.A.Z.N.m.c.o.H T A w + O 2 ",
"$   % h V T K T K K K K K L K | ,.;.<.U.XX*X*X&X#X%X%X{.K.@.O.$.) G I R K G / *.-.-.<.R.OX*X*X&X#X%X#X^.b.@.@.$.) G T x 9 + O 2 ",
"$   $ h C I K J K K K K K K R G G G G I.XX*X*X*X*X*X*X`.F.~ G ^ P L K K K L R G G G G U.oX*X*X*X*X*X*X_.1.~ U ( P G I m 9 + O 2 ",
"$   % h C I I K K K K K K K T K G G ] Y.].*X*X*X*X*X*X).F.[ H { I G K K K K R Q G G { T.OX*X*X*X*X*X&X).5./ U | I G K m 9 + O 2 ",
"$   % h V T K K K K K K K K K R R G W D.U.(.).(.(.).(.I.<.E G ] T L K K K K R R K G ' F.T.).(.(.(.).(.J.,.R R ] R L K m 9 + O 2 ",
"$   % h C R K K K K K K K K K R R G R =.<.2.2.1.1.2.2.,. .R T Q K L K K K K R R K G R =.<.2.2.1.2.2.2.-.} K T W K K I m 9 + O 2 ",
"$   % h C K K K K K K K K K K K K I R R Q ' ' W / ' ' R R R T L K K K K K K K K K R R R W ' ' / W / ' R I E K K K T K m 9 + O 2 ",
"$   $ h V T K K K K K K K K K K K K R G G G G G G G G G G R K K K K K K K K K K K K K G G G G G G G G G G R K L K K K x 9 + + 2 ",
"$   % h C I K K K K K K K K K K K K K T R R R R R R R R K K K K K K K K K K K K K K K R R R R R R R R R I K K K K K T m 9 + O 2 ",
"$   % h C K I T K K K K K K K K K K K K R R R R R R R R K K K K K K K K K K K K K K K R R R R R R R R R I K K K K K K x 9 + O 2 ",
"$   $ h C K K K K K K K K K K K K K K K R I R R K R R R K K K K K K K K K K K K K K K K K K R R R R R I T K K K K K K m 9 + O 2 ",
"$   % h C J K K K K K K K K K K K K K K L K K K K K K K K K K K K K K K K K K K K K K K K K K K K K K K K K K K K K K m 9 + O 2 ",
"$   % h V R K K K K K K K K K K K K K K K K K K K K K K K K K K K K K K K K K K K K K K K K K K K K K K K K K K K K K x 9 + O 2 ",
"$   % h C R K K K K K K K K K K K K K K K K K K K K K K K K K K K K K K K K K K K K K K K K K K K K K K K K K K K K K m 9 + O 2 ",
"$   $ h C K K K K K K K K K K K K K K K K K K K K K K K K K K K K K K K K K K K K K K K K K K K K K K K K K K K K K J m 9 $ O 2 ",
"$   % h C J K K K K K K K K K K K K K K K K K K K K K K K K K K K K K K K K K K K K K K K K K K K K K K K K K K K K K m 9 + O 2 ",
"$   $ h C T K K K K K K K K K K K K K K K K K K K K K K K K K K K K K K K K K K K K K K K K K K K K K K K K K K K K K M 9 + O 2 ",
"$   % h C T I K K K K K K K K K K K K K K K K K K K K K K K K K K K K K K K K K K K K K K K K K K K K K K K K J K K K x 9 + O 2 ",
"$   % h V K K K K K K K K T K I K K K K K K K K K K K K K K K K K K K K K K K K K K K K K K K K K K K K K K K K K K K m 9 + O 2 ",
"$   $ h V R K K K K K K K T J R K K K K K K K K K T K K K R K K T J R K K K K K K K K K K K K K K T K K K K K K K K K m 9 + O 2 ",
"$   % h V K I K K K K F N x z V J K K K K K K K K K K F N z x m x x x C F K K K K K K K K K K F M z x C J K K K K K K x 9 + O 2 ",
"$   % h C I T K K K K C k 4 4 k F K K K K K K K K K K V k 4 6 9 7 4 7 x F K K K K K K K K K K C s = 9 m F I K K K K K m 9 + O 2 ",
"$   % h V K K K K K K V h %   d J K I K K K K K I K T N d *   + +   = l D K K K K K K K K K K C 7   = x F T K K K K K m 9 $ O 2 ",
"$   % h C K T K J K J V d .   s D K J T K K K K J K J N s O   O     + l D J K J K K K K J J J V 4   $ l D K J J K K K x 9 + O 2 ",
"$   $ h V R I J C V C x d $   d M V V C F K K J C V V x s $ + = +   % h M C C C J K K F C V B x 6   % k N C V D J R K N 9 + O 2 ",
"$   $ h C K K D s 3 6 6 -X-X-X-X6 4 6 l D K K C s 3 6 4 -X-X-X-X-X-X-X-X4 6 6 k J K K N d 6 4 6 -X-X-X-X4 6 7 l J K K m 7 + O 2 ",
"$   % k C T I D 6       -X-X-X-X      h D I K D 4       -X-X-X-X-X-X-X-X      g J K K N 9       -X-X-X-X    . h J K K M 0 + O 2 ",
"$   % k C I K D 0     O -X-X-X-X+   % k C R K C 7     + -X-X-X-X-X-X-X-X    = h J R J N s $ O 2 -X-X-X-X    3 k F R J m 0 + O 2 ",
"$ -X-Xd z x m z 9 -X-X-X-X-X-X-X-X-X-Xg z m x z 6 -X-X-X-X-X-X-X-X-X-X-X-X-X= s z N x k 0 -X-X-X-X-X-X-X-X-X3 d x N x k 7 -X-X-X",
"-X-X-X-X6 9 7 4 -X-X-X-X-X-X-X-X-X-X-X-X7 9 7 6 -X-X-X-X-X-X-X-X-X-X-X-X-X-X-X-X6 9 7 6 -X-X-X-X-X-X-X-X-X-X-X-X7 9 6 4 -X-X-X-X",
"-X-X-X-X+ $ $ + -X-X-X-X-X-X-X-X-X-X-X-X+ + + + -X-X-X-X-X-X-X-X-X-X-X-X-X-X-X-X+ + + + -X-X-X-X-X-X-X-X-X-X-X-X+ $ + + -X-X-X-X",
"-X-X-X-X        -X-X-X-X-X-X-X-X-X-X-X-X        -X-X-X-X-X-X-X-X-X-X-X-X-X-X-X-X      -X-X-X-X-X-X-X-X-X-X-X-X-X      -X-X-X-X-X",
"-X-X-X-X$ $ $ $ -X-X-X-X-X-X-X-X-X-X-X-X$ $ $ $ -X-X-X-X-X-X-X-X-X-X-X-X-X-X-X-X$ $ $ -X-X-X-X-X-X-X-X-X-X-X-X-X$ $ $ -X-X-X-X-X"
};
