/* XPM */
static char *result[] = {
/* columns rows colors chars-per-pixel */
"64 64 136 2 ",
"   c #000000",
".  c #0A0000",
"X  c #1D0000",
"o  c #260000",
"O  c #290000",
"+  c #390101",
"@  c #6F0D0D",
"#  c #750202",
"$  c #7A0303",
"%  c #74030C",
"&  c #7C030B",
"*  c #710C0C",
"=  c #7D0B0B",
"-  c #7F0210",
";  c #770A13",
":  c #820202",
">  c #8C0303",
",  c #830C0C",
"<  c #940404",
"1  c #990404",
"2  c #92040D",
"3  c #940E0D",
"4  c #991100",
"5  c #801010",
"6  c #A20404",
"7  c #AE0606",
"8  c #A2050C",
"9  c #AF0C0C",
"0  c #B30606",
"q  c #BF0707",
"w  c #A31100",
"e  c #C40707",
"r  c #CD0707",
"t  c #C30803",
"y  c #CA0808",
"u  c #DB0000",
"i  c #DD0B00",
"p  c #D70A0A",
"a  c #DC0A0A",
"s  c #EA0000",
"d  c #E00C00",
"f  c #EE0B00",
"g  c #E30A0A",
"h  c #EB0B0B",
"j  c #FF0001",
"k  c #FF0E01",
"l  c #F60C0C",
"z  c #FF0D0D",
"x  c #FF1703",
"c  c #FD0D12",
"v  c #F71717",
"b  c #FF1313",
"n  c #FF1B1B",
"m  c #D30923",
"M  c #E50A26",
"N  c #EA0B24",
"B  c #FD0D26",
"V  c #FE0D28",
"C  c #D62323",
"Z  c #E62727",
"A  c #E92525",
"S  c #EB2828",
"D  c #FF2424",
"F  c #FF2929",
"G  c #FF3E3E",
"H  c #A2104B",
"J  c #F8144A",
"K  c #CF0C6A",
"L  c #EE0E6A",
"P  c #E6007A",
"I  c #E9007A",
"U  c #AD484A",
"Y  c #FE484A",
"T  c #FF5858",
"R  c #E06B6A",
"E  c #FE6B6A",
"W  c #FF7373",
"Q  c #FF7E7E",
"!  c #FF8177",
"~  c #FE807A",
"^  c #0001FF",
"/  c #000EFF",
"(  c #0011FF",
")  c #2717FD",
"_  c #2812FC",
"`  c #272AFF",
"'  c #2828FF",
"]  c #6F00EB",
"[  c #6F0AEC",
"{  c #7100EB",
"}  c #700AEC",
"|  c #6F6FFF",
" . c #6F72FF",
".. c #7072FF",
"X. c #CF0F88",
"o. c #D70E9A",
"O. c #DA0E99",
"+. c #E11088",
"@. c #E470A1",
"#. c #E870A1",
"$. c #920FDC",
"%. c #8F10DC",
"&. c #9610D9",
"*. c #9810D9",
"=. c #A30EC6",
"-. c #AF0FC6",
";. c #813EE9",
":. c #8276F9",
">. c #ED8888",
",. c #FF8383",
"<. c #FE8888",
"1. c #FF9696",
"2. c #FF9A9A",
"3. c #FFAFAF",
"4. c #FFB9B9",
"5. c #9191FF",
"6. c #9798FF",
"7. c #9899FF",
"8. c #B0B0FF",
"9. c #F7C7C7",
"0. c #FEC6C6",
"q. c #FFD5D5",
"w. c #FFD9D9",
"e. c #D6D7FF",
"r. c #D7D8FF",
"t. c #D8D8FF",
"y. c #E7CFE9",
"u. c #E8CFE9",
"i. c #FFE4E4",
"p. c #FFEBEB",
"a. c #E4E5FF",
"s. c #EEEDFE",
"d. c #FFF7F7",
"f. c #F8F6FD",
"g. c #FFFEFE",
"h. c None",
/* pixels */
"h.h.h.h.h.h.h.h.h.h.h.h.h.h.h.h.h.h.h.h.h.h.h.h.o O o o o o o o o o o o o o o o h.h.h.h.h.h.h.h.h.h.h.h.h.h.h.h.h.h.h.h.h.h.h.h.",
"h.h.h.h.h.h.h.h.h.h.h.h.h.h.h.h.h.h.h.h.h.h.h.h.                                h.h.h.h.h.h.h.h.h.h.h.h.h.h.h.h.h.h.h.h.h.h.h.h.",
"h.h.h.h.h.h.h.h.h.h.h.h.h.h.h.h.h.h.h.h.h.h.h.h.O O O O o o o o o o o o O O O O h.h.h.h.h.h.h.h.h.h.h.h.h.h.h.h.h.h.h.h.h.h.h.h.",
"h.h.h.h.h.h.h.h.h.h.h.h.h.h.h.h.h.h.h.h.h.h.h.h.< 1 1 1 1 1 < < 1 1 1 1 1 1 1 < h.h.h.h.h.h.h.h.h.h.h.h.h.h.h.h.h.h.h.h.h.h.h.h.",
"h.h.h.h.h.h.h.h.h.h.h.h.h.h.h.h.. . . . .     $ r a p p p p p p p p p p p p a r $     . . . . . h.h.h.h.h.h.h.h.h.h.h.h.h.h.h.h.",
"h.h.h.h.h.h.h.h.h.h.h.h.h.h.h.h.              $ h z z c z z z z z z z b z z b h $               h.h.h.h.h.h.h.h.h.h.h.h.h.h.h.h.",
"h.h.h.h.h.h.h.h.h.h.h.h.h.h.h.h.              $ h z z z z b z z z z z z z z z h #               h.h.h.h.h.h.h.h.h.h.h.h.h.h.h.h.",
"h.h.h.h.h.h.h.h.h.h.h.h.h.h.h.h.& & & & & % % 8 h z z z z z z z z z z z z z z h 8 % & & & & & & h.h.h.h.h.h.h.h.h.h.h.h.h.h.h.h.",
"h.h.h.h.h.h.h.h.h.h.h.h.o .   - m N M M M M M N c z z z z z z z z z z z z z z c N M M M M M N m -   . o h.h.h.h.h.h.h.h.h.h.h.h.",
"h.h.h.h.h.h.h.h.h.h.h.h.      # f k k k k k k k k z z z z z z z z z z z z c z k k k k k k x k f #       h.h.h.h.h.h.h.h.h.h.h.h.",
"h.h.h.h.h.h.h.h.h.h.h.h.O O   % N V V B B V V B z k z z z z z z z z z z c z k z B V B V V V B N %   O O h.h.h.h.h.h.h.h.h.h.h.h.",
"h.h.h.h.h.h.h.h.h.h.h.; 3 w 4 H X.O.o.O.o.o.o.+.J x x b b z z z z z z b b x x J +.o.o.o.o.O.O.X.H 4 w 3 ; h.h.h.h.h.h.h.h.h.h.h.",
"h.h.h.h.h.h.h.h.o   O 2 e i i K =.&.&.*.*.&.%.-.L k k z c c z z z z c c z x k L -.%.*.*.*.*.&.=.K i i e 2 O   X h.h.h.h.h.h.h.h.",
"h.h.h.h.h.h.h.h.    O 6 u j j I } ( ) _ _ ) ( [ P j j j j b z z z z b j j j j I [ / _ _ _ _ ( } I j j u 6 O   . h.h.h.h.h.h.h.h.",
"h.h.h.h.h.h.h.h.      < u j j I { ( / / / ( ( { I j j j j j z z z z j j j j j P ] ( ( / / ( ( { I j j u <       h.h.h.h.h.h.h.h.",
"h.h.h.h.h.h.h.h.= # @ U R ~ ! @.;.^ / ) ) / ^ ;.@.! ! E Y z j b b j z Y E Q ! @.;.^ ( ) ) / ^ ;.@.! ~ R U @ # 5 h.h.h.h.h.h.h.h.",
"h.h.h.h..     = C s A >.9.p.p.y.:.^ ( ' ` ( ^ :.u.p.p.0.<.D j F F j D <.0.p.p.y.:.^ ( ' ' ( ^ :.y.p.p.9.>.A s C =     . h.h.h.h.",
"h.h.h.h..     = S j F 2.w.g.g.a...^ ^ ^ ^ ^ ^ ..a.g.g.w.2.F j F F j F 2.w.g.g.a. .^ ^ ^ ^ ^ ^  .a.g.g.i.2.F j A =     . h.h.h.h.",
"h.h.h.h..     = A j F 2.w.g.g.a. .^ ' ' ' ' ^ | a.g.g.w.1.F j F F j F 1.w.g.g.a.| ^ ' ' ' ' ^ | a.g.g.w.2.F j A =     . h.h.h.h.",
"h.h.h.h..     = A j F 1.w.g.g.s.8.5.6.7.7.6.5.8.s.g.g.w.2.F j F F j F 2.w.g.g.s.8.5.6.7.7.6.5.8.s.g.g.q.1.F j A =     . h.h.h.h.",
"h.h.h.h..     = Z j F 2.w.d.g.f.a.e.e.r.t.e.e.t.f.g.g.q.1.F j F F j F 2.q.g.g.f.a.e.e.e.e.e.e.a.f.g.d.w.1.F j Z =     . h.h.h.h.",
"h.h.h.h..     = A j F 1.q.g.g.g.f.g.g.f.g.g.g.g.g.g.g.q.2.F j F F j F 2.q.g.g.g.g.g.g.g.g.g.g.f.g.g.g.w.1.F j Z =     . h.h.h.h.",
"h.h.h.h..     = Z j F 1.w.g.g.g.g.g.g.g.g.g.g.g.g.g.g.w.2.F j F F j F 1.w.g.g.g.g.g.g.g.g.g.g.g.g.g.g.w.1.F j Z =     . h.h.h.h.",
"h.h.h.h..     = Z j F 1.q.g.g.g.g.g.g.g.g.g.g.g.g.g.g.q.1.F j F F j F 1.q.g.g.g.g.g.f.g.g.g.g.g.g.g.g.q.2.F j Z =     . h.h.h.h.",
"h.h.h.h.X     , A j F 1.q.g.g.g.g.g.g.g.g.g.g.g.g.g.g.q.1.F j F F j F 1.q.g.g.g.g.g.g.g.g.g.g.g.g.g.g.q.1.F j A ,     X h.h.h.h.",
"h.h.h.h.      * Z j F 2.w.g.g.g.g.g.g.g.g.g.g.g.g.g.g.w.1.F j F F j F 2.w.g.g.g.g.g.g.g.g.g.g.g.g.g.g.w.2.F j Z *       h.h.h.h.",
"h.h.h.h.O O   * Z j F 2.w.g.g.g.g.g.g.g.g.g.g.g.g.g.g.w.3.D j F F j F 2.w.d.g.g.g.g.g.g.g.g.g.g.g.g.g.q.2.F j Z @   O O h.h.h.h.",
"h.h.h.$ < 6 1 9 A j D ,.4.w.w.i.g.g.g.g.g.g.g.d.w.w.w.4.,.n j F F j D ,.4.w.w.i.g.g.g.g.g.g.g.g.i.w.w.4.,.D j A 9 1 6 < # h.h.h.",
"o   O < e a p a v j n T ,.2.1.3.p.g.g.g.g.g.g.d.3.1.2.,.T n j n n j n T ,.2.1.3.p.g.g.g.g.g.g.d.3.1.2.,.T b j v g p a e < O . o ",
"O   O 7 a z b z j b n n D F j W p.g.g.g.g.g.g.i.W j F D b n b j j b n n D F j E p.g.g.g.g.g.g.i.E j F D n n b z z b z a 6 O   O ",
"O   O 1 a z z z z z b j j j j W p.g.g.g.g.g.g.i.W j j j j z z z z z z j j j j W i.g.g.g.g.g.g.p.W j j j j b z z z b z a 1 O   O ",
"o   O < p b z z z z z n n b j W q.i.p.i.p.p.p.q.W j b n D z z z z z z D n b j W q.p.p.p.i.p.p.q.W j b n D j z z z z z p 1 o   o ",
"o   O 1 p z b z z z z z z z j G W Q Q Q Q Q Q W G j z z z z z z z z z b z j j Y W Q Q Q Q Q ,.W G j z z b z z z z z z p < o   o ",
"o   O 1 p z z l z z z z z z z j j j j j j j j j j j z z z z z z z z z z z z z j j j j j j j j j j z z z z z z z z z z p < o   o ",
"o   o < p z z z z z z z z z z j j j j j j j j j z z z z z z z z z z z z z z z j j j j j j j j j j z z z z z z z z z z p 1 o   o ",
"o   o < p c z z z z z z z z z z z z z b z z z b z z z z z z z z z z z z z z z z b z z b z z z z z z z z z z z z z z z p 1 o   o ",
"o   O < p z z z z z z z z z z z b b n b b b b b z z z z z z z z z z z z z z z z b b b b n b b b z z z z z z z z z z b p 1 o   o ",
"o   O 1 p z z z z z z z z z z z z z z b z z z z z z z z z z z z z z z z z z z z z z z z z z z z z z z z z z z z z z z p 1 o   o ",
"o   O < p z z z z z z z z z z z z z z z z z z z z z z z z z z z z z z z z z z z z z z z z z z z z z z z z z z z z z z p 1 o   o ",
"o   O 1 p z z z z z z z z z z z z z z z z z z z z z z z z z z z z z z z z z z z z z z z z z z z z z z z z z z z z z z p 1 o   o ",
"o   O 1 p z z z z z z z z z z z z z z z z z z z z z z z z z z z z z z z z z z z z z z z z z z z z z z z z z z z z c z p < o   o ",
"o   o 1 p z b z z z z z z z z z z z z z z z z z z z z z z z z z z z z z z z z z z z z z z z z z z z z z z z z z z z z p < o   o ",
"o   O 1 p l z z z z z z z z z z z z z z z z z z z z z z z z z z z z z z z z z z z z z z z z z z z z z z z z z z l z z p 1 o   o ",
"o   o 1 p z z z z z z z z z z z z z z z z z z z z z z z z z z z z z z z z z z z z z z z z z z z z z z z z z z z z z b p 1 o   o ",
"o   O < p z z z z z z z z z z z z z z z z z z z z z z z z z z z z z z z z z z z z z z z z z z z z z z z z z z z z z b p 1 o   o ",
"o   O 1 p b z z z z z z z z z z z j z z z z z z z z z z z z z z z z z z z z z z z z z z z z z z z z z z z z z z z z z p 1 o   o ",
"o   O 1 p b z z z z z z z z z z z z z z z z z z z z z z z z z z z z z z z z z z j z z z z z z z z z z z z z z z z z z p 1 o   o ",
"o   o < p l z z z z z z z z z z z z z z z z z z z z z z z z z z z z z z z z z z z z z z z z z z z z z z z z z z z z z p 1 o   o ",
"o   O < p z z z z z z z z z z z z z z z z z z z z z z z z z z l z z z z z z z z z z z z z z z z z z z z z z z z z z l p < o   o ",
"o   O 1 p z b z z z z z z z z z z z z z z z z z z z z z z z z z z z z z z z z z z z z z z z z z z z z z z z z z z z z p 1 o   o ",
"o   O < p l z z z z z z z z z z z z z z z z z z z z z z z z z z z z z z z z z z z z z z z z z z z l z z z z z z z z b p 1 O   o ",
"o   O 1 p b z z z z z h a p p a l z z z z z z z z z z l g p p p p p r g l z z z z z z z z z z z g p p g l z z z z z z p < o   o ",
"o   O 1 p z z z z z z g q < > 7 l z z z z z z z z z z g q < < 1 < < < q g z z z z z z z z z z h 7 > < q g z z z z z z p 1 O   o ",
"o   O < p z z z z z z p < +   # g z z z z z z z z z z p < +   O o   + < p z z z z z z z z z z h #   + 1 p z z z z z z p 1 o   o ",
"o   O 1 p b z z z z z a 1     $ h z z z z z z z z z z p 1             < a z z z z z z z z z z h #     1 p z z z z z z p < O   o ",
"o   o 1 p z z l h h h r < o   : p h h h l z z z h h h r < o   + +   O < r h h h l z z z h h h p :   o < r h h h l b b p 1 o   o ",
"o   O < p z z h 6 # $ $ h.h.h.h.: # # 7 a z z h 8 $ $ $ h.h.h.h.h.h.h.h.$ $ $ 6 h z z g 7 # # $ h.h.h.h.$ $ $ 6 g z z p < O   O ",
"O   O 6 p z b h #       h.h.h.h.      < p b z h #       h.h.h.h.h.h.h.h.      # h b z p <       h.h.h.h.      # h z z a 1 O   O ",
"O   O 6 a z b h $       h.h.h.h.    O 1 a z z h $       h.h.h.h.h.h.h.h.      $ h z b a 1 O   . h.h.h.h.      $ h b z p 6 O   O ",
"o   O < e a g r $     h.h.h.h.h.o . O < e g g e $     h.h.h.h.h.h.h.h.h.h.    $ r g a e < O   o h.h.h.h.h.    $ y g a e < O   o ",
"h.h.h.# < 6 6 < h.h.h.h.h.h.h.h.h.h.h.$ < 6 6 < h.h.h.h.h.h.h.h.h.h.h.h.h.h.h.h.< 6 6 < # h.h.h.h.h.h.h.h.h.h.h.< 7 6 < # h.h.h.",
"h.h.h.h.O O O O h.h.h.h.h.h.h.h.h.h.h.h.O O O O h.h.h.h.h.h.h.h.h.h.h.h.h.h.h.h.O O O O h.h.h.h.h.h.h.h.h.h.h.h.o O O O h.h.h.h.",
"h.h.h.h.        h.h.h.h.h.h.h.h.h.h.h.h.        h.h.h.h.h.h.h.h.h.h.h.h.h.h.h.h.        h.h.h.h.h.h.h.h.h.h.h.h.        h.h.h.h.",
"h.h.h.h.o O O o h.h.h.h.h.h.h.h.h.h.h.h.O O o o h.h.h.h.h.h.h.h.h.h.h.h.h.h.h.h.o O O O h.h.h.h.h.h.h.h.h.h.h.h.o o O o h.h.h.h."
};
