/* XPM */
static char *result[] = {
/* columns rows colors chars-per-pixel */
"64 64 63 1 ",
"  c #FFE900",
". c #FFEA00",
"X c #FFEA01",
"o c #FFEE00",
"O c #FFEB37",
"+ c #FFEB38",
"@ c #FFEA3A",
"# c #FFEB3A",
"$ c #FFEA3B",
"% c #FFEB3B",
"& c #FFED38",
"* c #FFEC3A",
"= c #FFEC3B",
"- c #FFED3B",
"; c #FFEA3C",
": c #FFEB3C",
"> c #FFEB3D",
", c #FFEB3E",
"< c #FFEC3C",
"1 c #FFED3C",
"2 c #FFEE3C",
"3 c #FFEF3C",
"4 c #FFEF3D",
"5 c #FFED3E",
"6 c #FFF03C",
"7 c #FFF13C",
"8 c #FFF23D",
"9 c #FFF33D",
"0 c #FFF43D",
"q c #FFF53D",
"w c #FFF53E",
"e c #FFF63E",
"r c #FFF73E",
"t c #FFF83E",
"y c #FFF93E",
"u c #FFF93F",
"i c #FFFA3F",
"p c #FFFB3F",
"a c #FFFC3F",
"s c #FFFD3F",
"d c #FFEB41",
"f c #FFEB42",
"g c #FFF043",
"h c #FFFD40",
"j c #FFFE40",
"k c #FFFF40",
"l c #FFFF41",
"z c #FFFF42",
"x c #FFFF43",
"c c #FFFF44",
"v c #FFF8D1",
"b c #FFF9DE",
"n c #FFFADF",
"m c #FFFAE3",
"M c #FFFFE3",
"N c #FFFCEE",
"B c #FFFCEF",
"V c #FFFEF1",
"C c #FFFDF5",
"Z c #FFFEFC",
"A c #FFFFFE",
"S c white",
"D c None",
/* pixels */
"DDDDDDDDDDDDDDDDDDDDDDDDDDDDDDDDDDDDDDDDDDDDDDDDDDDDDDDDDDDDDDDD",
"DDDDDDDDDDDDDDDDDDD-crppppppppppppppppppptz%DDDDDDDDDDDDDDDDDDDD",
"DDDDDDDDDDDDDDDDDDDDy$===================%7$DDDDDDDDDDDDDDDDDDDD",
"DDDDDDDDDDDDDDDDDDD<h%%%%%%%%%%%%%%%%%%%%%e%DDDDDDDDDDDDDDDDDDDD",
"DDDDDDDDDDDDDDDDDDDDj%%%%%%%%%%%%%%%%%%%%=w%DDDDDDDDDDDDDDDDDDDD",
"DDDDDDDDDDDDDDDDDDD%0=%%%%%%%%%%%%%%%%%%%=w%DDDDDDDDDDDDDDDDDDDD",
"DDDDDDDDDDxpshhhhsk0%%%%%%%%%%%%%%%%%%%%%=w%DDDDDDDDDDDDDDDDDDDD",
"DDDDDDDDDD8$%====%%#%%%%%%%%%%%%%%%%%%%%=%e%DDDDDDDDDDDDDDDDDDDD",
"DDDDDDDDDDe#%%%%%%%%%%%%%%%%%%%%%%%%%%%%%%6%DDDDDDDDDDDDDDDDDDDD",
"DDDDDDDDDDr%%%%%%%%%%%%%%%%%%%%%%%%%%$=ahuz%DDDDDDDDDDDDDDDDDDDD",
"DDDDD::%=:3%%%%%%%%%%%%%%%%%%%%%%%%%%2%DDDDDDDDDDDDDDDDDDDDDDDDD",
"DDDDDhjajt%%%%%%%%%%%%%%%%%%%%%%%%%%%6%DDDDDDDDDDDDDDDDDDDDDDDDD",
"DDDDD==%=%%%%%%%%%%%%%%%%%%%%%%%%%:::4:DDDDDDDDDDDDDDDDDDDDDDDDD",
"DDDDD==%%%%%%%%%%%%%%%%%%%%%%%%%%%dfdgfDDDDDDDDDDDDDDDDDDDDDDDDD",
"DDDDD==%%%%%%%%%%%%%%%%%%%%%%%%%%%X..o DDDDDDDDDDDDDDDDDDDDDDDDD",
"DDDDD==%%%%%%%%%%%%%%%%%%%%%%%%>+>vmbMnDDDDDDDDDDDDDDDDDDDDDDDDD",
"DDDDD==%%%%%%%%%%%%%%%%%%%%%%%%,O,CSSSSDDDDDDDDDDDDDDDDDDDDDDDDD",
"DDDDD==%%%%%%%%%%%%%%%%%%%%%%%%>O>NSZSADDDDDDDDDDDDDDDDDDDDDDDDD",
"DDDDD==%%%%%%%%%%%%%%%%%%%%%%%%,+,BSASSDDDDDDDDDDDDDDDDDDDDDDDDD",
"DDDDD%=%%%%%%%%%%%%%%%%%%%%%%=15&5VSSSSDDDDDDDDDDDDDDDDDDDDDDDDD",
"%%=$%%%%%%%%%%%%%%%%%%%%%%%%0DDDDDDDDDDDDDDDDDDDDDDDDDDDDDDDDDDD",
"wwqw9%%%%%%%%%%%%%%%%%%%%%%#eDDDDDDDDDDDDDDDDDDDDDDDDDDDDDDDDDDD",
"=%==%%%%%%%%%%%%%%%%%%%%%%%%0DDDDDDDDDDDDDDDDDDDDDDDDDDDDDDDDDDD",
"%%%%%%%%%%%%%%%%%%%%%%%%132=uDDDDDDDDDDDDDDDDDDDDDDDDDDDDDDDDDDD",
"%%%%%%%%%%%%%%%%%%%%%%%=%%===DDDDDDDDDDDDDDDDDDDDDDDDDDDDDDDDDDD",
"%%%%%%%%%%%%%%%%%%%%%%%pDDDDDDDDDDDDDDDDDDDDDDDDDDDDDDDDDDDDDDDD",
"%%%%%%%%%%%%%%%%%%%%%%=aDDDDDDDDDDDDDDDDDDDDDDDDDDDDDDDDDDDDDDDD",
"%%%%%%%%%%%%%%%%%%%%=%%yDDDDDDDDDDDDDDDDDDDDDDDDDDDDDDDDDDDDDDDD",
"%%%%%%%%%%%%%%%%%%%3q03zDDDDDDDDDDDDDDDDDDDDDDDDDDDDDDDDDDDDDDDD",
"%%%%%%%%%%%%%%%%%%1%%%%%DDDDDDDDDDDDDDDDDDDDDDDDDDDDDDDDDDDDDDDD",
"%%%%%%%%%%%%%%%%%=hDDDDDDDDDDDDDDDDDDDDDDDDDDDDDDDDDDDDDDDDDDDDD",
"%%%%%%%%%%%%%%%%%=hDDDDDDDDDDDDDDDDDDDDDDDDDDDDDDDDDDDDDDDDDDDDD",
"%%%%%%%%%%%%%%%%%=s:DDDDDDDDDDDDDDDDDDDDDDDDDDDDDDDDDDDDDDDDDDDD",
"%%%%%%%%%%%%%%%%%%jDDDDDDDDDDDDDDDDDDDDDDDDDDDDDDDDDDDDDDDDDDDDD",
"%%%%%%%%%%%%%%%%%=y*DDDDDDDDDDDDDDDDDDDDDDDDDDDDDDDDDDDDDDDDDDDD",
"%%%%%%%%%%%%%%%%%%%6ee7zDDDDDDDDDDDDDDDDDDDDDDDDDDDDDDDDDDDDDDDD",
"%%%%%%%%%%%%%%%%%%%%#%%iDDDDDDDDDDDDDDDDDDDDDDDDDDDDDDDDDDDDDDDD",
"%%%%%%%%%%%%%%%%%%%%%%%pDDDDDDDDDDDDDDDDDDDDDDDDDDDDDDDDDDDDDDDD",
"%%%%%%%%%%%%%%%%%%%%%%%hDDDDDDDDDDDDDDDDDDDDDDDDDDDDDDDDDDDDDDDD",
"%%%%%%%%%%%%%%%%%%%%%%%e%DDDDDDDDDDDDDDDDDDDDDDDDDDDDDDDDDDDDDDD",
"%%%%%%%%%%%%%%%%%%%%%%%=ehpizDDDDDDDDDDDDDDDDDDDDDDDDDDDDDDDDDDD",
"%%%%%%%%%%%%%%%%%%%%%%%%%%%%7DDDDDDDDDDDDDDDDDDDDDDDDDDDDDDDDDDD",
"===%%%%%%%%%%%%%%%%%%%%%%=%%eDDDDDDDDDDDDDDDDDDDDDDDDDDDDDDDDDDD",
"hhhji%%%%%%%%%%%%%%%%%%%%%%=eDDDDDDDDDDDDDDDDDDDDDDDDDDDDDDDDDDD",
"%%*D@%%%%%%%%%%%%%%%%%%%%%%%6*DDDDDDDDDDDDDDDDDDDDDDDDDDDDDDDDDD",
"DDDDD%=%%%%%%%%%%%%%%%%%%%%%%yjakaDDDDDDDDDDDDDDDDDDDDDDDDDDDDDD",
"DDDDD%=%%%%%%%%%%%%%%%%%%%%%%=%=%=DDDDDDDDDDDDDDDDDDDDDDDDDDDDDD",
"DDDDD==%%%%%%%%%%%%%%%%%%%%%%%%%=%DDDDDDDDDDDDDDDDDDDDDDDDDDDDDD",
"DDDDD==%%%%%%%%%%%%%%%%%%%%%%%%%=%DDDDDDDDDDDDDDDDDDDDDDDDDDDDDD",
"DDDDD==%%%%%%%%%%%%%%%%%%%%%%%%%%%$:<$$DDDDDDDDDDDDDDDDDDDDDDDDD",
"DDDDD==%%%%%%%%%%%%%%%%%%%%%%%%%%%ihpl%DDDDDDDDDDDDDDDDDDDDDDDDD",
"DDDDD%%%%%%%%%%%%%%%%%%%%%%%%%%%%%=%%%%DDDDDDDDDDDDDDDDDDDDDDDDD",
"DDDDD%%%%%%%%%%%%%%%%%%%%%%%%%%%%%%%%6=DDDDDDDDDDDDDDDDDDDDDDDDD",
"DDDDDrrwr9%%%%%%%%%%%%%%%%%%%%%%%%%%%6$DDDDDDDDDDDDDDDDDDDDDDDDD",
"DDDDDDDDDD9%%%%%%%%%%%%%%%%%%%%%%%%%%=%##%<@DDDDDDDDDDDDDDDDDDDD",
"DDDDDDDDDDr%$%%%%%%%%%%%%%%%%%%%%%%%%%=tyql%DDDDDDDDDDDDDDDDDDDD",
"DDDDDDDDDDw%%%%%%%%=%%%%%%%%%%%%%%%%%%%%=$8;DDDDDDDDDDDDDDDDDDDD",
"DDDDDDDDDDr%%======%%%%%%%%%%%%%%%%%%%%%%%w%DDDDDDDDDDDDDDDDDDDD",
"DDDDDDDDDDr%%====%=%%%%%%%%%%%%%%%%%%%%%%=w%DDDDDDDDDDDDDDDDDDDD",
"DDDDDDDDDDDDDDDDDDD@i%%%%%%%%%%%%%%%%%%%%=w%DDDDDDDDDDDDDDDDDDDD",
"DDDDDDDDDDDDDDDDDDDDj%%%%%%%%%%%%%%%%%%%%=w%DDDDDDDDDDDDDDDDDDDD",
"DDDDDDDDDDDDDDDDDDD*s=%%%%%%%%%%%%%%%%%%%=w%DDDDDDDDDDDDDDDDDDDD",
"DDDDDDDDDDDDDDDDDDD%h=%%%%%%%%%%%%%%%%%%%=w%DDDDDDDDDDDDDDDDDDDD",
"DDDDDDDDDDDDDDDDDDD%h=%%%%%%%%%%%%%%%%%%%=w%DDDDDDDDDDDDDDDDDDDD"
};
