/* XPM */
static char *result[] = {
/* columns rows colors chars-per-pixel */
"64 64 39 1 ",
"  c #FFEA3A",
". c #FFEB3A",
"X c #FFEA3B",
"o c #FFEB3B",
"O c #FFEC3A",
"+ c #FFEC3B",
"@ c #FFED3B",
"# c #FFEA3C",
"$ c #FFEB3C",
"% c #FFEC3C",
"& c #FFED3C",
"* c #FFEE3C",
"= c #FFEF3C",
"- c #FFF03C",
"; c #FFF13C",
": c #FFF13D",
"> c #FFF23D",
", c #FFF33D",
"< c #FFF43D",
"1 c #FFF53D",
"2 c #FFF53E",
"3 c #FFF63E",
"4 c #FFF73E",
"5 c #FFF83E",
"6 c #FFF93E",
"7 c #FFF93F",
"8 c #FFFA3F",
"9 c #FFFB3F",
"0 c #FFFC3F",
"q c #FFFD3F",
"w c #FFFD40",
"e c #FFFE40",
"r c #FFFF40",
"t c #FFFF41",
"y c #FFFF42",
"u c #FFFF43",
"i c #FFFF44",
"p c #FFFF45",
"a c None",
/* pixels */
"aaaaaaaaaaaaaaaaaaaaaaX8ooooooooooooooooooooo>.aaaaaaaaaaaaaaaaa",
"aaaaaaaaaaaaaaaaaaaaaa+8ooooooooooooooooooooo>.aaaaaaaaaaaaaaaaa",
"aaaaaaaaaaaaaaaaaaaaaa%8ooooooooooooooooooooo>%aaaaaaaaaaaaaaaaa",
"aaaaaaaaaaaaaaaaaaaaaa$9ooooooooooooooooooooo,oaaaaaaaaaaaaaaaaa",
"aaaaaaaaaaaaaaaaaaaaaao<+oooooooooooooooooooo=oaaaaaaaaaaaaaaaaa",
"aaaaaaaaaaaa%i5wqwwwqe;+oooooooooooooooooooooo@0wqqqqw6u+aaaaaaa",
"aaaaaaaaaaaa%5ooooooooooooooooooooooooooooooooooooooooX,.aaaaaaa",
"aaaaaaaaaaaa$wo+o+++++ooooooooooooooooooooooooo+++++o+o5Xaaaaaaa",
"aaaaaaaaaaaaaeoooooooooooooooooooooooooooooooooooooooo+6oaaaaaaa",
"aaaaaaaaXaaaX<+ooooooooooooooooooooooooooooooooooooooo.>+aaa aaa",
"aaaaaaaap5er,ooooooooooooooooooooooooooooooooooooooooooo=ew7iXaa",
"aaaaaaaa7ooo.ooooooooooooooooooooooooooooooooooooooooooooo+o2%aa",
"aaaaaaaae+oooooooooooooooooooooooooooooooooooooooooooooooooo8.aa",
"aaaaaaaaeooooooooooooooooooooooooooooooooooooooooooooooooooo8.aa",
"aaaaaaaaeooooooooooooooooooooooooooooooooooooooooooooooooooo8.aa",
"aaaaaaaaeooooooooooooooooooooooooooooooooooooooooooooooooooo8.aa",
"aaaaaaaaeooooooooooooooooooooooooooooooooooooooooooooooooooo8oaa",
"aaaaaaaawooooooooooooooooooooooooooooooooooooooooooooooooooo3oaa",
"aaaaaaaar++oooooooooooooooooooooooooooooooooooooooo&99999995uoaa",
"aaaX+ooo>ooooooooooooooooooooooooooooooooooooooooo;oaaaaaaaaaaaa",
"aaai59q<oooooooooooooooooooooooooooooooooooooooooo1#aaaaaaaaaaaa",
"aaa4X+o.ooooooooooooooooooooooooooooooooooooooooo.<$aaaaaaaaaaaa",
"aaa0oooooooooooooooooooooooooooooooooo+o++++++++oo;%aaaaaaaaaaaa",
"aaa0ooooooooooooooooooooooooooooooooo4755565555563t+aaaaaaaaaaaa",
"aaa0ooooooooooooooooooooooooooooooo+oaaaaaaaaaaaaaaaaaaaaaaaaaaa",
"aaa0ooooooooooooooooooooooooooooooo&+aaaaaaaaaaaaaaaaaaaaaaaaaaa",
"aaa0ooooooooooooooooooooooooooo+ooo++aaaaaaaaaaaaaaaaaaaaaaaaaaa",
"aaa0oooooooooooooooooooooooo+ooooooo+aaaaaaaaaaaaaaaaaaaaaaaaaaa",
"aaa0oooooooooooooooooo;<,,,,,,,,,,>3=aaaaaaaaaaaaaaaaaaaaaaaaaaa",
"aaa0ooooooooooooooooo3aaaaaaaaaaaaaaaaaaaaaaaaaaaaaaaaaaaaaaaaaa",
"aaa0oooooooooooooooo+8aaaaaaaaaaaaaaaaaaaaaaaaaaaaaaaaaaaaaaaaaa",
"aaa0ooooooooooooooooo7aaaaaaaaaaaaaaaaaaaaaaaaaaaaaaaaaaaaaaaaaa",
"aaa0ooooooooooooooooo8aaaaaaaaaaaaaaaaaaaaaaaaaaaaaaaaaaaaaaaaaa",
"aaa0ooooooooooooooooo8aaaaaaaaaaaaaaaaaaaaaaaaaaaaaaaaaaaaaaaaaa",
"aaa0ooooooooooooooooo&$oo%%$%%%%$$+oXaaaaaaaaaaaaaaaaaaaaaaaaaaa",
"aaa0oooooooooooooooooo>31111211111<4;aaaaaaaaaaaaaaaaaaaaaaaaaaa",
"aaa0oooooooooooooooooo+oo+++++++++o+oaaaaaaaaaaaaaaaaaaaaaaaaaaa",
"aaa0ooooooooooooooooooooooooooooooo&oaaaaaaaaaaaaaaaaaaaaaaaaaaa",
"aaa0ooooooooooooooooooooooooooooooo@oaaaaaaaaaaaaaaaaaaaaaaaaaaa",
"aaa0ooooooooooooooooooooooooooooooooooooooooooooooo.aaaaaaaaaaaa",
"aaa0ooooooooooooooooooooooooooooooooo-:;:::;::;;:=9oaaaaaaaaaaaa",
"aaa7o+oooooooooooooooooooooooooooooooooooooooooooo,+aaaaaaaaaaaa",
"aaat@-:*ooooooooooooooooooooooooooooooooooooooooo.1oaaaaaaaaaaaa",
"aaaooooo+oooooooooooooooooooooooooooooooooooooooo.<oaaaaaaaaaaaa",
"aaaaaaaaqo+oooooooooooooooooooooooooooooooooooooooo.oooooo+o@oaa",
"aaaaaaaae++oooooooooooooooooooooooooooooooooooooooo+=======+eoaa",
"aaaaaaaaeoooooooooooooooooooooooooooooooooooooooooooo.ooo.oo5oaa",
"aaaaaaaaeooooooooooooooooooooooooooooooooooooooooooooooooooo8 aa",
"aaaaaaaaeooooooooooooooooooooooooooooooooooooooooooooooooooo8.aa",
"aaaaaaaaeooooooooooooooooooooooooooooooooooooooooooooooooooo8.aa",
"aaaaaaaaeo+ooooooooooooooooooooooooooooooooooooooooooooooooo8.aa",
"aaaaaaaa8Xoooooooooooooooooooooooooooooooooooooooooooooooooo3oaa",
"aaaaaaaau:44-ooooooooooooooooooooooooooooooooooooooooooo*43,y+aa",
"aaaaaaaaooooo*ooooooooooooooooooooooooooooooooooooooooo&oooooOaa",
"aaaaaaaaaaaa%eooooooooooooooooooooooooooooooooooooooooo5Xaaaaaaa",
"aaaaaaaaaaaaXw+oooooooooooooooooooooooooooooooooooooooo5oaaaaaaa",
"aaaaaaaaaaaa+8Xo+oo+++oooooooooooooooooooooooooo+++++oo1oaaaaaaa",
"aaaaaaaaaaaaou<5555557=ooooooooooooooooooooooo+5555555<yoaaaaaaa",
"aaaaaaaaaaaaaoXo+o+oo+o=ooooooooooooooooooooo@Xoooo++o+oXaaaaaaa",
"aaaaaaaaaaaaaaaaaaaaaaX9ooooooooooooooooooooo,oaaaaaaaaaaaaaaaaa",
"aaaaaaaaaaaaaaaaaaaaaa.9+ooooooooooooooooooo+,%aaaaaaaaaaaaaaaaa",
"aaaaaaaaaaaaaaaaaaaaaa+2ooooooooooooooooooooo*oaaaaaaaaaaaaaaaaa",
"aaaaaaaaaaaaaaaaaaaaaaXu499999999999999999995toaaaaaaaaaaaaaaaaa",
"aaaaaaaaaaaaaaaaaaaaaaaoo%##%%###%##%%##%%%%o+oaaaaaaaaaaaaaaaaa"
};
